<svg version="1.1" id="Layer_1" xmlns="http://www.w3.org/2000/svg" xmlns:xlink="http://www.w3.org/1999/xlink" x="0px" y="0px"
	 width="100%" viewBox="0 0 1024 324" enable-background="new 0 0 1024 324" xml:space="preserve">
<path fill="none" opacity="1.000000" stroke="none"
	d="
M682.000000,325.000000 
	C454.666718,325.000000 227.833420,325.000000 1.000091,325.000000 
	C1.000061,217.000061 1.000061,109.000122 1.000030,1.000135 
	C342.333221,1.000090 683.666443,1.000090 1024.999756,1.000045 
	C1024.999756,108.999855 1024.999756,216.999710 1024.999878,324.999786 
	C910.833313,325.000000 796.666687,325.000000 682.000000,325.000000 
M646.653015,154.904999 
	C646.653015,154.904999 646.760071,154.980591 646.911682,155.704636 
	C651.100891,164.381805 655.321228,173.044144 659.467896,181.741577 
	C662.052185,187.161850 666.311462,189.628143 672.258118,189.426147 
	C673.913574,189.369919 675.576782,189.602951 677.236633,189.606293 
	C686.769104,189.625580 696.301514,189.615677 706.584595,189.615677 
	C697.745361,175.140686 689.372009,161.428741 681.023865,147.757980 
	C697.345337,134.472015 701.206726,128.394379 702.515747,108.571815 
	C703.714111,90.424561 696.407104,73.990334 677.719177,65.876816 
	C668.354065,61.810856 658.513611,60.452175 648.513062,60.304642 
	C630.199463,60.034477 611.879944,60.165981 593.562866,60.152020 
	C591.814331,60.150688 590.065674,60.304829 588.327454,60.386303 
	C588.327454,70.630692 588.327454,80.236313 588.327454,90.358467 
	C599.191467,90.358467 609.806274,90.294197 620.419922,90.376785 
	C630.736633,90.457062 641.071411,90.355873 651.362488,90.952560 
	C660.392883,91.476143 665.576111,97.258034 666.089600,106.134972 
	C666.721985,117.067329 662.452698,123.736877 653.012878,125.356422 
	C648.312439,126.162849 643.398987,125.908699 638.586975,125.828537 
	C634.367371,125.758255 630.154907,125.260933 626.112488,124.037880 
	C626.038391,115.028381 625.964233,106.018875 625.921265,96.470909 
	C625.604248,96.408112 625.287170,96.345322 624.316101,96.100006 
	C623.869263,96.150017 623.422424,96.200027 622.074707,96.061821 
	C618.396057,96.126083 614.717346,96.190346 610.166931,96.094933 
	C608.103088,96.137367 606.039246,96.179794 603.066406,96.002151 
	C598.149719,96.002151 593.233093,96.002151 588.110535,96.002151 
	C588.110535,110.416290 588.110535,124.212601 587.942017,138.666092 
	C587.990723,139.112549 588.039368,139.558990 587.855042,140.801712 
	C587.803955,152.713852 587.731445,164.625946 587.713379,176.538132 
	C587.707092,180.711929 588.828918,184.372345 593.157288,187.025711 
	C593.688782,187.265732 594.220215,187.505753 595.326965,188.228088 
	C603.884155,188.471436 612.441345,188.714767 621.738098,189.131897 
	C622.491882,189.084824 623.245605,189.037750 624.698120,189.118378 
	C625.035645,188.398376 625.373108,187.678391 625.847900,186.043106 
	C625.808105,181.687988 625.768311,177.332870 625.953857,172.067337 
	C625.953857,166.345276 625.953857,160.623199 625.953857,154.338974 
	C632.740662,154.338974 638.922546,154.338974 645.564941,154.539108 
	C645.730591,154.515503 645.896301,154.491882 646.097839,154.430954 
	C646.097839,154.430954 646.135071,154.459244 646.328125,154.686768 
	C646.328125,154.686768 646.611328,154.780807 646.653015,154.904999 
M217.852005,264.269989 
	C219.192108,263.155182 220.532211,262.040375 222.448273,260.529724 
	C223.661560,257.000458 225.754135,253.512314 225.921432,249.934143 
	C226.401901,239.657639 226.191132,229.343079 226.000320,219.048141 
	C225.976349,217.754776 224.444046,216.489349 223.610611,215.210983 
	C222.776382,216.582016 221.255280,217.935516 221.219772,219.326935 
	C220.995255,228.125046 221.378479,236.944275 220.977783,245.729919 
	C220.778687,250.095047 219.340012,254.403625 217.974686,258.905792 
	C217.641953,259.289154 217.309235,259.672516 216.348587,260.196838 
	C215.231979,260.852478 214.115356,261.508087 212.186600,262.184875 
	C208.810043,262.444366 205.433472,262.703827 201.527634,262.573303 
	C200.690033,262.376526 199.852448,262.179749 198.613678,261.440491 
	C193.515030,258.843201 191.969589,254.298325 191.934662,249.014664 
	C191.869827,239.200592 191.990662,229.383514 191.758148,219.574234 
	C191.723373,218.107071 190.191238,216.675385 189.351822,215.227280 
	C188.487823,216.508148 186.931610,217.760529 186.877518,219.074722 
	C186.618637,225.365829 186.735352,231.673920 186.780258,237.975510 
	C186.814453,242.773331 186.547531,247.619095 187.132263,252.354904 
	C187.775909,257.567749 189.778091,262.293030 195.985245,264.669098 
	C197.657501,265.283295 199.329742,265.897461 201.709229,266.842896 
	C202.486237,266.855286 203.263260,266.867645 204.850708,267.031952 
	C206.220764,266.985596 207.590805,266.939240 209.739563,266.979462 
	C210.494720,266.812134 211.249893,266.644806 212.628677,266.642761 
	C214.146500,265.903076 215.664337,265.163361 217.852005,264.269989 
M960.186768,262.566193 
	C960.186768,262.566193 959.831909,262.623535 959.207581,262.195068 
	C957.925659,261.979919 956.643738,261.764801 955.285522,261.536835 
	C955.285522,255.086899 955.285522,248.831848 955.285522,242.000076 
	C962.534546,242.000076 969.490051,242.199539 976.422058,241.882980 
	C978.605835,241.783264 982.139404,243.995956 982.686951,239.702179 
	C982.727966,239.380737 978.673096,238.084351 976.497925,238.016174 
	C969.427551,237.794571 962.345825,237.933258 955.383301,237.933258 
	C955.383301,231.452087 955.383301,225.871887 955.383301,219.843567 
	C963.911255,219.843567 972.047607,219.978256 980.172363,219.731277 
	C981.821655,219.681137 983.427246,218.191788 985.052979,217.365967 
	C983.512512,216.615097 981.986633,215.252075 980.429138,215.214951 
	C971.773010,215.008698 963.106140,215.258270 954.449402,215.063904 
	C950.981628,214.986038 949.804810,216.063843 949.882080,219.605179 
	C950.085449,228.927811 949.919312,238.258408 949.908081,247.585831 
	C949.900696,253.686951 949.906738,259.788086 949.906738,265.975494 
	C959.420837,265.975494 968.204163,265.975494 977.819031,266.096283 
	C979.215027,266.058990 980.610962,266.021667 982.756836,266.109344 
	C983.666809,265.411835 984.576721,264.714294 985.486694,264.016754 
	C984.878113,263.347870 984.260376,262.089996 983.662354,262.099304 
	C975.932861,262.219666 968.206238,262.520386 960.186768,262.566193 
M719.464722,61.600414 
	C719.464722,61.600414 719.410034,61.639259 719.473145,61.234058 
	C719.473145,61.234058 719.097900,61.068695 718.333801,60.847130 
	C717.199585,61.398678 715.089417,61.928909 715.076782,62.504955 
	C714.871399,71.909714 714.931152,81.320259 714.931152,90.981224 
	C727.543274,90.981224 739.498840,90.992439 751.454102,90.939087 
	C751.918823,90.937012 752.380859,90.315926 753.006287,89.191162 
	C752.953857,88.119240 752.901489,87.047310 753.027527,85.165199 
	C752.965881,83.789940 752.904236,82.414688 753.009583,80.115021 
	C752.959106,75.401703 752.908569,70.688393 753.022766,65.503273 
	C753.022766,65.503273 752.888733,65.021881 753.104675,64.366646 
	C753.052307,63.914925 752.999939,63.463203 753.093933,62.124104 
	C752.665039,61.727547 752.235291,60.984089 751.807434,60.985237 
	C741.482910,61.012867 731.158630,61.120049 720.080750,61.046707 
	C719.897400,61.227013 719.713989,61.407318 719.464722,61.600414 
M369.135956,243.485916 
	C369.384949,243.706085 369.633911,243.926239 370.814423,244.271988 
	C375.864349,244.468262 380.914276,244.664520 386.126984,244.867111 
	C386.199463,252.375107 384.136719,257.761871 377.926514,260.805969 
	C370.759216,264.319244 363.729675,264.044006 357.404327,258.955444 
	C349.515076,252.608765 347.432220,238.500443 352.801758,228.204727 
	C356.168457,221.749329 361.567169,218.622589 369.009338,218.711868 
	C376.064880,218.796524 381.222961,221.700867 384.136902,228.051346 
	C385.463989,230.943542 386.956451,231.818848 389.727753,230.354202 
	C389.020020,218.033768 372.229919,209.239899 357.384735,216.979691 
	C347.870605,221.940063 342.855621,234.890930 345.449646,247.327972 
	C347.350433,256.441132 352.150208,263.345123 361.365753,266.056763 
	C370.681152,268.797791 379.125671,267.277374 385.646790,259.332245 
	C385.742218,259.215973 386.229645,259.421417 385.570953,259.301788 
	C386.965607,261.886139 388.077423,263.946381 389.189209,266.006622 
	C389.744232,263.658905 390.299225,261.311188 391.000824,258.064850 
	C390.943176,254.724945 390.885529,251.385025 390.926178,247.230835 
	C390.882477,246.140625 390.838776,245.050415 390.952301,243.287857 
	C390.649780,242.494324 390.347290,241.700790 389.632874,240.480347 
	C389.074097,240.283005 388.515320,240.085663 387.867798,239.120117 
	C387.495880,238.597137 387.142975,237.634476 386.749237,237.617462 
	C381.346375,237.384048 375.936554,237.199997 370.533081,237.287979 
	C370.061218,237.295670 369.621887,239.301956 369.120178,241.026337 
	C369.125061,241.672440 369.129944,242.318542 369.135956,243.485916 
M400.041779,108.962265 
	C391.095612,108.939888 382.149445,108.917503 373.075745,107.983765 
	C373.075745,103.724678 373.075745,99.465584 373.075745,95.090469 
	C359.916931,95.090469 347.536865,95.090469 334.893982,95.090469 
	C334.893982,96.581955 334.898254,97.728302 334.893341,98.874619 
	C334.789490,123.023811 335.229828,147.193115 334.340454,171.313370 
	C333.921509,182.674713 340.115112,188.354706 350.464111,188.206070 
	C376.273651,187.835342 402.094482,188.248444 427.910767,188.340973 
	C432.331238,188.356812 436.751831,188.343216 441.496643,188.343216 
	C441.496643,178.216293 441.496643,168.820816 441.496643,158.865417 
	C418.607849,158.865417 396.032013,158.865417 373.205322,158.865417 
	C373.205322,151.753708 373.205322,145.202744 373.205322,138.154236 
	C393.535553,138.154236 413.563812,138.154236 433.623108,138.154236 
	C433.623108,128.253403 433.623108,118.854027 433.623108,109.130051 
	C422.539246,109.130051 411.749268,109.130051 400.041779,108.962265 
M322.175690,80.179527 
	C322.175690,73.233101 322.175690,66.286682 322.175690,58.841999 
	C310.135834,58.841999 298.183868,58.773613 286.235748,58.957207 
	C285.147491,58.973930 283.777588,60.409821 283.059570,61.522854 
	C278.822632,68.090691 274.744720,74.760994 270.604279,81.391205 
	C265.072449,90.249504 259.532410,99.102684 253.752502,108.347397 
	C252.417297,106.298882 251.388901,104.810844 250.450867,103.267860 
	C242.330383,89.910286 234.273819,76.513405 226.061951,63.212364 
	C224.924530,61.370052 223.087036,58.655350 221.499664,58.603374 
	C209.595886,58.213600 197.673523,58.391159 185.881393,58.391159 
	C185.644058,59.070759 185.445160,59.375767 185.443787,59.681656 
	C185.269791,98.481079 185.069870,137.280472 184.998627,176.080124 
	C184.989151,181.238708 188.822113,186.375565 193.846634,186.741608 
	C202.382385,187.363449 210.996277,186.912689 220.175201,186.912689 
	C220.175201,163.095352 220.175201,139.276535 220.175201,115.457733 
	C220.480240,115.389778 220.785294,115.321831 221.090332,115.253883 
	C231.614182,131.467941 242.138046,147.682007 253.057541,164.505630 
	C264.300079,147.540176 275.030457,131.347534 285.760864,115.154877 
	C286.167419,115.321472 286.573944,115.488068 286.980499,115.654663 
	C286.980499,119.767830 286.980499,123.881004 286.766449,128.909378 
	C286.801514,134.260315 286.836578,139.611237 286.510651,145.697998 
	C286.461609,155.455963 286.412567,165.213943 286.176636,175.715515 
	C287.122650,181.192215 288.961395,186.662994 295.219666,187.158356 
	C304.026459,187.855438 312.929626,187.334625 322.090881,187.334625 
	C322.090881,178.346695 322.098572,169.551285 322.089417,160.755905 
	C322.061737,134.179382 322.027557,107.602867 322.175690,80.179527 
M490.042480,131.500214 
	C490.042480,119.568802 490.042480,107.637390 490.042480,95.427917 
	C477.022705,95.427917 464.628235,95.427917 452.166687,95.427917 
	C452.063873,96.421150 451.941010,97.070984 451.937256,97.721512 
	C451.788147,123.548355 451.601379,149.375137 451.537445,175.202209 
	C451.516235,183.768768 456.539062,188.605911 465.360870,188.689224 
	C475.192108,188.782074 485.032440,188.951767 494.854980,188.644943 
	C505.312164,188.318314 515.999329,188.695724 526.160217,186.650131 
	C580.863831,175.637100 588.255798,117.688683 566.399109,86.523712 
	C553.192749,67.693008 533.688232,60.561344 511.472382,59.928818 
	C495.987488,59.487934 480.487701,59.563358 464.994385,59.427364 
	C460.736786,59.389992 456.478577,59.421688 452.256897,59.421688 
	C452.256897,69.919701 452.256897,79.667786 452.256897,89.312012 
	C452.902618,89.518875 453.207245,89.700668 453.512817,89.702301 
	C471.340363,89.797401 489.168060,89.859589 506.995392,89.981255 
	C509.314636,89.997078 511.690338,90.042519 513.940613,90.531281 
	C530.620667,94.154144 540.484375,109.587906 538.420044,128.655823 
	C536.583313,145.620987 527.971008,156.558868 513.776733,158.344620 
	C506.113525,159.308716 498.229340,158.516220 490.042480,158.516220 
	C490.042480,149.723206 490.042480,141.111755 490.042480,131.500214 
M115.332405,57.990807 
	C101.740158,57.990807 88.147911,57.990807 73.835365,57.990807 
	C73.835365,71.901482 73.835365,85.257973 73.835365,99.090836 
	C59.868423,99.090836 46.620403,99.090836 32.828140,99.090836 
	C32.828140,114.616966 32.828140,129.647034 32.828140,145.179642 
	C44.817631,145.179642 56.618622,145.344315 68.410713,145.092529 
	C72.680313,145.001373 73.927765,146.586288 73.815689,150.603958 
	C73.606850,158.090790 73.741028,165.587769 73.765953,173.080414 
	C73.794907,181.783493 78.019791,186.353195 86.726433,186.842819 
	C90.876747,187.076218 95.048943,186.931931 99.211258,186.937988 
	C105.972740,186.947830 112.734253,186.940628 120.240280,186.940628 
	C120.240280,172.839676 120.240280,159.477417 120.240280,145.634277 
	C134.238297,145.634277 147.475983,145.634277 161.794403,145.634277 
	C161.794403,131.011520 161.741348,116.893120 161.832321,102.775650 
	C161.854599,99.319283 159.830505,99.177162 157.266220,99.180664 
	C147.942947,99.193382 138.619553,99.115181 129.296188,99.078087 
	C126.371803,99.066452 123.447342,99.076263 120.479874,99.076263 
	C120.479874,85.014908 120.479874,71.784386 120.479874,58.343132 
	C118.873955,58.208187 117.578842,58.099358 115.332405,57.990807 
M985.238586,167.633118 
	C985.238586,165.722092 985.238586,163.811050 985.238586,161.082794 
	C961.785645,161.082794 939.075562,161.082794 916.838867,161.082794 
	C916.838867,153.835495 916.838867,147.432388 916.838867,140.727585 
	C937.303589,140.727585 957.195618,140.727585 977.311951,140.727585 
	C977.311951,130.941406 977.311951,121.512283 977.311951,111.343018 
	C957.026794,111.343018 936.990112,111.343018 916.478149,111.343018 
	C916.478149,106.356781 916.478149,102.102814 916.478149,97.528252 
	C903.610779,97.528252 891.231018,97.528252 878.593567,97.528252 
	C878.505737,99.028534 878.369446,100.327965 878.362549,101.628082 
	C878.231018,126.275017 878.091187,150.921951 878.006348,175.569061 
	C877.970215,186.053940 882.361511,190.430878 892.826721,190.492538 
	C916.638306,190.632797 940.449951,190.767029 964.261658,190.885559 
	C971.048645,190.919342 977.835876,190.890717 985.240784,190.890717 
	C985.240784,183.158768 985.240784,175.881546 985.238586,167.633118 
M799.266113,186.172028 
	C801.556580,187.448715 803.801147,189.718796 806.145508,189.826981 
	C815.395691,190.253845 824.677124,190.002090 834.393799,190.002090 
	C834.393799,158.819611 834.393799,128.113174 834.393799,97.128357 
	C821.664124,97.128357 809.235229,97.128357 796.653381,97.128357 
	C796.516174,98.003128 796.332153,98.636223 796.329651,99.270035 
	C796.226807,125.429092 796.063232,151.588531 796.170105,177.746841 
	C796.180847,180.374344 797.842163,182.995102 799.266113,186.172028 
M714.291748,149.773727 
	C714.281372,158.770813 714.195740,167.768646 714.285034,176.764740 
	C714.353638,183.684326 718.676880,189.252335 725.110779,189.593506 
	C734.045959,190.067352 743.025085,189.712662 752.471558,189.712662 
	C752.471558,158.729660 752.471558,128.002228 752.471558,96.930191 
	C740.068848,96.930191 727.671753,96.930191 714.359070,96.930191 
	C714.359070,114.259644 714.359070,131.546021 714.291748,149.773727 
M774.362305,61.920372 
	C769.356079,61.920372 764.349854,61.920372 759.371948,61.920372 
	C759.371948,71.537697 759.371948,81.121948 759.371948,91.105873 
	C797.067322,91.105873 834.454407,91.105873 872.199707,91.105873 
	C872.199707,81.215302 872.199707,71.485878 872.199707,61.919861 
	C839.731812,61.919861 807.527161,61.919861 774.362305,61.920372 
M981.327454,61.917831 
	C947.244873,61.917831 913.162354,61.917831 878.828796,61.917831 
	C878.828796,71.664024 878.828796,81.392418 878.828796,91.586212 
	C913.979675,91.586212 948.825928,91.586212 984.095459,91.586212 
	C984.095459,82.411957 984.150452,73.598099 984.016418,64.787140 
	C984.001892,63.830563 982.894775,62.890606 981.327454,61.917831 
M401.498871,89.330948 
	C414.284607,89.330948 427.070343,89.330948 440.080017,89.330948 
	C440.080017,79.180031 440.080017,69.432541 440.080017,59.357979 
	C404.971985,59.357979 370.117981,59.357979 335.237640,59.357979 
	C335.237640,69.457932 335.237640,79.187347 335.237640,89.331055 
	C357.228546,89.331055 378.863861,89.331055 401.498871,89.330948 
M533.182495,255.403671 
	C535.272095,258.543427 537.161865,261.849487 539.561035,264.731476 
	C540.386292,265.722687 542.652771,266.247314 543.943848,265.877716 
	C544.917542,265.598999 545.976746,263.562408 545.989502,262.298096 
	C546.133911,247.986176 546.159485,233.671280 545.963989,219.360626 
	C545.945129,217.980408 544.229675,216.623352 543.301758,215.255554 
	C542.566528,216.631958 541.216919,217.998123 541.193726,219.386414 
	C541.016235,230.034714 541.096741,240.687332 541.097046,251.338608 
	C541.097107,252.984436 541.097046,254.630264 541.097046,257.670441 
	C539.002747,254.819473 537.883728,253.374786 536.847473,251.873032 
	C528.920654,240.385803 521.086182,228.833130 512.986572,217.469299 
	C512.091980,216.214188 509.723511,215.607971 508.010956,215.552399 
	C507.400909,215.532639 506.153503,218.035400 506.139740,219.396240 
	C505.995056,233.708099 505.974609,248.022705 506.152313,262.333679 
	C506.167816,263.582397 507.833923,264.810577 508.733368,266.048309 
	C509.524994,264.723572 510.979492,263.410583 511.003204,262.072235 
	C511.192108,251.423782 511.097626,240.770477 511.123108,230.118744 
	C511.126892,228.541565 511.304230,226.964828 511.401306,225.387878 
	C511.728485,225.270950 512.055664,225.154007 512.382874,225.037079 
	C519.170044,234.964813 525.957214,244.892563 533.182495,255.403671 
M292.951691,215.236801 
	C286.288666,215.198029 279.615540,215.366043 272.966400,215.042389 
	C269.017731,214.850189 267.771149,216.098450 267.835602,220.097595 
	C268.055695,233.756012 267.830933,247.421402 268.018311,261.080811 
	C268.041412,262.763367 269.342896,265.715851 270.370667,265.863678 
	C273.923584,266.374664 272.844360,263.195740 272.885834,261.302429 
	C273.011810,255.558502 272.931427,249.810043 272.931427,243.847519 
	C279.323425,243.847519 284.810303,243.784912 290.295166,243.863449 
	C297.025024,243.959808 300.243256,247.006790 300.919525,253.778534 
	C301.200104,256.588501 301.487366,259.400452 301.654846,262.218414 
	C301.861877,265.702393 303.555481,266.841278 307.423553,265.740082 
	C304.142273,257.679779 309.291107,247.285080 299.618011,241.733383 
	C301.561432,239.582611 303.767090,237.879257 305.006348,235.640854 
	C310.041962,226.544983 305.204468,217.956818 292.951691,215.236801 
M870.306274,258.393066 
	C870.299744,259.724854 869.940308,261.189331 870.378052,262.354126 
	C870.898987,263.740234 872.104431,264.869049 873.013245,266.109375 
	C873.911682,264.858459 875.499084,263.653046 875.585327,262.348419 
	C875.903076,257.541412 875.850830,252.697144 875.684570,247.875610 
	C875.582397,244.915878 876.513855,243.641266 879.642273,243.772491 
	C884.295227,243.967667 888.963928,243.749008 893.623657,243.832367 
	C899.520142,243.937851 902.408875,246.590378 903.135315,252.484146 
	C903.521423,255.616501 903.885193,258.758606 904.067017,261.907379 
	C904.285400,265.689423 905.940979,266.937286 910.025757,265.390106 
	C906.751160,257.470245 911.486816,247.343613 902.059204,241.565445 
	C908.923340,236.051392 911.034973,230.128494 908.667847,223.633438 
	C906.747803,218.365021 900.932190,215.183655 893.063965,215.142166 
	C887.070984,215.110550 881.070984,215.291245 875.087036,215.053574 
	C871.354370,214.905319 870.157288,216.280029 870.211914,219.968201 
	C870.396790,232.451279 870.302551,244.938492 870.306274,258.393066 
M454.444763,266.136139 
	C457.936035,266.190155 461.435760,266.395020 464.913208,266.201172 
	C465.885590,266.146973 466.792358,264.916718 467.729248,264.225952 
	C466.881683,263.463837 466.147522,262.346954 465.157471,262.030426 
	C463.948517,261.643890 462.524750,261.924957 461.193878,261.924713 
	C453.268433,261.923309 445.342987,261.924011 437.300873,261.924011 
	C437.300873,254.989227 437.300873,248.760223 437.300873,242.005371 
	C445.395142,242.005371 453.171906,242.111023 460.940521,241.906738 
	C462.317871,241.870529 463.661316,240.544083 465.020416,239.813446 
	C463.718475,239.183990 462.431519,238.049408 461.112061,238.010239 
	C454.463074,237.812805 447.800446,238.035004 441.155243,237.780075 
	C439.764099,237.726700 437.315704,236.367920 437.247833,235.467926 
	C436.866302,230.409180 437.063873,225.306747 437.063873,219.873230 
	C439.462311,219.873230 441.102722,219.875641 442.743134,219.872803 
	C449.897003,219.860443 457.052643,219.919510 464.202637,219.745941 
	C465.154388,219.722809 466.077393,218.516418 467.013702,217.857986 
	C466.300293,216.957230 465.599030,215.283188 464.871674,215.271805 
	C454.117676,215.103394 443.360199,215.155701 432.106598,215.155701 
	C432.106598,231.745468 432.054291,247.671555 432.250946,263.594574 
	C432.261505,264.449829 434.335968,265.957886 435.498230,266.006744 
	C441.477142,266.257812 447.471954,266.131104 454.444763,266.136139 
M748.505432,260.986115 
	C752.424683,257.009003 754.111206,252.285126 752.923218,246.342285 
	C751.014099,247.369522 749.475098,248.730240 748.886047,250.421738 
	C746.632568,256.892761 742.615967,261.596283 735.775085,262.799347 
	C728.837219,264.019470 722.834351,261.395752 718.593079,255.861847 
	C711.989014,247.244949 712.856384,232.480453 720.060303,224.275925 
	C727.760071,215.506592 741.912537,217.140488 747.466919,227.260757 
	C748.303467,228.785019 750.434143,229.599014 751.966187,230.741562 
	C751.932617,228.660538 752.597412,226.221741 751.746094,224.559570 
	C747.771179,216.799484 738.737427,212.830780 729.680664,214.396912 
	C717.604858,216.485077 711.397583,223.489594 709.266968,237.432297 
	C707.598816,248.349350 712.586304,259.398163 721.470093,264.465515 
	C729.507263,269.049896 740.267944,267.849121 748.505432,260.986115 
M789.474976,263.085632 
	C789.844177,264.091797 790.213440,265.097961 790.582642,266.104095 
	C791.786133,265.470184 793.591003,265.136261 794.083984,264.147980 
	C795.785217,260.737152 796.939514,257.058105 798.500000,253.569733 
	C798.982117,252.492050 800.077637,250.915466 800.923462,250.895660 
	C807.904602,250.732239 815.157166,249.822433 821.746765,251.466553 
	C824.317200,252.107864 825.401306,258.709106 827.159790,262.596924 
	C827.296875,262.899994 827.324463,263.344910 827.553955,263.498993 
	C829.068787,264.515961 830.625000,265.471344 833.103943,267.038818 
	C832.943298,264.505432 833.064392,263.784698 832.836243,263.200317 
	C826.909363,248.019135 820.998352,232.831009 814.884888,217.724915 
	C814.424255,216.586700 812.356567,215.261246 811.249756,215.429459 
	C809.793152,215.650833 807.864807,216.987137 807.317444,218.325745 
	C801.340088,232.945312 795.592834,247.658966 789.474976,263.085632 
M605.838379,233.508179 
	C605.838379,229.097702 605.838379,224.687210 605.838379,219.881454 
	C611.062500,219.881454 615.379028,220.099335 619.649658,219.751816 
	C620.971008,219.644287 622.167236,217.998779 623.420715,217.057434 
	C622.282654,216.395645 621.151489,215.173126 620.005371,215.158920 
	C608.700073,215.018906 597.391296,215.018433 586.086548,215.183960 
	C585.035339,215.199356 584.004761,216.627853 582.964661,217.400253 
	C584.075195,218.227234 585.098755,219.563446 586.315002,219.771088 
	C588.577454,220.157349 590.952148,219.891327 593.280151,219.887405 
	C600.117554,219.875900 600.139709,219.874054 600.149231,226.955185 
	C600.164856,238.595032 600.146057,250.234924 600.147888,261.874786 
	C600.148193,264.078674 600.043701,266.803314 603.187988,266.232910 
	C604.293701,266.032318 605.679260,263.459717 605.718689,261.938660 
	C605.955200,252.799133 605.837219,243.650436 605.838379,233.508179 
z"/>
<path fill="#64ffda" opacity="1.000000" stroke="none"
	d="
M286.980499,127.994171 
	C286.980499,123.881004 286.980499,119.767830 286.980499,115.654663 
	C286.573944,115.488068 286.167419,115.321472 285.760864,115.154877 
	C275.030457,131.347534 264.300079,147.540176 253.057541,164.505630 
	C242.138046,147.682007 231.614182,131.467941 221.090332,115.253883 
	C220.785294,115.321831 220.480240,115.389778 220.175201,115.457733 
	C220.175201,139.276535 220.175201,163.095352 220.175201,186.912689 
	C210.996277,186.912689 202.382385,187.363449 193.846634,186.741608 
	C188.822113,186.375565 184.989151,181.238708 184.998627,176.080124 
	C185.069870,137.280472 185.269791,98.481079 185.443787,59.681656 
	C185.445160,59.375767 185.644058,59.070759 185.881393,58.391159 
	C197.673523,58.391159 209.595886,58.213600 221.499664,58.603374 
	C223.087036,58.655350 224.924530,61.370052 226.061951,63.212364 
	C234.273819,76.513405 242.330383,89.910286 250.450867,103.267860 
	C251.388901,104.810844 252.417297,106.298882 253.752502,108.347397 
	C259.532410,99.102684 265.072449,90.249504 270.604279,81.391205 
	C274.744720,74.760994 278.822632,68.090691 283.059570,61.522854 
	C283.777588,60.409821 285.147491,58.973930 286.235748,58.957207 
	C298.183868,58.773613 310.135834,58.841999 322.175690,58.841999 
	C322.175690,66.286682 322.175690,73.233101 321.788971,80.893021 
	C321.269775,83.417053 321.023499,85.227478 321.021820,87.038139 
	C320.993347,118.182495 320.942108,149.327087 321.055573,180.471024 
	C321.070129,184.468201 320.002777,186.301666 315.704163,186.073593 
	C310.389557,185.791626 305.047760,186.068527 299.719452,185.987701 
	C293.985413,185.900726 290.839081,183.409790 288.755890,177.865219 
	C288.339691,176.757553 287.180267,175.929108 286.363556,174.971909 
	C286.412567,165.213943 286.461609,155.455963 287.015076,145.065735 
	C287.339874,138.953690 287.160187,133.473938 286.980499,127.994171 
z"/>
<path fill="#64ffda" opacity="1.000000" stroke="none"
	d="
M490.042480,132.000259 
	C490.042480,141.111755 490.042480,149.723206 490.042480,158.516220 
	C498.229340,158.516220 506.113525,159.308716 513.776733,158.344620 
	C527.971008,156.558868 536.583313,145.620987 538.420044,128.655823 
	C540.484375,109.587906 530.620667,94.154144 513.940613,90.531281 
	C511.690338,90.042519 509.314636,89.997078 506.995392,89.981255 
	C489.168060,89.859589 471.340363,89.797401 453.512817,89.702301 
	C453.207245,89.700668 452.902618,89.518875 452.256897,89.312012 
	C452.256897,79.667786 452.256897,69.919701 452.256897,59.421688 
	C456.478577,59.421688 460.736786,59.389992 464.994385,59.427364 
	C480.487701,59.563358 495.987488,59.487934 511.472382,59.928818 
	C533.688232,60.561344 553.192749,67.693008 566.399109,86.523712 
	C588.255798,117.688683 580.863831,175.637100 526.160217,186.650131 
	C515.999329,188.695724 505.312164,188.318314 494.854980,188.644943 
	C485.032440,188.951767 475.192108,188.782074 465.360870,188.689224 
	C456.539062,188.605911 451.516235,183.768768 451.537445,175.202209 
	C451.601379,149.375137 451.788147,123.548355 451.937256,97.721512 
	C451.941010,97.070984 452.063873,96.421150 452.166687,95.427917 
	C464.628235,95.427917 477.022705,95.427917 490.042480,95.427917 
	C490.042480,107.637390 490.042480,119.568802 490.042480,132.000259 
z"/>
<path fill="#64ffda" opacity="1.000000" stroke="none"
	d="
M594.751709,187.745773 
	C594.220215,187.505753 593.688782,187.265732 593.021240,186.351028 
	C589.006348,180.691086 590.040771,174.832321 589.999207,169.184174 
	C589.943237,161.589752 590.121826,153.990585 589.898315,146.402344 
	C589.835022,144.254135 588.720459,142.136887 588.088013,140.005432 
	C588.039368,139.558990 587.990723,139.112549 588.411865,138.233551 
	C589.248779,136.110336 589.916870,134.422638 589.933472,132.728546 
	C590.033569,122.524170 590.115540,112.315811 589.919128,102.114250 
	C589.842773,98.148987 591.323059,96.772118 595.191040,96.925972 
	C598.105225,97.041878 601.046326,96.481552 603.975403,96.222229 
	C606.039246,96.179794 608.103088,96.137367 610.922119,96.417435 
	C615.443420,96.576637 619.209473,96.413338 622.975586,96.250038 
	C623.422424,96.200027 623.869263,96.150017 624.646484,96.379967 
	C624.976807,96.659927 625.005432,97.036530 625.000854,97.502876 
	C624.997009,103.093201 624.879639,108.220802 625.036926,113.339973 
	C625.156006,117.216309 625.625610,121.081879 625.939270,124.952232 
	C630.154907,125.260933 634.367371,125.758255 638.586975,125.828537 
	C643.398987,125.908699 648.312439,126.162849 653.012878,125.356422 
	C662.452698,123.736877 666.721985,117.067329 666.089600,106.134972 
	C665.576111,97.258034 660.392883,91.476143 651.362488,90.952560 
	C641.071411,90.355873 630.736633,90.457062 620.419922,90.376785 
	C609.806274,90.294197 599.191467,90.358467 588.327454,90.358467 
	C588.327454,80.236313 588.327454,70.630692 588.327454,60.386303 
	C590.065674,60.304829 591.814331,60.150688 593.562866,60.152020 
	C611.879944,60.165981 630.199463,60.034477 648.513062,60.304642 
	C658.513611,60.452175 668.354065,61.810856 677.719177,65.876816 
	C696.407104,73.990334 703.714111,90.424561 702.515747,108.571815 
	C701.206726,128.394379 697.345337,134.472015 681.023865,147.757980 
	C689.372009,161.428741 697.745361,175.140686 706.584595,189.615677 
	C696.301514,189.615677 686.769104,189.625580 677.236633,189.606293 
	C675.576782,189.602951 673.913574,189.369919 672.258118,189.426147 
	C666.311462,189.628143 662.052185,187.161850 659.467896,181.741577 
	C655.321228,173.044144 651.100891,164.381805 647.017883,155.273682 
	C646.953186,154.822083 646.782227,154.801437 646.611328,154.780807 
	C646.611328,154.780807 646.328125,154.686768 646.401245,154.430145 
	C646.336914,154.271774 646.199524,154.370010 646.062073,154.468262 
	C645.896301,154.491882 645.730591,154.515503 645.090698,154.096405 
	C638.960876,153.447342 633.305237,153.141312 627.649658,153.139862 
	C626.780457,153.139648 625.158875,154.543564 625.160645,155.295105 
	C625.174561,161.189728 625.499451,167.083633 625.728516,172.977753 
	C625.768311,177.332870 625.808105,181.687988 625.487122,186.562958 
	C624.750671,187.718765 624.375061,188.354721 623.999390,188.990677 
	C623.245605,189.037750 622.491882,189.084824 621.287842,188.677078 
	C620.174011,187.843933 619.515320,187.147079 618.845886,187.136536 
	C612.125061,187.030777 605.402100,186.998474 598.680542,187.046707 
	C597.369324,187.056091 596.061218,187.501495 594.751709,187.745773 
z"/>
<path fill="#64ffda" opacity="1.000000" stroke="none"
	d="
M115.808067,57.990669 
	C117.578842,58.099358 118.873955,58.208187 120.479874,58.343132 
	C120.479874,71.784386 120.479874,85.014908 120.479874,99.076263 
	C123.447342,99.076263 126.371803,99.066452 129.296188,99.078087 
	C138.619553,99.115181 147.942947,99.193382 157.266220,99.180664 
	C159.830505,99.177162 161.854599,99.319283 161.832321,102.775650 
	C161.741348,116.893120 161.794403,131.011520 161.794403,145.634277 
	C147.475983,145.634277 134.238297,145.634277 120.240280,145.634277 
	C120.240280,159.477417 120.240280,172.839676 120.240280,186.940628 
	C112.734253,186.940628 105.972740,186.947830 99.211258,186.937988 
	C95.048943,186.931931 90.876747,187.076218 86.726433,186.842819 
	C78.019791,186.353195 73.794907,181.783493 73.765953,173.080414 
	C73.741028,165.587769 73.606850,158.090790 73.815689,150.603958 
	C73.927765,146.586288 72.680313,145.001373 68.410713,145.092529 
	C56.618622,145.344315 44.817631,145.179642 32.828140,145.179642 
	C32.828140,129.647034 32.828140,114.616966 32.828140,99.090836 
	C46.620403,99.090836 59.868423,99.090836 73.835365,99.090836 
	C73.835365,85.257973 73.835365,71.901482 73.835365,57.990807 
	C88.147911,57.990807 101.740158,57.990807 115.808067,57.990669 
z"/>
<path fill="#64ffda" opacity="1.000000" stroke="none"
	d="
M985.239685,168.118729 
	C985.240784,175.881546 985.240784,183.158768 985.240784,190.890717 
	C977.835876,190.890717 971.048645,190.919342 964.261658,190.885559 
	C940.449951,190.767029 916.638306,190.632797 892.826721,190.492538 
	C882.361511,190.430878 877.970215,186.053940 878.006348,175.569061 
	C878.091187,150.921951 878.231018,126.275017 878.362549,101.628082 
	C878.369446,100.327965 878.505737,99.028534 878.593567,97.528252 
	C891.231018,97.528252 903.610779,97.528252 916.478149,97.528252 
	C916.478149,102.102814 916.478149,106.356781 916.478149,111.343018 
	C936.990112,111.343018 957.026794,111.343018 977.311951,111.343018 
	C977.311951,121.512283 977.311951,130.941406 977.311951,140.727585 
	C957.195618,140.727585 937.303589,140.727585 916.838867,140.727585 
	C916.838867,147.432388 916.838867,153.835495 916.838867,161.082794 
	C939.075562,161.082794 961.785645,161.082794 985.238586,161.082794 
	C985.238586,163.811050 985.238586,165.722092 985.239685,168.118729 
M950.476990,186.999390 
	C933.214417,186.999390 915.951782,186.999390 898.689209,186.999390 
	C898.687561,187.481400 898.685974,187.963394 898.684326,188.445404 
	C899.117004,188.612106 899.549500,188.924133 899.982361,188.924759 
	C925.767212,188.962097 951.552246,189.008530 977.336609,188.904068 
	C978.935974,188.897598 980.530396,187.685669 982.127136,187.034576 
	C981.971252,186.471329 981.815369,185.908096 981.659546,185.344849 
	C971.595459,185.896362 961.531372,186.447861 950.476990,186.999390 
z"/>
<path fill="#64ffda" opacity="1.000000" stroke="none"
	d="
M400.959290,109.130051 
	C411.749268,109.130051 422.539246,109.130051 433.623108,109.130051 
	C433.623108,118.854027 433.623108,128.253403 433.623108,138.154236 
	C413.563812,138.154236 393.535553,138.154236 373.205322,138.154236 
	C373.205322,145.202744 373.205322,151.753708 373.205322,158.865417 
	C396.032013,158.865417 418.607849,158.865417 441.496643,158.865417 
	C441.496643,168.820816 441.496643,178.216293 441.496643,188.343216 
	C436.751831,188.343216 432.331238,188.356812 427.910767,188.340973 
	C402.094482,188.248444 376.273651,187.835342 350.464111,188.206070 
	C340.115112,188.354706 333.921509,182.674713 334.340454,171.313370 
	C335.229828,147.193115 334.789490,123.023811 334.893341,98.874619 
	C334.898254,97.728302 334.893982,96.581955 334.893982,95.090469 
	C347.536865,95.090469 359.916931,95.090469 373.075745,95.090469 
	C373.075745,99.465584 373.075745,103.724678 372.866608,108.649689 
	C373.660339,109.846649 374.675415,110.852371 375.664001,110.826996 
	C380.069000,110.713898 384.466797,110.312004 388.866394,110.002907 
	C392.897888,109.719666 396.928375,109.421593 400.959290,109.130051 
z"/>
<path fill="#64ffda" opacity="1.000000" stroke="none"
	d="
M799.001831,185.895508 
	C797.842163,182.995102 796.180847,180.374344 796.170105,177.746841 
	C796.063232,151.588531 796.226807,125.429092 796.329651,99.270035 
	C796.332153,98.636223 796.516174,98.003128 796.653381,97.128357 
	C809.235229,97.128357 821.664124,97.128357 834.393799,97.128357 
	C834.393799,128.113174 834.393799,158.819611 834.393799,190.002090 
	C824.677124,190.002090 815.395691,190.253845 806.145508,189.826981 
	C803.801147,189.718796 801.556580,187.448715 799.001831,185.895508 
z"/>
<path fill="#64ffda" opacity="1.000000" stroke="none"
	d="
M714.325439,149.303070 
	C714.359070,131.546021 714.359070,114.259644 714.359070,96.930191 
	C727.671753,96.930191 740.068848,96.930191 752.471558,96.930191 
	C752.471558,128.002228 752.471558,158.729660 752.471558,189.712662 
	C743.025085,189.712662 734.045959,190.067352 725.110779,189.593506 
	C718.676880,189.252335 714.353638,183.684326 714.285034,176.764740 
	C714.195740,167.768646 714.281372,158.770813 714.325439,149.303070 
z"/>
<path fill="#64ffda" opacity="1.000000" stroke="none"
	d="
M774.842407,61.920116 
	C807.527161,61.919861 839.731812,61.919861 872.199707,61.919861 
	C872.199707,71.485878 872.199707,81.215302 872.199707,91.105873 
	C834.454407,91.105873 797.067322,91.105873 759.371948,91.105873 
	C759.371948,81.121948 759.371948,71.537697 759.371948,61.920372 
	C764.349854,61.920372 769.356079,61.920372 774.842407,61.920116 
z"/>
<path fill="#64ffda" opacity="1.000000" stroke="none"
	d="
M981.810974,61.930386 
	C982.894775,62.890606 984.001892,63.830563 984.016418,64.787140 
	C984.150452,73.598099 984.095459,82.411957 984.095459,91.586212 
	C948.825928,91.586212 913.979675,91.586212 878.828796,91.586212 
	C878.828796,81.392418 878.828796,71.664024 878.828796,61.917831 
	C913.162354,61.917831 947.244873,61.917831 981.810974,61.930386 
z"/>
<path fill="#64ffda" opacity="1.000000" stroke="none"
	d="
M400.999023,89.331001 
	C378.863861,89.331055 357.228546,89.331055 335.237640,89.331055 
	C335.237640,79.187347 335.237640,69.457932 335.237640,59.357979 
	C370.117981,59.357979 404.971985,59.357979 440.080017,59.357979 
	C440.080017,69.432541 440.080017,79.180031 440.080017,89.330948 
	C427.070343,89.330948 414.284607,89.330948 400.999023,89.331001 
z"/>
<path fill="#64ffda" opacity="1.000000" stroke="none"
	d="
M752.849121,85.975388 
	C752.901489,87.047310 752.953857,88.119240 752.466797,89.590118 
	C742.643738,89.991043 733.348694,90.242989 724.084534,89.820137 
	C721.752869,89.713707 717.771729,87.708794 717.533997,86.127487 
	C716.276123,77.760803 713.267273,69.050873 719.097900,61.068695 
	C719.097900,61.068695 719.473145,61.234058 719.699219,61.578243 
	C720.056396,61.975151 720.187561,62.027874 720.318665,62.080601 
	C720.055969,61.916279 719.793213,61.751949 719.530518,61.587624 
	C719.713989,61.407318 719.897400,61.227013 720.818909,61.419907 
	C723.622498,62.193386 725.682739,62.905403 727.754211,62.939301 
	C736.150146,63.076706 744.549500,63.005642 752.947632,63.011482 
	C752.999939,63.463203 753.052307,63.914925 752.844971,64.777527 
	C752.528442,65.287720 752.398804,65.433830 752.427307,65.478134 
	C752.544800,65.660576 752.710266,65.812134 752.858154,65.975060 
	C752.908569,70.688393 752.959106,75.401703 752.688110,80.819229 
	C752.527527,83.007416 752.688354,84.491402 752.849121,85.975388 
z"/>
<path fill="#64ffda" opacity="1.000000" stroke="none"
	d="
M532.963440,255.111984 
	C525.957214,244.892563 519.170044,234.964813 512.382874,225.037079 
	C512.055664,225.154007 511.728485,225.270950 511.401306,225.387878 
	C511.304230,226.964828 511.126892,228.541565 511.123108,230.118744 
	C511.097626,240.770477 511.192108,251.423782 511.003204,262.072235 
	C510.979492,263.410583 509.524994,264.723572 508.733368,266.048309 
	C507.833923,264.810577 506.167816,263.582397 506.152313,262.333679 
	C505.974609,248.022705 505.995056,233.708099 506.139740,219.396240 
	C506.153503,218.035400 507.400909,215.532639 508.010956,215.552399 
	C509.723511,215.607971 512.091980,216.214188 512.986572,217.469299 
	C521.086182,228.833130 528.920654,240.385803 536.847473,251.873032 
	C537.883728,253.374786 539.002747,254.819473 541.097046,257.670441 
	C541.097046,254.630264 541.097107,252.984436 541.097046,251.338608 
	C541.096741,240.687332 541.016235,230.034714 541.193726,219.386414 
	C541.216919,217.998123 542.566528,216.631958 543.301758,215.255554 
	C544.229675,216.623352 545.945129,217.980408 545.963989,219.360626 
	C546.159485,233.671280 546.133911,247.986176 545.989502,262.298096 
	C545.976746,263.562408 544.917542,265.598999 543.943848,265.877716 
	C542.652771,266.247314 540.386292,265.722687 539.561035,264.731476 
	C537.161865,261.849487 535.272095,258.543427 532.963440,255.111984 
z"/>
<path fill="#64ffda" opacity="1.000000" stroke="none"
	d="
M293.384888,215.300751 
	C305.204468,217.956818 310.041962,226.544983 305.006348,235.640854 
	C303.767090,237.879257 301.561432,239.582611 299.618011,241.733383 
	C309.291107,247.285080 304.142273,257.679779 307.423553,265.740082 
	C303.555481,266.841278 301.861877,265.702393 301.654846,262.218414 
	C301.487366,259.400452 301.200104,256.588501 300.919525,253.778534 
	C300.243256,247.006790 297.025024,243.959808 290.295166,243.863449 
	C284.810303,243.784912 279.323425,243.847519 272.931427,243.847519 
	C272.931427,249.810043 273.011810,255.558502 272.885834,261.302429 
	C272.844360,263.195740 273.923584,266.374664 270.370667,265.863678 
	C269.342896,265.715851 268.041412,262.763367 268.018311,261.080811 
	C267.830933,247.421402 268.055695,233.756012 267.835602,220.097595 
	C267.771149,216.098450 269.017731,214.850189 272.966400,215.042389 
	C279.615540,215.366043 286.288666,215.198029 293.384888,215.300751 
M272.920410,227.549530 
	C272.920410,231.298828 272.920410,235.048126 272.920410,239.072495 
	C280.102539,239.072495 286.423401,239.259033 292.726868,239.008408 
	C297.094788,238.834747 300.782257,235.150558 301.202026,231.248627 
	C301.822144,225.484024 299.948639,220.911224 295.533844,220.508575 
	C288.196442,219.839325 280.753601,220.326263 272.921204,220.326263 
	C272.921204,222.626572 272.921204,224.601425 272.920410,227.549530 
z"/>
<path fill="#64ffda" opacity="1.000000" stroke="none"
	d="
M387.956543,239.888336 
	C388.515320,240.085663 389.074097,240.283005 389.823486,241.026978 
	C390.274445,242.369141 390.534760,243.164673 390.795105,243.960205 
	C390.838776,245.050415 390.882477,246.140625 390.623016,247.940826 
	C390.497986,252.088379 390.676117,255.525940 390.854248,258.963501 
	C390.299225,261.311188 389.744232,263.658905 389.189209,266.006622 
	C388.077423,263.946381 386.965607,261.886139 385.570953,259.301788 
	C386.229645,259.421417 385.742218,259.215973 385.646790,259.332245 
	C379.125671,267.277374 370.681152,268.797791 361.365753,266.056763 
	C352.150208,263.345123 347.350433,256.441132 345.449646,247.327972 
	C342.855621,234.890930 347.870605,221.940063 357.384735,216.979691 
	C372.229919,209.239899 389.020020,218.033768 389.727753,230.354202 
	C386.956451,231.818848 385.463989,230.943542 384.136902,228.051346 
	C381.222961,221.700867 376.064880,218.796524 369.009338,218.711868 
	C361.567169,218.622589 356.168457,221.749329 352.801758,228.204727 
	C347.432220,238.500443 349.515076,252.608765 357.404327,258.955444 
	C363.729675,264.044006 370.759216,264.319244 377.926514,260.805969 
	C384.136719,257.761871 386.199463,252.375107 386.126984,244.867111 
	C380.914276,244.664520 375.864349,244.468262 370.303619,243.968521 
	C369.646759,243.362717 369.427429,243.129242 369.134796,242.964645 
	C369.129944,242.318542 369.125061,241.672440 369.491333,240.650330 
	C370.566589,240.264435 371.270691,240.254547 372.301666,240.470505 
	C376.095245,240.533844 379.561890,240.371368 383.420166,240.182449 
	C384.857727,240.165863 385.903625,240.175705 387.060913,240.324677 
	C387.468170,240.373398 387.764069,240.283005 388.062744,240.106796 
	C388.065552,240.020981 387.956543,239.888336 387.956543,239.888336 
z"/>
<path fill="#64ffda" opacity="1.000000" stroke="none"
	d="
M870.310608,257.908600 
	C870.302551,244.938492 870.396790,232.451279 870.211914,219.968201 
	C870.157288,216.280029 871.354370,214.905319 875.087036,215.053574 
	C881.070984,215.291245 887.070984,215.110550 893.063965,215.142166 
	C900.932190,215.183655 906.747803,218.365021 908.667847,223.633438 
	C911.034973,230.128494 908.923340,236.051392 902.059204,241.565445 
	C911.486816,247.343613 906.751160,257.470245 910.025757,265.390106 
	C905.940979,266.937286 904.285400,265.689423 904.067017,261.907379 
	C903.885193,258.758606 903.521423,255.616501 903.135315,252.484146 
	C902.408875,246.590378 899.520142,243.937851 893.623657,243.832367 
	C888.963928,243.749008 884.295227,243.967667 879.642273,243.772491 
	C876.513855,243.641266 875.582397,244.915878 875.684570,247.875610 
	C875.850830,252.697144 875.903076,257.541412 875.585327,262.348419 
	C875.499084,263.653046 873.911682,264.858459 873.013245,266.109375 
	C872.104431,264.869049 870.898987,263.740234 870.378052,262.354126 
	C869.940308,261.189331 870.299744,259.724854 870.310608,257.908600 
M879.654541,219.816635 
	C878.371643,220.503174 876.019470,221.129166 875.976624,221.885941 
	C875.660767,227.463058 875.805847,233.066299 875.805847,239.054031 
	C882.795593,239.054031 889.267700,239.310257 895.708862,238.973923 
	C900.974548,238.698959 904.368347,234.095596 904.096924,228.507172 
	C903.848999,223.402145 900.444397,220.037354 895.090820,219.881531 
	C890.271606,219.741272 885.445740,219.830368 879.654541,219.816635 
M871.988586,244.499237 
	C871.988586,250.451096 871.988586,256.402954 871.988586,262.354828 
	C872.659119,262.338104 873.329712,262.321381 874.000244,262.304657 
	C874.000244,247.296829 874.000244,232.289017 874.000244,217.281204 
	C873.342957,217.238312 872.685669,217.195404 872.028381,217.152512 
	C871.934570,225.929260 872.029663,234.719040 871.988586,244.499237 
z"/>
<path fill="#64ffda" opacity="1.000000" stroke="none"
	d="
M453.953003,266.136230 
	C447.471954,266.131104 441.477142,266.257812 435.498230,266.006744 
	C434.335968,265.957886 432.261505,264.449829 432.250946,263.594574 
	C432.054291,247.671555 432.106598,231.745468 432.106598,215.155701 
	C443.360199,215.155701 454.117676,215.103394 464.871674,215.271805 
	C465.599030,215.283188 466.300293,216.957230 467.013702,217.858002 
	C466.077393,218.516418 465.154388,219.722809 464.202637,219.745941 
	C457.052643,219.919510 449.897003,219.860443 442.743134,219.872803 
	C441.102722,219.875641 439.462311,219.873230 437.063873,219.873230 
	C437.063873,225.306747 436.866302,230.409180 437.247833,235.467926 
	C437.315704,236.367920 439.764099,237.726700 441.155243,237.780075 
	C447.800446,238.035004 454.463074,237.812805 461.112061,238.010239 
	C462.431519,238.049408 463.718475,239.183990 465.020416,239.813446 
	C463.661316,240.544083 462.317871,241.870529 460.940521,241.906738 
	C453.171906,242.111023 445.395142,242.005371 437.300873,242.005371 
	C437.300873,248.760223 437.300873,254.989227 437.300873,261.924011 
	C445.342987,261.924011 453.268433,261.923309 461.193878,261.924713 
	C462.524750,261.924957 463.948517,261.643890 465.157471,262.030426 
	C466.147522,262.346954 466.881683,263.463837 467.729248,264.225952 
	C466.792358,264.916718 465.885590,266.146973 464.913208,266.201172 
	C461.435760,266.395020 457.936035,266.190155 453.953003,266.136230 
z"/>
<path fill="#64ffda" opacity="1.000000" stroke="none"
	d="
M748.249329,261.245972 
	C740.267944,267.849121 729.507263,269.049896 721.470093,264.465515 
	C712.586304,259.398163 707.598816,248.349350 709.266968,237.432297 
	C711.397583,223.489594 717.604858,216.485077 729.680664,214.396912 
	C738.737427,212.830780 747.771179,216.799484 751.746094,224.559570 
	C752.597412,226.221741 751.932617,228.660538 751.966187,230.741562 
	C750.434143,229.599014 748.303467,228.785019 747.466919,227.260757 
	C741.912537,217.140488 727.760071,215.506592 720.060303,224.275925 
	C712.856384,232.480453 711.989014,247.244949 718.593079,255.861847 
	C722.834351,261.395752 728.837219,264.019470 735.775085,262.799347 
	C742.615967,261.596283 746.632568,256.892761 748.886047,250.421738 
	C749.475098,248.730240 751.014099,247.369522 752.923218,246.342285 
	C754.111206,252.285126 752.424683,257.009003 748.249329,261.245972 
z"/>
<path fill="#64ffda" opacity="1.000000" stroke="none"
	d="
M789.628967,262.716309 
	C795.592834,247.658966 801.340088,232.945312 807.317444,218.325745 
	C807.864807,216.987137 809.793152,215.650833 811.249756,215.429459 
	C812.356567,215.261246 814.424255,216.586700 814.884888,217.724915 
	C820.998352,232.831009 826.909363,248.019135 832.836243,263.200317 
	C833.064392,263.784698 832.943298,264.505432 833.103943,267.038818 
	C830.625000,265.471344 829.068787,264.515961 827.553955,263.498993 
	C827.324463,263.344910 827.296875,262.899994 827.159790,262.596924 
	C825.401306,258.709106 824.317200,252.107864 821.746765,251.466553 
	C815.157166,249.822433 807.904602,250.732239 800.923462,250.895660 
	C800.077637,250.915466 798.982117,252.492050 798.500000,253.569733 
	C796.939514,257.058105 795.785217,260.737152 794.083984,264.147980 
	C793.591003,265.136261 791.786133,265.470184 790.582642,266.104126 
	C790.213440,265.097961 789.844177,264.091797 789.628967,262.716309 
M812.101746,222.890701 
	C811.457275,222.802673 810.299194,222.511246 810.241943,222.655792 
	C807.254456,230.199326 804.360168,237.779816 801.292236,245.783936 
	C807.957458,245.783936 814.021851,245.783936 820.629456,245.783936 
	C817.778870,238.130615 815.062805,230.838516 812.101746,222.890701 
z"/>
<path fill="#64ffda" opacity="1.000000" stroke="none"
	d="
M976.987427,265.975494 
	C968.204163,265.975494 959.420837,265.975494 949.906738,265.975494 
	C949.906738,259.788086 949.900696,253.686951 949.908081,247.585831 
	C949.919312,238.258408 950.085449,228.927811 949.882080,219.605179 
	C949.804810,216.063843 950.981628,214.986038 954.449402,215.063904 
	C963.106140,215.258270 971.773010,215.008698 980.429138,215.214951 
	C981.986633,215.252075 983.512512,216.615097 985.052979,217.365936 
	C983.427246,218.191788 981.821655,219.681137 980.172363,219.731277 
	C972.047607,219.978256 963.911255,219.843567 955.383301,219.843567 
	C955.383301,225.871887 955.383301,231.452087 955.383301,237.933258 
	C962.345825,237.933258 969.427551,237.794571 976.497925,238.016174 
	C978.673096,238.084351 982.727966,239.380737 982.686951,239.702179 
	C982.139404,243.995956 978.605835,241.783264 976.422058,241.882980 
	C969.490051,242.199539 962.534546,242.000076 955.285522,242.000076 
	C955.285522,248.831848 955.285522,255.086899 955.285522,261.536835 
	C956.643738,261.764801 957.925659,261.979919 959.629028,262.844971 
	C961.648804,263.997559 963.216431,264.757446 964.851440,264.951996 
	C968.880371,265.431427 972.940063,265.651276 976.987427,265.975494 
z"/>
<path fill="#64ffda" opacity="1.000000" stroke="none"
	d="
M605.838135,234.006500 
	C605.837219,243.650436 605.955200,252.799133 605.718689,261.938660 
	C605.679260,263.459717 604.293701,266.032318 603.187988,266.232910 
	C600.043701,266.803314 600.148193,264.078674 600.147888,261.874786 
	C600.146057,250.234924 600.164856,238.595032 600.149231,226.955185 
	C600.139709,219.874054 600.117554,219.875900 593.280151,219.887405 
	C590.952148,219.891327 588.577454,220.157349 586.315002,219.771088 
	C585.098755,219.563446 584.075195,218.227234 582.964661,217.400238 
	C584.004761,216.627853 585.035339,215.199356 586.086548,215.183960 
	C597.391296,215.018433 608.700073,215.018906 620.005371,215.158920 
	C621.151489,215.173126 622.282654,216.395645 623.420715,217.057434 
	C622.167236,217.998779 620.971008,219.644287 619.649658,219.751816 
	C615.379028,220.099335 611.062500,219.881454 605.838379,219.881454 
	C605.838379,224.687210 605.838379,229.097702 605.838135,234.006500 
z"/>
<path fill="#64ffda" opacity="1.000000" stroke="none"
	d="
M195.484436,264.145691 
	C189.778091,262.293030 187.775909,257.567749 187.132263,252.354904 
	C186.547531,247.619095 186.814453,242.773331 186.780258,237.975510 
	C186.735352,231.673920 186.618637,225.365829 186.877518,219.074722 
	C186.931610,217.760529 188.487823,216.508148 189.351807,215.227280 
	C190.191238,216.675385 191.723373,218.107071 191.758148,219.574234 
	C191.990662,229.383514 191.869827,239.200592 191.934662,249.014664 
	C191.969589,254.298325 193.515030,258.843201 198.738770,262.088928 
	C197.737396,263.206818 196.610916,263.676239 195.484436,264.145691 
z"/>
<path fill="#64ffda" opacity="1.000000" stroke="none"
	d="
M218.462128,258.737793 
	C219.340012,254.403625 220.778687,250.095047 220.977783,245.729919 
	C221.378479,236.944275 220.995255,228.125046 221.219772,219.326935 
	C221.255280,217.935516 222.776382,216.582016 223.610611,215.210983 
	C224.444046,216.489349 225.976349,217.754776 226.000320,219.048141 
	C226.191132,229.343079 226.401901,239.657639 225.921432,249.934143 
	C225.754135,253.512314 223.661560,257.000458 221.890015,260.518829 
	C220.375214,259.917877 219.418671,259.327820 218.462128,258.737793 
z"/>
<path fill="#64ffda" opacity="1.000000" stroke="none"
	d="
M286.270081,175.343719 
	C287.180267,175.929108 288.339691,176.757553 288.755890,177.865219 
	C290.839081,183.409790 293.985413,185.900726 299.719452,185.987701 
	C305.047760,186.068527 310.389557,185.791626 315.704163,186.073593 
	C320.002777,186.301666 321.070129,184.468201 321.055573,180.471024 
	C320.942108,149.327087 320.993347,118.182495 321.021820,87.038139 
	C321.023499,85.227478 321.269775,83.417053 321.699097,81.316429 
	C322.027557,107.602867 322.061737,134.179382 322.089417,160.755905 
	C322.098572,169.551285 322.090881,178.346695 322.090881,187.334625 
	C312.929626,187.334625 304.026459,187.855438 295.219666,187.158356 
	C288.961395,186.662994 287.122650,181.192215 286.270081,175.343719 
z"/>
<path fill="#64ffda" opacity="1.000000" stroke="none"
	d="
M587.971558,140.403564 
	C588.720459,142.136887 589.835022,144.254135 589.898315,146.402344 
	C590.121826,153.990585 589.943237,161.589752 589.999207,169.184174 
	C590.040771,174.832321 589.006348,180.691086 592.867432,186.089966 
	C588.828918,184.372345 587.707092,180.711929 587.713379,176.538132 
	C587.731445,164.625946 587.803955,152.713852 587.971558,140.403564 
z"/>
<path fill="#64ffda" opacity="1.000000" stroke="none"
	d="
M603.520874,96.112198 
	C601.046326,96.481552 598.105225,97.041878 595.191040,96.925972 
	C591.323059,96.772118 589.842773,98.148987 589.919128,102.114250 
	C590.115540,112.315811 590.033569,122.524170 589.933472,132.728546 
	C589.916870,134.422638 589.248779,136.110336 588.496155,137.904953 
	C588.110535,124.212601 588.110535,110.416290 588.110535,96.002151 
	C593.233093,96.002151 598.149719,96.002151 603.520874,96.112198 
z"/>
<path fill="#64ffda" opacity="1.000000" stroke="none"
	d="
M718.715820,60.957912 
	C713.267273,69.050873 716.276123,77.760803 717.533997,86.127487 
	C717.771729,87.708794 721.752869,89.713707 724.084534,89.820137 
	C733.348694,90.242989 742.643738,89.991043 752.385742,89.986176 
	C752.380859,90.315926 751.918823,90.937012 751.454102,90.939087 
	C739.498840,90.992439 727.543274,90.981224 714.931152,90.981224 
	C714.931152,81.320259 714.871399,71.909714 715.076782,62.504955 
	C715.089417,61.928909 717.199585,61.398678 718.715820,60.957912 
z"/>
<path fill="#64ffda" opacity="1.000000" stroke="none"
	d="
M625.841187,172.522552 
	C625.499451,167.083633 625.174561,161.189728 625.160645,155.295105 
	C625.158875,154.543564 626.780457,153.139648 627.649658,153.139862 
	C633.305237,153.141312 638.960876,153.447342 644.860474,153.996338 
	C638.922546,154.338974 632.740662,154.338974 625.953857,154.338974 
	C625.953857,160.623199 625.953857,166.345276 625.841187,172.522552 
z"/>
<path fill="#64ffda" opacity="1.000000" stroke="none"
	d="
M753.020752,62.567795 
	C744.549500,63.005642 736.150146,63.076706 727.754211,62.939301 
	C725.682739,62.905403 723.622498,62.193386 721.195679,61.502979 
	C731.158630,61.120049 741.482910,61.012867 751.807434,60.985237 
	C752.235291,60.984089 752.665039,61.727547 753.020752,62.567795 
z"/>
<path fill="#64ffda" opacity="1.000000" stroke="none"
	d="
M371.974762,240.244659 
	C371.270691,240.254547 370.566589,240.264435 369.514984,240.327118 
	C369.621887,239.301956 370.061218,237.295670 370.533081,237.287979 
	C375.936554,237.199997 381.346375,237.384048 386.749237,237.617462 
	C387.142975,237.634476 387.495880,238.597137 387.912170,239.504227 
	C387.956543,239.888336 388.065552,240.020981 387.785400,240.049393 
	C387.320038,240.113724 387.134796,240.149643 386.949554,240.185562 
	C385.903625,240.175705 384.857727,240.165863 382.966553,240.094940 
	C378.739136,240.104156 375.356964,240.174408 371.974762,240.244659 
z"/>
<path fill="#64ffda" opacity="1.000000" stroke="none"
	d="
M977.403198,266.035889 
	C972.940063,265.651276 968.880371,265.431427 964.851440,264.951996 
	C963.216431,264.757446 961.648804,263.997559 959.941162,263.059204 
	C959.831909,262.623535 960.186768,262.566193 960.840027,262.731812 
	C967.060364,262.932953 972.627686,263.008545 978.194519,262.983826 
	C980.346680,262.974274 982.244019,263.062103 982.006958,265.984344 
	C980.610962,266.021667 979.215027,266.058990 977.403198,266.035889 
z"/>
<path fill="#64ffda" opacity="1.000000" stroke="none"
	d="
M204.040268,266.880005 
	C203.263260,266.867645 202.486237,266.855286 201.312561,266.416931 
	C201.296249,264.981720 201.676575,263.972504 202.056915,262.963287 
	C205.433472,262.703827 208.810043,262.444366 212.589478,262.500397 
	C212.663254,264.036438 212.334167,265.256958 212.005066,266.477478 
	C211.249893,266.644806 210.494720,266.812134 209.114914,266.689514 
	C207.006927,266.559723 205.523605,266.719879 204.040268,266.880005 
z"/>
<path fill="#64ffda" opacity="1.000000" stroke="none"
	d="
M595.039307,187.986938 
	C596.061218,187.501495 597.369324,187.056091 598.680542,187.046707 
	C605.402100,186.998474 612.125061,187.030777 618.845886,187.136536 
	C619.515320,187.147079 620.174011,187.843933 620.918091,188.590179 
	C612.441345,188.714767 603.884155,188.471436 595.039307,187.986938 
z"/>
<path fill="#64ffda" opacity="1.000000" stroke="none"
	d="
M982.381897,266.046844 
	C982.244019,263.062103 980.346680,262.974274 978.194519,262.983826 
	C972.627686,263.008545 967.060364,262.932953 960.986084,262.836487 
	C968.206238,262.520386 975.932861,262.219666 983.662354,262.099304 
	C984.260376,262.089996 984.878113,263.347870 985.486694,264.016754 
	C984.576721,264.714294 983.666809,265.411835 982.381897,266.046844 
z"/>
<path fill="#64ffda" opacity="1.000000" stroke="none"
	d="
M400.500549,109.046158 
	C396.928375,109.421593 392.897888,109.719666 388.866394,110.002907 
	C384.466797,110.312004 380.069000,110.713898 375.664001,110.826996 
	C374.675415,110.852371 373.660339,109.846649 372.930359,109.105362 
	C382.149445,108.917503 391.095612,108.939888 400.500549,109.046158 
z"/>
<path fill="#64ffda" opacity="1.000000" stroke="none"
	d="
M626.025879,124.495056 
	C625.625610,121.081879 625.156006,117.216309 625.036926,113.339973 
	C624.879639,108.220802 624.997009,103.093201 625.221924,97.493958 
	C625.447571,97.018692 625.890137,97.009377 625.890137,97.009377 
	C625.964233,106.018875 626.038391,115.028381 626.025879,124.495056 
z"/>
<path fill="#64ffda" opacity="1.000000" stroke="none"
	d="
M218.218414,258.821777 
	C219.418671,259.327820 220.375214,259.917877 221.602020,260.716736 
	C220.532211,262.040375 219.192108,263.155182 217.389648,264.020996 
	C216.943680,262.533325 216.960098,261.294586 216.976517,260.055878 
	C217.309235,259.672516 217.641953,259.289154 218.218414,258.821777 
z"/>
<path fill="#64ffda" opacity="1.000000" stroke="none"
	d="
M216.662552,260.126343 
	C216.960098,261.294586 216.943680,262.533325 217.054718,264.097839 
	C215.664337,265.163361 214.146500,265.903076 212.316879,266.560120 
	C212.334167,265.256958 212.663254,264.036438 212.995544,262.489807 
	C214.115356,261.508087 215.231979,260.852478 216.662552,260.126343 
z"/>
<path fill="#64ffda" opacity="1.000000" stroke="none"
	d="
M286.873474,128.451782 
	C287.160187,133.473938 287.339874,138.953690 287.195587,144.697815 
	C286.836578,139.611237 286.801514,134.260315 286.873474,128.451782 
z"/>
<path fill="#64ffda" opacity="1.000000" stroke="none"
	d="
M201.792267,262.768311 
	C201.676575,263.972504 201.296249,264.981720 200.958954,266.251282 
	C199.329742,265.897461 197.657501,265.283295 195.734833,264.407410 
	C196.610916,263.676239 197.737396,263.206818 198.939362,262.360168 
	C199.852448,262.179749 200.690033,262.376526 201.792267,262.768311 
z"/>
<path fill="#64ffda" opacity="1.000000" stroke="none"
	d="
M622.525146,96.155930 
	C619.209473,96.413338 615.443420,96.576637 611.358032,96.497269 
	C614.717346,96.190346 618.396057,96.126083 622.525146,96.155930 
z"/>
<path fill="#64ffda" opacity="1.000000" stroke="none"
	d="
M390.927551,258.514160 
	C390.676117,255.525940 390.497986,252.088379 390.573853,248.347961 
	C390.885529,251.385025 390.943176,254.724945 390.927551,258.514160 
z"/>
<path fill="#64ffda" opacity="1.000000" stroke="none"
	d="
M204.445496,266.955994 
	C205.523605,266.719879 207.006927,266.559723 208.725555,266.646240 
	C207.590805,266.939240 206.220764,266.985596 204.445496,266.955994 
z"/>
<path fill="#64ffda" opacity="1.000000" stroke="none"
	d="
M752.938354,85.570297 
	C752.688354,84.491402 752.527527,83.007416 752.604614,81.281433 
	C752.904236,82.414688 752.965881,83.789940 752.938354,85.570297 
z"/>
<path fill="#64ffda" opacity="1.000000" stroke="none"
	d="
M624.348755,189.054535 
	C624.375061,188.354721 624.750671,187.718765 625.418457,187.020599 
	C625.373108,187.678391 625.035645,188.398376 624.348755,189.054535 
z"/>
<path fill="#64ffda" opacity="1.000000" stroke="none"
	d="
M390.873718,243.624023 
	C390.534760,243.164673 390.274445,242.369141 390.029449,241.240448 
	C390.347290,241.700790 390.649780,242.494324 390.873718,243.624023 
z"/>
<path fill="#64ffda" opacity="1.000000" stroke="none"
	d="
M752.940430,65.739159 
	C752.710266,65.812134 752.544800,65.660576 752.427307,65.478134 
	C752.398804,65.433830 752.528442,65.287720 752.737061,65.105141 
	C752.888733,65.021881 753.022766,65.503273 752.940430,65.739159 
z"/>
<path fill="#64ffda" opacity="1.000000" stroke="none"
	d="
M719.497620,61.594017 
	C719.793213,61.751949 720.055969,61.916279 720.318665,62.080601 
	C720.187561,62.027874 720.056396,61.975151 719.667664,61.780846 
	C719.410034,61.639259 719.464722,61.600414 719.497620,61.594017 
z"/>
<path fill="#64ffda" opacity="1.000000" stroke="none"
	d="
M369.135376,243.225281 
	C369.427429,243.129242 369.646759,243.362717 369.837860,243.905731 
	C369.633911,243.926239 369.384949,243.706085 369.135376,243.225281 
z"/>
<path fill="#64ffda" opacity="1.000000" stroke="none"
	d="
M625.905701,96.740143 
	C625.890137,97.009377 625.447571,97.018692 625.226501,97.027611 
	C625.005432,97.036530 624.976807,96.659927 624.973511,96.471230 
	C625.287170,96.345322 625.604248,96.408112 625.905701,96.740143 
z"/>
<path fill="#64ffda" opacity="1.000000" stroke="none"
	d="
M646.079956,154.449615 
	C646.199524,154.370010 646.336914,154.271774 646.304688,154.316376 
	C646.135071,154.459244 646.097839,154.430954 646.079956,154.449615 
z"/>
<path fill="#64ffda" opacity="1.000000" stroke="none"
	d="
M646.632202,154.842896 
	C646.782227,154.801437 646.953186,154.822083 646.942078,154.911652 
	C646.760071,154.980591 646.653015,154.904999 646.632202,154.842896 
z"/>
<path fill="#64ffda" opacity="1.000000" stroke="none"
	d="
M950.972168,186.999390 
	C961.531372,186.447861 971.595459,185.896362 981.659546,185.344849 
	C981.815369,185.908096 981.971252,186.471329 982.127136,187.034576 
	C980.530396,187.685669 978.935974,188.897598 977.336609,188.904068 
	C951.552246,189.008530 925.767212,188.962097 899.982361,188.924759 
	C899.549500,188.924133 899.117004,188.612106 898.684326,188.445404 
	C898.685974,187.963394 898.687561,187.481400 898.689209,186.999390 
	C915.951782,186.999390 933.214417,186.999390 950.972168,186.999390 
z"/>
<path fill="none" opacity="1.000000" stroke="none"
	d="
M272.920807,227.062897 
	C272.921204,224.601425 272.921204,222.626572 272.921204,220.326263 
	C280.753601,220.326263 288.196442,219.839325 295.533844,220.508575 
	C299.948639,220.911224 301.822144,225.484024 301.202026,231.248627 
	C300.782257,235.150558 297.094788,238.834747 292.726868,239.008408 
	C286.423401,239.259033 280.102539,239.072495 272.920410,239.072495 
	C272.920410,235.048126 272.920410,231.298828 272.920807,227.062897 
z"/>
<path fill="#64ffda" opacity="1.000000" stroke="none"
	d="
M372.301666,240.470490 
	C375.356964,240.174408 378.739136,240.104156 382.574951,240.121399 
	C379.561890,240.371368 376.095245,240.533844 372.301666,240.470490 
z"/>
<path fill="#64ffda" opacity="1.000000" stroke="none"
	d="
M387.060913,240.324677 
	C387.134796,240.149643 387.320038,240.113724 387.782623,240.135208 
	C387.764069,240.283005 387.468170,240.373398 387.060913,240.324677 
z"/>
<path fill="none" opacity="1.000000" stroke="none"
	d="
M880.138672,219.817474 
	C885.445740,219.830368 890.271606,219.741272 895.090820,219.881531 
	C900.444397,220.037354 903.848999,223.402145 904.096924,228.507172 
	C904.368347,234.095596 900.974548,238.698959 895.708862,238.973923 
	C889.267700,239.310257 882.795593,239.054031 875.805847,239.054031 
	C875.805847,233.066299 875.660767,227.463058 875.976624,221.885941 
	C876.019470,221.129166 878.371643,220.503174 880.138672,219.817474 
z"/>
<path fill="#64ffda" opacity="1.000000" stroke="none"
	d="
M871.988586,243.999329 
	C872.029663,234.719040 871.934570,225.929260 872.028381,217.152512 
	C872.685669,217.195404 873.342957,217.238312 874.000244,217.281204 
	C874.000244,232.289017 874.000244,247.296829 874.000244,262.304657 
	C873.329712,262.321381 872.659119,262.338104 871.988586,262.354828 
	C871.988586,256.402954 871.988586,250.451096 871.988586,243.999329 
z"/>
<path fill="none" opacity="1.000000" stroke="none"
	d="
M812.224243,223.218567 
	C815.062805,230.838516 817.778870,238.130615 820.629456,245.783936 
	C814.021851,245.783936 807.957458,245.783936 801.292236,245.783936 
	C804.360168,237.779816 807.254456,230.199326 810.241943,222.655792 
	C810.299194,222.511246 811.457275,222.802673 812.224243,223.218567 
z"/>
</svg>