<svg version="1.1" id="Layer_1" xmlns="http://www.w3.org/2000/svg" xmlns:xlink="http://www.w3.org/1999/xlink" x="0px" y="0px"
	 width="100%" viewBox="0 0 724 490" enable-background="new 0 0 724 490" xml:space="preserve">
<path fill="none" opacity="1.000000" stroke="none"
	d="
M435.000000,491.000000 
	C290.000000,491.000000 145.500000,491.000000 1.000000,491.000000 
	C1.000000,327.666656 1.000000,164.333328 1.000000,1.000000 
	C242.333328,1.000000 483.666656,1.000000 725.000000,1.000000 
	C725.000000,164.333328 725.000000,327.666656 725.000000,491.000000 
	C628.500000,491.000000 532.000000,491.000000 435.000000,491.000000 
M599.789246,435.753937 
	C601.286682,435.015900 603.645996,434.628296 604.115967,433.472473 
	C605.394653,430.327637 607.505798,430.071198 610.383301,429.997864 
	C613.565979,429.916718 614.248291,431.874207 614.947815,434.171082 
	C615.125732,434.755188 615.462097,435.291046 615.806213,436.019714 
	C617.336731,435.809479 618.684021,435.624451 620.391357,435.389923 
	C617.060547,428.644958 613.988281,422.423431 610.209534,414.771332 
	C607.142273,420.999268 604.939575,425.736359 602.466919,430.328064 
	C601.744263,431.670105 600.253113,432.598328 599.107300,432.873108 
	C598.319885,427.567627 597.532471,422.262146 596.745056,416.956665 
	C596.194214,416.760773 595.643433,416.564880 595.092590,416.368988 
	C592.339355,420.822052 589.586121,425.275116 586.610291,430.088318 
	C584.307800,426.013977 582.293640,422.256256 580.053772,418.638245 
	C579.565247,417.849243 578.308594,417.354065 577.322083,417.168976 
	C577.036621,417.115417 576.198547,418.568787 576.059814,419.405304 
	C575.175598,424.737549 574.416077,430.090454 573.576660,435.696411 
	C574.680969,435.696411 576.133301,435.845612 576.172119,435.674438 
	C576.982422,432.099274 577.632690,428.487885 578.441528,424.212067 
	C580.990906,428.516357 583.244629,432.321381 585.885925,436.780792 
	C588.800354,432.056854 590.977173,428.528503 593.603027,424.272278 
	C594.298035,428.825958 594.817810,432.231201 595.364868,435.815491 
	C596.721008,435.733856 597.850708,435.665863 599.789246,435.753937 
M452.778595,435.835754 
	C453.924988,435.279907 455.071381,434.724060 456.217804,434.168213 
	C456.057434,433.739349 455.897064,433.310455 455.736694,432.881592 
	C454.492371,432.978516 453.248016,433.075439 451.119659,433.066803 
	C450.398010,431.939819 449.126953,430.847137 449.053986,429.679626 
	C448.798035,425.584869 448.954712,421.464294 448.954712,417.226196 
	C447.383026,417.226196 446.146698,417.226196 444.331909,417.226196 
	C444.331909,423.292206 444.331909,429.102875 444.331909,434.913544 
	C444.011566,434.969208 443.691193,435.024902 443.370850,435.080566 
	C440.252075,428.807556 437.133301,422.534546 433.310333,414.845154 
	C429.462311,422.574890 426.306671,428.913818 423.151031,435.252747 
	C423.594604,435.621307 424.038177,435.989899 424.481750,436.358459 
	C425.468964,435.363220 426.877380,434.536316 427.356445,433.337952 
	C428.379364,430.778961 429.957825,430.184082 432.636292,429.948761 
	C437.148987,429.552307 437.561035,432.798767 438.525238,435.659637 
	C443.169464,435.659637 447.586121,435.659637 452.778595,435.835754 
M499.775909,435.688812 
	C502.184357,436.217072 503.738525,435.842651 504.491180,432.946320 
	C504.804871,431.739227 506.882385,430.595123 508.372620,430.163025 
	C512.919312,428.844696 514.475830,431.926697 515.289185,435.920654 
	C516.995667,435.771515 518.469421,435.642761 520.251831,435.487000 
	C516.860901,428.657776 513.768799,422.430267 510.011108,414.862366 
	C506.992371,420.951416 504.774567,425.662262 502.315216,430.243469 
	C501.558777,431.652618 500.142151,432.707306 499.041321,433.068817 
	C497.990692,425.725281 496.940033,418.381744 495.710693,409.789307 
	C489.578918,415.765167 488.014282,423.326294 483.400391,429.227570 
	C480.502289,423.823364 477.839508,418.668152 474.959839,413.637085 
	C474.331116,412.538635 472.927765,411.883545 471.881165,411.024261 
	C471.313782,412.094696 470.406982,413.113312 470.234406,414.244019 
	C469.164642,421.252686 468.259827,428.286530 467.289429,435.391022 
	C470.066559,436.529602 471.003632,435.697662 471.124237,432.636200 
	C471.288574,428.464844 472.069824,424.317780 472.757568,418.784149 
	C476.440430,425.378510 479.371735,430.627167 482.856018,436.865967 
	C486.353302,430.576111 489.253387,425.360291 492.715912,419.132935 
	C493.600098,425.401093 494.307495,430.415955 495.067780,435.805786 
	C496.444061,435.699585 497.713348,435.601654 499.775909,435.688812 
M144.225006,56.970238 
	C138.854126,56.542011 133.151489,54.755306 128.181625,55.969082 
	C117.916359,58.476139 108.041603,62.582123 97.245132,66.036797 
	C95.380486,66.711426 93.521614,67.402519 91.650314,68.058144 
	C71.671661,75.057846 54.107197,69.921417 41.289577,53.029270 
	C39.079693,59.311714 39.493164,65.145195 42.020790,70.889046 
	C45.756924,79.379166 52.201534,85.539284 59.426292,91.046349 
	C66.264603,96.258858 68.202271,102.089111 64.619034,109.799706 
	C62.806183,113.700699 59.806065,117.403580 56.491924,120.180664 
	C49.290440,126.215126 41.542645,131.597626 34.018185,137.246643 
	C36.495594,137.409653 38.493458,136.711578 40.526066,136.136230 
	C42.752769,135.505905 44.998348,134.928589 47.258850,134.433914 
	C53.701992,133.023987 59.092625,135.525024 62.326820,141.361389 
	C68.420898,152.358658 67.329491,162.226074 58.847744,171.554489 
	C55.611458,175.113815 52.171623,178.488083 48.223206,182.215637 
	C14.797647,220.269760 -1.766015,263.479706 7.334638,314.536957 
	C10.036177,282.654114 16.731600,260.285858 36.752964,246.631226 
	C36.391399,249.035706 36.285046,251.512268 35.629448,253.833710 
	C27.667772,282.025116 25.516941,310.665436 31.442467,339.344940 
	C46.114639,410.358185 87.613724,458.442139 156.350830,482.360016 
	C164.682938,485.259277 173.535217,486.663635 182.146423,488.760773 
	C182.272293,488.279816 182.398163,487.798859 182.524033,487.317902 
	C181.019257,486.808685 179.531570,486.240387 178.007080,485.799408 
	C163.390167,481.571198 149.644577,475.366669 136.477982,467.776459 
	C133.316803,465.954193 132.306625,464.001434 133.953949,460.515472 
	C135.653336,456.919312 136.883286,453.098846 138.272797,449.359467 
	C139.363190,446.425079 140.383759,443.464722 141.435349,440.515900 
	C140.974411,440.276764 140.513489,440.037659 140.052551,439.798553 
	C134.357773,445.951935 128.662979,452.105316 123.035690,458.185760 
	C110.417587,450.571075 92.880280,432.302673 82.151756,415.755829 
	C78.513237,410.144012 78.627464,409.630798 83.454315,404.811371 
	C87.354721,400.916962 91.124779,396.891998 95.296585,393.255402 
	C95.482399,392.955048 95.668213,392.654724 95.854034,392.354370 
	C95.575623,392.577240 95.297218,392.800110 94.259010,392.910492 
	C87.363823,395.570740 80.468628,398.230957 73.394157,400.960358 
	C63.673344,382.369720 57.690224,363.154114 55.000938,342.872864 
	C54.513779,339.198975 56.070503,337.286835 59.513264,336.363342 
	C64.148300,335.119995 68.731621,333.683868 73.337143,332.330475 
	C68.072090,330.803864 63.116344,330.315765 58.148609,330.075195 
	C55.293949,329.936981 53.905350,328.849213 53.882126,325.859528 
	C53.730827,306.381470 57.006580,287.468903 63.111935,269.014099 
	C64.107384,266.005127 66.051743,265.032318 69.298653,265.652313 
	C73.163643,266.390350 77.141777,266.535889 80.924911,267.350922 
	C81.166039,267.383240 81.407158,267.415588 81.648277,267.447906 
	C81.424522,267.302368 81.200760,267.156830 80.763588,266.354858 
	C76.349457,263.822479 71.935326,261.290100 67.326897,258.646240 
	C75.016022,241.090134 84.990784,225.753128 97.829781,212.274887 
	C104.371208,205.407761 104.339600,205.383636 112.394051,210.683746 
	C112.798004,210.949585 113.305832,211.057571 114.082069,211.754517 
	C114.372604,211.746887 114.663139,211.739258 114.953674,211.731628 
	C114.862701,211.319366 114.771721,210.907089 114.365562,209.866806 
	C113.551682,208.609970 112.905716,207.193832 111.892616,206.125992 
	C108.783928,202.849411 109.551956,200.488464 113.135674,198.170853 
	C117.044121,195.643219 120.636467,192.629578 124.523132,190.064972 
	C137.202591,181.698471 150.679871,174.997925 165.416962,170.705139 
	C166.779984,172.589005 168.023712,174.308014 169.267456,176.027023 
	C168.285461,169.370392 172.250900,168.433121 176.972061,167.480713 
	C193.930771,164.059540 210.985413,162.995392 228.125137,165.325638 
	C230.673080,165.672043 232.903366,168.354828 235.238785,169.928543 
	C237.106110,166.611908 237.096710,166.656052 242.092148,167.719208 
	C264.208801,172.426102 284.280487,181.750366 301.633514,196.097382 
	C310.405426,203.349762 318.024902,212.101349 325.565887,220.700851 
	C330.763855,226.628510 334.933319,233.458008 339.686066,240.056046 
	C360.633942,226.338379 381.441528,213.164520 401.733948,199.239944 
	C412.423889,191.904587 415.530273,180.903442 412.417572,168.369354 
	C408.084442,150.920990 397.773773,136.954239 385.838043,123.224800 
	C383.306213,119.948158 380.000732,117.014542 378.370605,113.338104 
	C369.169189,92.586494 351.927338,84.571060 330.789062,83.194885 
	C321.593750,82.596237 312.372589,83.389992 306.827667,73.099503 
	C305.794525,80.042366 308.503601,84.735580 314.989990,88.081367 
	C318.518097,89.901215 322.242065,91.343376 325.757294,93.185600 
	C330.124390,95.474258 332.180756,99.205338 332.041931,104.185753 
	C331.770752,113.917290 323.667755,120.462555 312.494232,119.115074 
	C303.120758,117.037102 297.117584,111.428108 293.930847,102.319756 
	C286.163177,80.117943 275.271515,59.539284 260.931488,40.087418 
	C255.721741,34.074562 250.877518,27.689795 245.221695,22.130779 
	C235.233810,12.313842 223.250107,7.104503 208.869370,7.909878 
	C203.245697,8.224823 197.564072,7.504945 191.186981,7.224653 
	C192.615128,8.651375 193.704712,10.349474 195.257828,11.167529 
	C198.744308,13.003902 202.463409,14.397647 206.083313,15.981854 
	C210.855743,18.070448 212.025406,24.716412 207.944565,27.765553 
	C206.310089,28.986811 204.001785,29.306253 201.164749,29.893747 
	C190.780502,28.807772 180.388351,27.791378 170.014526,26.613695 
	C161.789948,25.680006 140.620529,27.919123 132.503937,30.926916 
	C156.125153,36.626808 179.793625,40.329185 201.507538,52.363827 
	C209.952469,57.471165 217.984741,63.007446 221.935913,72.629768 
	C224.820679,79.655067 223.746216,84.436600 216.985672,87.599030 
	C211.757950,90.044434 205.694458,90.703125 199.238464,91.964912 
	C190.589996,90.977882 184.556320,85.681000 178.826904,79.758400 
	C169.196472,69.803284 158.918304,60.764816 144.225006,56.970238 
M175.936371,344.586884 
	C182.084473,348.867889 186.658829,348.224823 191.550812,342.779541 
	C193.029572,341.133545 195.090897,339.916199 197.067230,338.834900 
	C199.779221,337.351105 202.886810,336.512756 205.420334,334.799591 
	C208.735672,332.557800 211.923843,331.487030 216.072952,331.901794 
	C225.880310,332.882263 233.221771,327.854462 235.319992,318.446075 
	C236.328476,313.924072 238.707153,311.194550 242.220520,308.698517 
	C266.900085,291.165009 291.518616,273.545563 316.148834,255.942596 
	C320.452728,252.866623 324.719513,249.738739 329.003479,246.634827 
	C326.783142,246.477478 325.049408,247.203857 323.401947,248.090485 
	C293.264008,264.309998 263.123077,280.524109 233.025818,296.818878 
	C229.782135,298.575012 226.847717,299.152191 223.117386,297.989532 
	C214.853989,295.414032 206.031677,298.959290 203.090958,306.598175 
	C200.903946,312.279114 197.569763,316.177399 192.417786,319.023529 
	C190.568680,320.045013 189.196991,321.895966 187.433319,323.116821 
	C185.745331,324.285217 183.934860,325.625244 181.998978,326.027740 
	C172.702484,327.960724 169.562698,336.321045 175.936371,344.586884 
M470.500000,398.998627 
	C552.603027,398.998627 634.705994,398.998627 716.809021,398.998627 
	C716.807678,398.499725 716.806335,398.000824 716.804993,397.501923 
	C556.268311,397.501923 395.731659,397.501923 235.195007,397.501923 
	C235.193573,398.000824 235.192139,398.499725 235.190720,398.998627 
	C313.293823,398.998627 391.396912,398.998627 470.500000,398.998627 
M384.392761,363.493958 
	C384.392761,353.909729 384.392761,344.325500 384.392761,334.839844 
	C380.859833,334.839844 378.076294,334.839844 375.049866,334.839844 
	C375.049866,339.910889 375.049866,344.713318 375.049866,349.603882 
	C365.275513,346.037598 357.911407,348.641815 355.920776,357.545319 
	C354.764343,362.717651 355.368225,368.814178 356.969147,373.935608 
	C358.888153,380.074768 365.685516,381.800873 371.512482,378.853699 
	C372.940186,378.131592 374.235474,377.147675 375.651489,376.246002 
	C377.023071,381.266357 380.776550,379.431152 384.392670,379.610779 
	C384.392670,374.426819 384.392670,369.458649 384.392761,363.493958 
M423.718353,338.950562 
	C423.718353,342.389252 423.718353,345.827942 423.718353,349.459106 
	C414.474548,346.586884 408.473663,348.060211 405.605072,354.707123 
	C403.908966,358.637207 403.035278,363.464020 403.518372,367.690216 
	C404.914856,379.906036 413.519897,383.451111 422.520386,377.331879 
	C426.306152,378.522980 429.259033,379.452057 432.774048,380.557983 
	C432.774048,364.584412 432.774048,349.822693 432.774048,334.565979 
	C430.761475,334.565979 428.782593,334.742004 426.847900,334.524719 
	C423.945068,334.198700 423.410553,335.687653 423.718353,338.950562 
M265.861816,388.047363 
	C265.861816,384.893524 265.861816,381.739655 265.861816,378.557007 
	C268.165741,379.104065 270.191284,379.882141 272.259460,380.019745 
	C278.183197,380.413910 282.761322,377.047699 285.060516,370.932220 
	C287.768951,363.728333 285.942780,353.932892 281.164307,350.032867 
	C277.034058,346.661896 272.294250,347.118500 266.978119,350.498932 
	C262.777405,349.396820 259.879639,348.636536 256.654297,347.790344 
	C256.654297,362.452576 256.654297,375.846069 256.654297,389.904938 
	C259.899292,389.546997 262.781342,389.229065 265.861816,388.047363 
M566.094604,346.521667 
	C566.094604,357.459930 566.094604,368.398163 566.094604,379.409882 
	C569.542969,379.409882 572.416565,379.409882 575.644653,379.409882 
	C575.644653,376.913116 575.644653,374.769989 575.644653,372.626862 
	C575.644653,370.497955 575.644653,368.369080 575.644653,366.125977 
	C580.921875,365.537323 580.901062,369.963318 582.328674,372.463989 
	C586.941040,380.543121 586.800293,380.623474 596.809875,379.227966 
	C593.350464,373.382080 590.002502,367.724548 586.677429,362.105743 
	C589.830811,357.758453 592.986023,353.408630 596.271301,348.879578 
	C589.201782,346.919434 584.522644,348.770355 581.491333,355.002350 
	C580.513184,357.013184 578.446167,358.494293 576.877319,360.217743 
	C576.433777,359.923584 575.990295,359.629425 575.546753,359.335236 
	C575.546753,351.234039 575.546753,343.132812 575.546753,334.821289 
	C572.221497,334.821289 569.313049,334.821289 566.094604,334.821289 
	C566.094604,338.583160 566.094604,342.058380 566.094604,346.521667 
M630.977539,368.474609 
	C630.977539,372.095703 630.977539,375.716797 630.977539,379.532776 
	C634.227600,379.532776 636.995178,379.532776 640.241516,379.532776 
	C640.241516,373.136719 640.140198,366.833649 640.317078,360.538391 
	C640.358276,359.074890 640.949402,356.961487 641.992920,356.348969 
	C643.521667,355.451599 645.940796,354.976562 647.498474,355.575348 
	C648.704712,356.039032 649.798523,358.399048 649.859741,359.958527 
	C650.117310,366.525177 649.968689,373.107727 649.968689,379.597351 
	C653.454163,379.597351 656.103577,379.597351 659.060364,379.597351 
	C659.060364,371.995483 659.468262,364.504272 658.943787,357.078888 
	C658.436218,349.893188 651.482971,346.094910 644.557129,348.662201 
	C642.880615,349.283661 641.335938,350.260620 639.730591,351.074127 
	C639.792603,350.587646 639.854614,350.101196 639.916626,349.614746 
	C637.071838,349.093079 634.226990,348.571381 630.977539,347.975494 
	C630.977539,355.178497 630.977539,361.331116 630.977539,368.474609 
M510.773499,372.766937 
	C503.726593,373.357147 501.967194,372.143372 501.153809,365.813721 
	C506.495789,365.813721 511.799286,365.723389 517.097595,365.849854 
	C519.971497,365.918457 520.868774,364.599243 520.875671,361.933594 
	C520.895325,354.330505 515.629395,348.487732 508.141937,347.975006 
	C500.357391,347.442017 493.996979,351.565674 491.974518,358.456970 
	C489.609253,366.516357 492.674713,374.797302 499.323914,378.310333 
	C506.165161,381.924896 515.291809,380.331482 520.130310,374.685852 
	C518.289246,369.892456 515.149475,370.132294 510.773499,372.766937 
M327.153625,376.412231 
	C335.484467,382.018921 344.927826,381.328857 350.895813,374.693787 
	C349.140259,370.537842 346.560913,370.241364 342.591583,372.117340 
	C336.740082,374.882965 332.302704,372.078827 332.117188,365.810608 
	C337.096161,365.810608 342.080811,365.604370 347.038940,365.878204 
	C350.766663,366.084076 351.620636,364.432587 351.402863,361.144135 
	C350.981110,354.774963 347.682678,350.236023 341.948914,348.518799 
	C335.467773,346.577728 328.332611,348.964996 324.712982,354.285492 
	C320.341797,360.710693 321.056610,368.840332 327.153625,376.412231 
M310.195618,372.180664 
	C303.110748,374.189850 300.156311,372.532379 299.327118,365.811676 
	C303.339569,365.811676 307.318726,365.811951 311.297852,365.811615 
	C319.368774,365.810974 321.040253,363.154968 317.670746,355.610565 
	C315.752441,351.315521 312.322754,348.901794 307.773682,348.123413 
	C299.935089,346.782135 292.519379,351.014252 290.227448,358.024658 
	C287.695679,365.768616 290.708984,374.496277 297.164795,378.117828 
	C304.078308,381.996155 313.660889,380.381866 318.353821,374.559814 
	C316.687378,371.356873 314.587219,369.390137 310.195618,372.180664 
M448.667816,362.019226 
	C446.777863,362.627563 444.836365,363.111633 443.008392,363.869476 
	C438.871124,365.584656 436.599854,368.641174 437.257019,373.240723 
	C437.877991,377.586823 441.232635,380.336670 446.295258,379.949524 
	C449.794525,379.681976 453.203094,378.228333 455.056366,377.732056 
	C458.777710,378.726990 461.396423,379.427155 464.573975,380.276733 
	C464.573975,372.374512 464.779358,365.729340 464.508850,359.103607 
	C464.293060,353.818207 461.623047,349.672180 456.338531,348.396942 
	C449.934540,346.851471 443.921600,348.119202 438.900360,352.710541 
	C441.575806,357.900055 441.883423,358.015564 446.969574,355.959595 
	C452.741150,353.626587 455.235077,355.227692 454.837524,361.263123 
	C453.097443,361.489777 451.302734,361.723541 448.667816,362.019226 
M626.231445,361.643036 
	C625.544006,354.248993 622.734253,350.132965 616.804749,348.556427 
	C610.554871,346.894653 604.848999,348.113403 600.455994,353.096680 
	C595.002686,359.282562 595.804626,370.812225 601.868347,376.267090 
	C608.257263,382.014496 619.432861,381.349945 625.768677,374.789368 
	C624.067871,370.871094 621.711304,370.084564 617.627930,372.044769 
	C611.759583,374.861786 607.600464,372.362305 606.727539,365.808868 
	C611.891907,365.808868 617.015686,365.737122 622.135986,365.839722 
	C624.626587,365.889587 626.495239,365.520691 626.231445,361.643036 
M701.850586,380.036011 
	C705.621155,379.229706 709.391724,378.423370 712.291748,377.803223 
	C715.389832,378.670349 718.038086,379.411591 721.151611,380.283051 
	C721.151611,372.145966 721.353821,365.182098 721.085449,358.236420 
	C720.883301,353.003815 717.743896,349.384308 712.768921,348.302765 
	C706.553467,346.951630 700.649292,348.152100 695.787109,352.652008 
	C698.225891,357.847015 698.625549,358.005188 703.687805,355.963135 
	C709.467346,353.631744 711.932617,355.161255 711.774414,360.906464 
	C707.935181,361.821381 704.042114,362.503143 700.316589,363.704254 
	C696.367004,364.977570 693.809631,367.700836 694.011108,372.186920 
	C694.211426,376.646332 696.774048,379.092438 701.850586,380.036011 
M671.644226,349.723694 
	C668.377319,349.064484 665.110413,348.405273 660.603455,347.495850 
	C663.686279,354.517334 665.737854,360.491974 668.814392,365.881531 
	C673.064148,373.326202 673.766724,380.277618 668.505066,387.391602 
	C668.166443,387.849274 668.167419,388.558105 668.001282,389.184662 
	C676.319946,390.279633 676.314087,390.277130 679.324219,383.212036 
	C681.725403,377.576202 684.162537,371.955688 686.548096,366.313324 
	C689.030151,360.442657 691.469238,354.553802 694.003113,348.491058 
	C684.746338,348.044342 684.766113,348.051208 681.945679,356.172211 
	C680.870911,359.266663 679.682007,362.321472 678.128662,366.519775 
	C675.743652,360.283325 673.860596,355.359436 671.644226,349.723694 
M537.358398,347.955688 
	C535.864990,348.038483 534.338135,347.950409 532.884216,348.235046 
	C527.857849,349.218994 524.485107,352.678833 524.202942,357.217438 
	C523.885376,362.324738 526.797119,365.203339 531.280945,366.827271 
	C532.840332,367.392059 534.583496,367.600006 535.978882,368.419952 
	C537.113892,369.086853 537.855042,370.424194 538.770813,371.464233 
	C537.444458,372.262878 536.200256,373.358459 534.763000,373.756561 
	C533.793640,374.025024 532.404785,373.556091 531.456787,372.991730 
	C527.047791,370.366730 524.787109,372.025879 523.607544,376.663971 
	C529.584412,380.518311 535.718079,381.364380 542.143555,378.447815 
	C546.072388,376.664490 547.644653,373.238861 547.545593,369.111572 
	C547.454773,365.331787 545.169250,363.061432 541.747437,361.799683 
	C539.571167,360.997192 537.328247,360.325378 535.261047,359.300720 
	C534.378662,358.863403 533.868164,357.675629 533.188721,356.828857 
	C534.164734,356.100372 535.053833,354.994568 536.140076,354.744141 
	C537.349243,354.465332 538.923828,354.613190 540.014954,355.189575 
	C543.882568,357.232697 545.857971,355.690674 547.313904,351.072662 
	C544.260071,350.035187 541.239502,349.009064 537.358398,347.955688 
M251.822495,369.579376 
	C250.986496,367.654663 250.664688,365.017822 249.201706,363.961395 
	C246.589539,362.075165 243.192093,361.317200 240.321350,359.728912 
	C239.109085,359.058258 238.399582,357.478851 237.461563,356.312469 
	C238.747986,355.732239 239.988312,354.942139 241.337112,354.645844 
	C242.228546,354.450012 243.395828,354.742279 244.232697,355.196899 
	C248.115784,357.306305 250.043152,355.619629 251.132309,351.977905 
	C246.043854,347.549072 238.710846,346.151825 233.683823,349.695312 
	C231.195801,351.449066 229.208710,354.968140 228.570145,358.018280 
	C227.809647,361.651001 230.236526,364.647095 233.881348,366.102997 
	C236.033249,366.962616 238.359833,367.464996 240.372726,368.560181 
	C241.448730,369.145630 242.025970,370.647766 242.828308,371.736206 
	C241.615463,372.443176 240.467636,373.520538 239.170654,373.748260 
	C237.979568,373.957306 236.447571,373.546844 235.378357,372.895874 
	C231.003052,370.232117 229.030365,372.352966 227.773895,376.322205 
	C237.594284,383.515747 249.053726,380.628693 251.822495,369.579376 
M481.404480,367.473724 
	C481.404480,363.397186 481.404480,359.320648 481.404480,355.100098 
	C484.221344,354.969330 486.489960,354.864044 488.866028,354.753754 
	C488.866028,352.589050 488.866028,350.693146 488.866028,348.625488 
	C486.367462,348.454285 484.105164,348.299286 481.596558,348.127380 
	C481.459991,345.114899 481.335083,342.359558 481.211395,339.631683 
	C476.984863,338.582947 474.368713,339.107635 473.568207,344.036743 
	C473.200745,346.299316 470.846558,348.239258 469.393311,350.325500 
	C468.970306,350.063721 468.547272,349.801941 468.124268,349.540161 
	C466.997467,353.011261 467.623840,355.395294 472.027802,355.174530 
	C472.027802,359.688385 472.069580,363.830902 472.016144,367.972168 
	C471.961761,372.189880 471.775543,376.612579 476.198334,378.876831 
	C480.848389,381.257416 485.438446,380.349915 491.825317,376.119019 
	C489.340088,374.600647 487.148865,372.160828 485.560822,372.504913 
	C481.349274,373.417419 481.496063,371.107086 481.404480,367.473724 
M671.385376,424.911469 
	C672.817566,426.303680 674.541626,427.511200 675.580261,429.152496 
	C676.282227,430.261780 676.018860,431.981934 676.187256,433.428833 
	C674.904541,433.077484 673.525024,432.906799 672.382080,432.294586 
	C671.852234,432.010773 671.782898,430.867249 671.210754,429.316406 
	C670.155945,431.954041 669.799683,432.844849 669.244995,434.231873 
	C667.372437,431.709473 665.898560,429.724091 664.424622,427.738739 
	C664.870239,427.708344 665.315796,427.677948 665.761353,427.647552 
	C665.932800,424.964813 667.164246,421.692047 666.064758,419.716766 
	C663.416199,414.958405 658.484192,417.435669 654.351013,416.950317 
	C654.351013,423.532440 654.351013,429.597900 654.351013,435.869385 
	C655.927246,435.779297 657.197266,435.706696 658.993530,435.604004 
	C658.993530,433.025452 658.993530,430.753052 658.993530,428.480652 
	C662.559631,435.240936 668.252075,436.799561 674.805481,435.960999 
	C676.827271,435.702301 679.441162,434.455505 680.348022,432.850006 
	C681.092102,431.532593 680.111755,428.784180 679.155334,427.087524 
	C678.130676,425.269745 676.122253,424.033112 674.791382,422.346985 
	C674.328186,421.760101 674.228699,420.258484 674.650574,419.776947 
	C675.074402,419.293121 676.430542,419.314606 677.237732,419.565704 
	C678.040161,419.815369 678.668030,420.626221 679.372375,421.190979 
	C679.705566,419.459869 679.218262,417.408112 678.582581,417.361084 
	C676.385559,417.198578 673.537842,417.018127 672.093079,418.226135 
	C670.888428,419.233368 671.305786,422.180542 671.385376,424.911469 
M554.272766,423.579193 
	C554.272766,427.527496 554.272766,431.475830 554.272766,435.797577 
	C555.832214,435.715210 557.192993,435.643341 558.797424,435.558563 
	C558.797424,432.608459 558.797424,430.062408 558.797424,427.516052 
	C561.574341,427.516052 563.951843,427.516052 566.637390,427.516052 
	C566.637390,430.473999 566.637390,433.040863 566.637390,435.569305 
	C568.199951,435.569305 569.444153,435.569305 570.718811,435.569305 
	C570.718811,429.211121 570.718811,423.148376 570.718811,416.903442 
	C569.160828,417.005524 567.893677,417.088562 566.464844,417.182159 
	C566.464844,419.725250 566.464844,421.984039 566.464844,424.553345 
	C563.814453,424.553345 561.413574,424.553345 558.657959,424.553345 
	C558.657959,421.978668 558.657959,419.595032 558.657959,416.886963 
	C556.906433,417.034088 555.534119,417.149384 554.264404,417.256073 
	C554.264404,419.321777 554.264404,420.967438 554.272766,423.579193 
M268.000916,424.483887 
	C268.000916,428.110077 268.000916,431.736298 268.000916,435.760925 
	C269.614807,435.684326 270.955353,435.620728 272.267365,435.558472 
	C272.267365,432.456635 272.267365,429.835236 272.267365,427.260590 
	C280.445526,425.350891 283.661011,422.159271 282.725311,417.027924 
	C281.720703,411.518890 277.171539,409.835632 267.998840,411.614471 
	C267.998840,413.572968 267.998566,415.544281 267.998901,417.515594 
	C267.999237,419.508423 268.000214,421.501221 268.000916,424.483887 
M402.308350,424.221710 
	C400.298767,418.433838 396.764374,416.098114 391.086639,416.805817 
	C386.485077,417.379395 383.146881,420.834595 382.812592,425.369873 
	C382.374115,431.318604 386.239777,435.740601 392.114471,436.010406 
	C398.603760,436.308380 402.354736,432.322968 402.308350,424.221710 
M621.794128,421.156555 
	C621.794128,425.914001 621.794128,430.671478 621.794128,435.818481 
	C623.229492,435.720306 624.576599,435.628174 626.183960,435.518250 
	C626.183960,432.813782 626.183960,430.590607 626.183960,428.248718 
	C630.894470,430.090729 632.139221,437.698242 640.735596,434.781586 
	C636.197266,431.144531 632.524658,428.201294 628.648987,425.095276 
	C632.407410,422.064148 635.214172,419.800507 638.496216,417.153595 
	C637.023804,417.066223 635.851868,416.620941 635.214539,417.023041 
	C632.250244,418.893524 629.434021,420.998535 626.117920,423.334381 
	C626.007446,420.908997 625.921997,419.033356 625.838745,417.204742 
	C623.048889,416.773834 620.591125,416.356018 621.794128,421.156555 
M317.643494,433.080231 
	C320.976196,429.368378 321.136292,425.162537 318.800537,421.090179 
	C316.430389,416.957916 312.315125,416.079224 307.909271,416.968048 
	C303.729675,417.811310 301.238708,420.573517 300.542053,424.764160 
	C299.883698,428.724518 301.175018,432.090820 304.571289,434.266754 
	C308.793823,436.972046 313.054504,436.709229 317.643494,433.080231 
M285.031860,424.530396 
	C285.031860,428.157959 285.031860,431.785492 285.031860,435.596680 
	C286.527740,435.596680 287.755798,435.596680 289.403778,435.596680 
	C289.403778,433.027039 289.403778,430.682404 289.403778,428.042816 
	C294.020782,429.642792 293.877441,437.950745 300.843475,435.309998 
	C298.752899,432.584137 296.860168,430.116180 294.967407,427.648224 
	C295.479919,427.615082 295.992432,427.581940 296.504944,427.548828 
	C296.659821,424.868195 297.901917,421.524750 296.752411,419.639343 
	C294.016632,415.152100 289.238525,417.118164 285.029877,417.294037 
	C285.029877,419.603638 285.029877,421.578796 285.031860,424.530396 
M405.138733,421.797485 
	C405.112518,425.613434 404.997559,429.432404 405.127625,433.243011 
	C405.157104,434.106873 406.037231,434.941681 406.525848,435.789825 
	C407.049072,434.970215 407.966736,434.176941 408.023468,433.326233 
	C408.213379,430.479492 408.095490,427.612183 408.095490,424.752777 
	C408.766663,424.316284 409.437866,423.879822 410.109039,423.443359 
	C413.679443,427.677124 417.249817,431.910889 420.820221,436.144684 
	C421.981354,430.325989 422.043121,424.941925 421.918488,419.562195 
	C421.898529,418.700684 421.044586,417.858521 420.576202,417.007416 
	C420.039398,417.948212 419.117615,418.858307 419.039612,419.835693 
	C418.825531,422.519226 418.965759,425.231049 418.965759,428.859833 
	C414.076538,424.233917 410.075836,420.448669 405.122681,415.762268 
	C405.122681,418.418030 405.122681,419.654053 405.138733,421.797485 
M644.480347,416.937073 
	C643.053040,417.029480 641.625793,417.121857 640.170898,417.216034 
	C640.170898,423.506927 640.170898,429.423737 640.170898,435.714783 
	C643.963684,435.355194 647.957336,437.271332 651.055481,434.718781 
	C650.959534,434.102661 650.863525,433.486511 650.767517,432.870361 
	C648.693970,432.870361 646.620422,432.870361 644.241699,432.870361 
	C644.352173,430.752991 644.441833,429.034180 644.505249,427.819244 
	C646.771545,427.075134 648.448059,426.524689 650.124573,425.974243 
	C649.951843,425.511169 649.779114,425.048096 649.606384,424.585052 
	C648.017273,424.498657 646.428223,424.412292 644.694214,424.318024 
	C644.694214,422.459137 644.694214,420.941193 644.694214,419.518097 
	C647.118103,419.188110 649.083008,418.920593 651.047913,418.653076 
	C650.951294,418.081207 650.854736,417.509338 650.758118,416.937469 
	C648.975708,416.937469 647.193359,416.937469 644.480347,416.937073 
M336.200073,425.514771 
	C336.200073,428.790985 336.200073,432.067200 336.200073,435.298859 
	C344.094727,436.616821 346.024750,436.225861 346.847595,432.850586 
	C344.693939,432.850586 342.629913,432.850586 340.452759,432.850586 
	C340.452759,430.832947 340.452759,429.206635 340.452759,427.719269 
	C342.498596,427.092010 344.339600,426.527557 346.180603,425.963104 
	C345.984894,425.509369 345.789154,425.055634 345.593445,424.601898 
	C344.010193,424.505737 342.426941,424.409607 340.721375,424.306030 
	C340.721375,422.450989 340.721375,420.928406 340.721375,419.507446 
	C343.074280,419.191589 345.009094,418.931854 346.943909,418.672119 
	C346.883179,418.093903 346.822479,417.515717 346.761749,416.937500 
	C344.981171,416.937500 343.200623,416.937500 341.420044,416.937500 
	C339.676697,416.937500 337.933319,416.937500 336.197968,416.937500 
	C336.197968,419.931122 336.197968,422.234375 336.200073,425.514771 
M542.624756,417.034912 
	C536.417542,420.016968 534.264343,424.097076 535.980957,429.624054 
	C537.381470,434.133148 542.277161,436.998291 547.589294,435.820404 
	C549.436401,435.410797 550.958374,433.534821 552.667236,432.300903 
	C548.575684,432.300903 544.006653,433.541168 542.708923,432.009583 
	C540.772217,429.723846 539.793884,424.998138 540.812195,422.179016 
	C542.864380,416.497620 547.673035,419.531860 551.674988,421.038971 
	C550.612488,415.292450 546.622253,416.945831 542.624756,417.034912 
M359.027100,418.489410 
	C356.256866,415.827728 353.179108,416.063568 350.736694,418.506653 
	C348.007568,421.236572 349.609589,423.999451 351.871399,426.329071 
	C352.796204,427.281616 354.182678,427.963776 354.710663,429.076660 
	C355.310272,430.340332 355.183838,431.948486 355.373047,433.406891 
	C354.094177,433.067383 352.704254,432.924774 351.588593,432.295776 
	C351.111908,432.027039 351.207092,430.744019 351.042419,429.921875 
	C350.275574,430.545654 349.508728,431.169403 348.741913,431.793182 
	C349.477539,433.060852 350.175629,435.376923 350.955719,435.404877 
	C353.578888,435.498810 356.522614,435.316986 358.737671,434.119568 
	C359.705048,433.596649 359.885132,430.069824 359.193970,428.422729 
	C358.352112,426.416473 356.073364,425.059174 354.701569,423.209442 
	C354.043335,422.321808 354.041565,420.947357 353.742493,419.793396 
	C354.864288,419.919556 355.991425,420.171814 357.105835,420.124481 
	C357.772247,420.096161 358.418671,419.598694 359.027100,418.489410 
M200.719421,466.154053 
	C198.222153,474.092590 195.724884,482.031128 193.255966,489.879486 
	C195.842316,489.772552 199.816940,491.575500 200.438690,486.299866 
	C201.403946,478.109619 202.292511,469.910339 203.213562,461.714874 
	C202.934601,461.636292 202.655624,461.557709 202.376663,461.479126 
	C201.890778,462.784637 201.404877,464.090149 200.719421,466.154053 
M518.123047,419.463867 
	C520.174622,419.463867 522.226135,419.463867 524.547729,419.463867 
	C524.547729,425.016968 524.547729,430.220551 524.547729,435.814667 
	C526.170410,435.706940 527.511963,435.617889 529.255371,435.502136 
	C529.255371,429.882599 529.255371,424.703735 529.255371,419.420563 
	C531.455505,419.561432 533.214111,419.674011 534.972656,419.786621 
	C535.128296,419.355530 535.283936,418.924469 535.439575,418.493408 
	C534.317261,417.974854 533.216675,417.074677 532.068481,417.009186 
	C528.601135,416.811432 525.106812,416.800446 521.641113,417.012238 
	C520.423828,417.086639 519.258850,418.017609 518.123047,419.463867 
M367.511322,423.771698 
	C367.175781,422.330414 366.840271,420.889130 366.504730,419.447845 
	C368.163330,419.840820 369.821960,420.233795 373.113617,421.013672 
	C371.311890,419.003143 370.422394,417.181976 369.531921,417.181519 
	C367.375916,417.180420 364.785553,417.484070 363.221680,418.731964 
	C362.242676,419.513123 362.100403,422.610046 362.841919,423.992401 
	C364.045868,426.236725 366.452515,427.803284 367.993225,429.917084 
	C368.544189,430.672913 368.055695,432.186401 368.041626,433.354095 
	C366.992310,433.315491 365.825439,433.549774 364.926270,433.162537 
	C364.003387,432.765106 363.342102,431.760193 362.566345,431.021149 
	C362.186981,431.280487 361.807648,431.539825 361.428284,431.799133 
	C362.196228,433.088623 362.891541,435.411438 363.745972,435.471527 
	C366.193756,435.643646 368.977844,435.410004 371.076904,434.295135 
	C372.107269,433.747833 372.620392,430.649658 372.095734,429.151367 
	C371.441315,427.282593 369.475372,425.873138 367.511322,423.771698 
M322.974731,419.655365 
	C322.973877,423.957092 323.159546,428.269409 322.915680,432.557312 
	C322.703949,436.280060 324.340820,436.296082 327.258423,435.199982 
	C327.258423,432.343689 327.258423,429.588318 327.258423,427.462494 
	C329.466797,426.736206 331.230499,426.156158 332.994202,425.576111 
	C332.856598,425.027771 332.718994,424.479431 332.581360,423.931091 
	C330.839935,423.931091 329.098480,423.931091 327.044464,423.931091 
	C327.142120,422.151337 327.217896,420.769928 327.288269,419.487244 
	C329.803406,419.127106 331.939178,418.821289 334.074951,418.515472 
	C333.950348,417.772278 333.825714,417.029053 333.701111,416.285858 
	C330.111877,417.086914 326.522614,417.887970 322.974731,419.655365 
M375.668427,421.684326 
	C375.668427,426.251251 375.668427,430.818176 375.668427,435.520355 
	C377.061005,435.520355 378.407715,435.520355 379.704956,435.520355 
	C379.704956,429.142456 379.704956,423.115356 379.704956,417.193451 
	C376.353943,416.419434 374.497742,417.022217 375.668427,421.684326 
z"/>
<path fill="#64ffda" opacity="1.000000" stroke="none"
	d="
M81.070885,266.938141 
	C77.141777,266.535889 73.163643,266.390350 69.298653,265.652313 
	C66.051743,265.032318 64.107384,266.005127 63.111935,269.014099 
	C57.006580,287.468903 53.730827,306.381470 53.882126,325.859528 
	C53.905350,328.849213 55.293949,329.936981 58.148609,330.075195 
	C63.116344,330.315765 68.072090,330.803864 73.337143,332.330475 
	C68.731621,333.683868 64.148300,335.119995 59.513264,336.363342 
	C56.070503,337.286835 54.513779,339.198975 55.000938,342.872864 
	C57.690224,363.154114 63.673344,382.369720 73.394157,400.960358 
	C80.468628,398.230957 87.363823,395.570740 94.620842,392.943268 
	C94.982674,392.976044 94.952667,392.924957 94.952667,392.924957 
	C91.124779,396.891998 87.354721,400.916962 83.454315,404.811371 
	C78.627464,409.630798 78.513237,410.144012 82.151756,415.755829 
	C92.880280,432.302673 110.417587,450.571075 123.035690,458.185760 
	C128.662979,452.105316 134.357773,445.951935 140.052551,439.798553 
	C140.513489,440.037659 140.974411,440.276764 141.435349,440.515900 
	C140.383759,443.464722 139.363190,446.425079 138.272797,449.359467 
	C136.883286,453.098846 135.653336,456.919312 133.953949,460.515472 
	C132.306625,464.001434 133.316803,465.954193 136.477982,467.776459 
	C149.644577,475.366669 163.390167,481.571198 178.007080,485.799408 
	C179.531570,486.240387 181.019257,486.808685 182.524033,487.317902 
	C182.398163,487.798859 182.272293,488.279816 182.146423,488.760773 
	C173.535217,486.663635 164.682938,485.259277 156.350830,482.360016 
	C87.613724,458.442139 46.114639,410.358185 31.442467,339.344940 
	C25.516941,310.665436 27.667772,282.025116 35.629448,253.833710 
	C36.285046,251.512268 36.391399,249.035706 36.421539,246.079849 
	C36.796284,243.520996 37.375126,241.457443 38.230457,239.515671 
	C42.127811,230.667938 46.102909,221.854446 50.348259,212.864594 
	C51.064976,212.191879 51.569847,211.732086 51.889492,211.167435 
	C64.026962,189.726883 79.991135,171.555984 99.298172,155.835968 
	C113.340698,144.176895 128.917053,135.670914 145.366776,127.958359 
	C155.925186,124.539169 166.016190,120.801147 176.340103,117.888878 
	C184.071243,115.708023 192.102417,114.590805 200.460617,113.001686 
	C206.708130,112.669327 212.508194,111.910309 218.279190,112.089142 
	C230.527252,112.468704 242.760147,113.336655 255.205414,114.266327 
	C256.275177,114.683067 257.138763,114.837837 258.335266,114.994019 
	C259.112152,114.996269 259.556061,114.997108 260.259399,115.281754 
	C263.875916,116.286911 267.325836,116.723312 270.573730,117.780365 
	C282.751556,121.743736 294.863403,125.909866 307.201233,130.276398 
	C336.834656,144.362122 361.056000,165.219711 383.869354,187.981735 
	C384.246216,187.792709 384.623108,187.603683 385.000000,187.414658 
	C385.000000,185.662659 385.000000,183.910675 385.000000,182.158691 
	C385.000000,165.505280 384.952148,148.851578 385.047028,132.198715 
	C385.062897,129.415283 385.698608,126.635406 386.047913,123.853889 
	C397.773773,136.954239 408.084442,150.920990 412.417572,168.369354 
	C415.530273,180.903442 412.423889,191.904587 401.733948,199.239944 
	C381.441528,213.164520 360.633942,226.338379 339.686066,240.056046 
	C334.933319,233.458008 330.763855,226.628510 325.565887,220.700851 
	C318.024902,212.101349 310.405426,203.349762 301.633514,196.097382 
	C284.280487,181.750366 264.208801,172.426102 242.092148,167.719208 
	C237.096710,166.656052 237.106110,166.611908 235.238785,169.928543 
	C232.903366,168.354828 230.673080,165.672043 228.125137,165.325638 
	C210.985413,162.995392 193.930771,164.059540 176.972061,167.480713 
	C172.250900,168.433121 168.285461,169.370392 169.267456,176.027023 
	C168.023712,174.308014 166.779984,172.589005 165.416962,170.705139 
	C150.679871,174.997925 137.202591,181.698471 124.523132,190.064972 
	C120.636467,192.629578 117.044121,195.643219 113.135674,198.170853 
	C109.551956,200.488464 108.783928,202.849411 111.892616,206.125992 
	C112.905716,207.193832 113.551682,208.609970 114.285950,210.356598 
	C114.059311,210.977295 113.912300,211.108185 113.765305,211.239044 
	C113.305832,211.057571 112.798004,210.949585 112.394051,210.683746 
	C104.339600,205.383636 104.371208,205.407761 97.829781,212.274887 
	C84.990784,225.753128 75.016022,241.090134 67.326897,258.646240 
	C71.935326,261.290100 76.349457,263.822479 80.894028,266.665131 
	C81.024475,266.975403 81.070885,266.938141 81.070885,266.938141 
z"/>
<path fill="#64ffda" opacity="1.000000" stroke="none"
	d="
M254.999268,114.004364 
	C242.760147,113.336655 230.527252,112.468704 218.279190,112.089142 
	C212.508194,111.910309 206.708130,112.669327 200.460617,112.533188 
	C200.000839,105.427368 200.001678,98.791756 200.002518,92.156143 
	C205.694458,90.703125 211.757950,90.044434 216.985672,87.599030 
	C223.746216,84.436600 224.820679,79.655067 221.935913,72.629768 
	C217.984741,63.007446 209.952469,57.471165 201.256012,51.710197 
	C201.336380,44.049774 201.668289,37.042976 202.000183,30.036182 
	C204.001785,29.306253 206.310089,28.986811 207.944565,27.765553 
	C212.025406,24.716412 210.855743,18.070448 206.083313,15.981854 
	C202.463409,14.397647 198.744308,13.003902 195.257828,11.167529 
	C193.704712,10.349474 192.615128,8.651375 191.186981,7.224653 
	C197.564072,7.504945 203.245697,8.224823 208.869370,7.909878 
	C223.250107,7.104503 235.233810,12.313842 245.221695,22.130779 
	C250.877518,27.689795 255.721741,34.074562 260.986145,40.895668 
	C261.027191,57.189350 261.125275,72.675995 260.957092,88.159744 
	C260.859955,97.108223 260.333313,106.052040 260.000000,114.997955 
	C259.556061,114.997108 259.112152,114.996269 258.289581,114.670227 
	C256.940399,114.231483 255.969833,114.117928 254.999268,114.004364 
z"/>
<path fill="#64ffda" opacity="1.000000" stroke="none"
	d="
M98.993996,155.976913 
	C79.991135,171.555984 64.026962,189.726883 51.889492,211.167435 
	C51.569847,211.732086 51.064976,212.191879 50.090965,212.667084 
	C54.949966,203.072784 54.478600,192.798325 53.613598,182.226074 
	C51.749088,182.117310 50.286823,182.032013 48.824554,181.946716 
	C52.171623,178.488083 55.611458,175.113815 58.847744,171.554489 
	C67.329491,162.226074 68.420898,152.358658 62.326820,141.361389 
	C59.092625,135.525024 53.701992,133.023987 47.258850,134.433914 
	C44.998348,134.928589 42.752769,135.505905 40.526066,136.136230 
	C38.493458,136.711578 36.495594,137.409653 34.018185,137.246643 
	C41.542645,131.597626 49.290440,126.215126 56.491924,120.180664 
	C59.806065,117.403580 62.806183,113.700699 64.619034,109.799706 
	C68.202271,102.089111 66.264603,96.258858 59.426292,91.046349 
	C52.201534,85.539284 45.756924,79.379166 42.020790,70.889046 
	C39.493164,65.145195 39.079693,59.311714 41.289577,53.029270 
	C54.107197,69.921417 71.671661,75.057846 91.650314,68.058144 
	C93.521614,67.402519 95.380486,66.711426 97.634216,66.454681 
	C98.348862,69.818230 98.949242,72.763168 98.957085,75.709686 
	C99.028259,102.465271 98.995987,129.221130 98.993996,155.976913 
z"/>
<path fill="#64ffda" opacity="1.000000" stroke="none"
	d="
M385.942993,123.539345 
	C385.698608,126.635406 385.062897,129.415283 385.047028,132.198715 
	C384.952148,148.851578 385.000000,165.505280 385.000000,182.158691 
	C385.000000,183.910675 385.000000,185.662659 385.000000,187.414658 
	C384.623108,187.603683 384.246216,187.792709 383.869354,187.981735 
	C361.056000,165.219711 336.834656,144.362122 307.435303,130.003845 
	C309.163574,129.454895 310.859009,129.454895 313.116852,129.454895 
	C313.116852,125.968758 313.116852,122.686539 313.116852,119.404320 
	C323.667755,120.462555 331.770752,113.917290 332.041931,104.185753 
	C332.180756,99.205338 330.124390,95.474258 325.757294,93.185600 
	C322.242065,91.343376 318.518097,89.901215 314.989990,88.081367 
	C308.503601,84.735580 305.794525,80.042366 306.827667,73.099503 
	C312.372589,83.389992 321.593750,82.596237 330.789062,83.194885 
	C351.927338,84.571060 369.169189,92.586494 378.370605,113.338104 
	C380.000732,117.014542 383.306213,119.948158 385.942993,123.539345 
z"/>
<path fill="#64ffda" opacity="1.000000" stroke="none"
	d="
M99.298172,155.835968 
	C98.995987,129.221130 99.028259,102.465271 98.957085,75.709686 
	C98.949242,72.763168 98.348862,69.818230 98.014755,66.451485 
	C108.041603,62.582123 117.916359,58.476139 128.181625,55.969082 
	C133.151489,54.755306 138.854126,56.542011 144.611389,57.554924 
	C144.998322,81.424469 144.998856,104.709320 144.999390,127.994179 
	C128.917053,135.670914 113.340698,144.176895 99.298172,155.835968 
z"/>
<path fill="#64ffda" opacity="1.000000" stroke="none"
	d="
M175.670807,344.322510 
	C169.562698,336.321045 172.702484,327.960724 181.998978,326.027740 
	C183.934860,325.625244 185.745331,324.285217 187.433319,323.116821 
	C189.196991,321.895966 190.568680,320.045013 192.417786,319.023529 
	C197.569763,316.177399 200.903946,312.279114 203.090958,306.598175 
	C206.031677,298.959290 214.853989,295.414032 223.117386,297.989532 
	C226.847717,299.152191 229.782135,298.575012 233.025818,296.818878 
	C263.123077,280.524109 293.264008,264.309998 323.401947,248.090485 
	C325.049408,247.203857 326.783142,246.477478 329.003479,246.634827 
	C324.719513,249.738739 320.452728,252.866623 316.148834,255.942596 
	C291.518616,273.545563 266.900085,291.165009 242.220520,308.698517 
	C238.707153,311.194550 236.328476,313.924072 235.319992,318.446075 
	C233.221771,327.854462 225.880310,332.882263 216.072952,331.901794 
	C211.923843,331.487030 208.735672,332.557800 205.420334,334.799591 
	C202.886810,336.512756 199.779221,337.351105 197.067230,338.834900 
	C195.090897,339.916199 193.029572,341.133545 191.550812,342.779541 
	C186.658829,348.224823 182.084473,348.867889 175.670807,344.322510 
z"/>
<path fill="#64ffda" opacity="1.000000" stroke="none"
	d="
M145.366776,127.958359 
	C144.998856,104.709320 144.998322,81.424469 144.996109,57.686317 
	C158.918304,60.764816 169.196472,69.803284 178.826904,79.758400 
	C184.556320,85.681000 190.589996,90.977882 199.620483,92.060524 
	C200.001678,98.791756 200.000839,105.427368 200.000000,112.531494 
	C192.102417,114.590805 184.071243,115.708023 176.340103,117.888878 
	C166.016190,120.801147 155.925186,124.539169 145.366776,127.958359 
z"/>
<path fill="#64ffda" opacity="1.000000" stroke="none"
	d="
M48.523880,182.081177 
	C50.286823,182.032013 51.749088,182.117310 53.613598,182.226074 
	C54.478600,192.798325 54.949966,203.072784 49.792747,212.831116 
	C46.102909,221.854446 42.127811,230.667938 38.230457,239.515671 
	C37.375126,241.457443 36.796284,243.520996 36.084267,245.923157 
	C16.731600,260.285858 10.036177,282.654114 7.334638,314.536957 
	C-1.766015,263.479706 14.797647,220.269760 48.523880,182.081177 
z"/>
<path fill="#64ffda" opacity="1.000000" stroke="none"
	d="
M312.805542,119.259697 
	C313.116852,122.686539 313.116852,125.968758 313.116852,129.454895 
	C310.859009,129.454895 309.163574,129.454895 307.234070,129.727448 
	C294.863403,125.909866 282.751556,121.743736 270.573730,117.780365 
	C267.325836,116.723312 263.875916,116.286911 260.259399,115.281754 
	C260.333313,106.052040 260.859955,97.108223 260.957092,88.159744 
	C261.125275,72.675995 261.027191,57.189350 261.069275,41.217705 
	C275.271515,59.539284 286.163177,80.117943 293.930847,102.319756 
	C297.117584,111.428108 303.120758,117.037102 312.805542,119.259697 
z"/>
<path fill="#64ffda" opacity="1.000000" stroke="none"
	d="
M470.000000,398.998627 
	C391.396912,398.998627 313.293823,398.998627 235.190720,398.998627 
	C235.192139,398.499725 235.193573,398.000824 235.195007,397.501923 
	C395.731659,397.501923 556.268311,397.501923 716.804993,397.501923 
	C716.806335,398.000824 716.807678,398.499725 716.809021,398.998627 
	C634.705994,398.998627 552.603027,398.998627 470.000000,398.998627 
z"/>
<path fill="#64ffda" opacity="1.000000" stroke="none"
	d="
M384.392700,363.992188 
	C384.392670,369.458649 384.392670,374.426819 384.392670,379.610779 
	C380.776550,379.431152 377.023071,381.266357 375.651489,376.246002 
	C374.235474,377.147675 372.940186,378.131592 371.512482,378.853699 
	C365.685516,381.800873 358.888153,380.074768 356.969147,373.935608 
	C355.368225,368.814178 354.764343,362.717651 355.920776,357.545319 
	C357.911407,348.641815 365.275513,346.037598 375.049866,349.603882 
	C375.049866,344.713318 375.049866,339.910889 375.049866,334.839844 
	C378.076294,334.839844 380.859833,334.839844 384.392761,334.839844 
	C384.392761,344.325500 384.392761,353.909729 384.392700,363.992188 
M367.944885,372.830383 
	C373.921997,372.699371 375.024384,371.666321 375.049500,366.151550 
	C375.059265,364.006927 375.438873,361.764954 374.932800,359.747223 
	C374.498962,358.017456 373.115265,355.290436 372.021912,355.226624 
	C369.943024,355.105255 366.999756,355.963684 365.790314,357.498627 
	C362.767090,361.335358 363.813568,368.620331 367.944885,372.830383 
z"/>
<path fill="#64ffda" opacity="1.000000" stroke="none"
	d="
M201.582474,29.964964 
	C201.668289,37.042976 201.336380,44.049774 201.002838,51.478760 
	C179.793625,40.329185 156.125153,36.626808 132.503937,30.926916 
	C140.620529,27.919123 161.789948,25.680006 170.014526,26.613695 
	C180.388351,27.791378 190.780502,28.807772 201.582474,29.964964 
z"/>
<path fill="#64ffda" opacity="1.000000" stroke="none"
	d="
M423.718353,338.504883 
	C423.410553,335.687653 423.945068,334.198700 426.847900,334.524719 
	C428.782593,334.742004 430.761475,334.565979 432.774048,334.565979 
	C432.774048,349.822693 432.774048,364.584412 432.774048,380.557983 
	C429.259033,379.452057 426.306152,378.522980 422.520386,377.331879 
	C413.519897,383.451111 404.914856,379.906036 403.518372,367.690216 
	C403.035278,363.464020 403.908966,358.637207 405.605072,354.707123 
	C408.473663,348.060211 414.474548,346.586884 423.718353,349.459106 
	C423.718353,345.827942 423.718353,342.389252 423.718353,338.504883 
M423.232849,356.481354 
	C417.602386,353.216797 413.752502,354.900299 413.038849,361.101776 
	C412.775269,363.392090 412.808411,365.779907 413.142181,368.059418 
	C413.555450,370.881897 414.923462,373.259521 418.318085,372.927734 
	C421.623840,372.604645 423.965118,371.144379 423.773010,367.235840 
	C423.609985,363.918610 423.658936,360.590973 423.232849,356.481354 
z"/>
<path fill="#64ffda" opacity="1.000000" stroke="none"
	d="
M265.762634,388.479248 
	C262.781342,389.229065 259.899292,389.546997 256.654297,389.904938 
	C256.654297,375.846069 256.654297,362.452576 256.654297,347.790344 
	C259.879639,348.636536 262.777405,349.396820 266.978119,350.498932 
	C272.294250,347.118500 277.034058,346.661896 281.164307,350.032867 
	C285.942780,353.932892 287.768951,363.728333 285.060516,370.932220 
	C282.761322,377.047699 278.183197,380.413910 272.259460,380.019745 
	C270.191284,379.882141 268.165741,379.104065 265.861816,378.557007 
	C265.861816,381.739655 265.861816,384.893524 265.762634,388.479248 
M265.863708,363.594666 
	C265.863708,364.753998 265.918823,365.916473 265.852936,367.072052 
	C265.683502,370.044861 265.679413,372.812958 269.741364,373.118561 
	C273.378998,373.392242 275.574646,371.636627 275.990906,368.233734 
	C276.365601,365.170624 276.461243,361.947815 275.923218,358.930359 
	C275.248505,355.145813 272.281982,354.080475 268.717529,355.525757 
	C265.167511,356.965179 265.913757,359.932892 265.863708,363.594666 
z"/>
<path fill="#64ffda" opacity="1.000000" stroke="none"
	d="
M566.094604,346.027618 
	C566.094604,342.058380 566.094604,338.583160 566.094604,334.821289 
	C569.313049,334.821289 572.221497,334.821289 575.546753,334.821289 
	C575.546753,343.132812 575.546753,351.234039 575.546753,359.335236 
	C575.990295,359.629425 576.433777,359.923584 576.877319,360.217743 
	C578.446167,358.494293 580.513184,357.013184 581.491333,355.002350 
	C584.522644,348.770355 589.201782,346.919434 596.271301,348.879578 
	C592.986023,353.408630 589.830811,357.758453 586.677429,362.105743 
	C590.002502,367.724548 593.350464,373.382080 596.809875,379.227966 
	C586.800293,380.623474 586.941040,380.543121 582.328674,372.463989 
	C580.901062,369.963318 580.921875,365.537323 575.644653,366.125977 
	C575.644653,368.369080 575.644653,370.497955 575.644653,372.626862 
	C575.644653,374.769989 575.644653,376.913116 575.644653,379.409882 
	C572.416565,379.409882 569.542969,379.409882 566.094604,379.409882 
	C566.094604,368.398163 566.094604,357.459930 566.094604,346.027618 
z"/>
<path fill="#64ffda" opacity="1.000000" stroke="none"
	d="
M630.977539,367.979156 
	C630.977539,361.331116 630.977539,355.178497 630.977539,347.975494 
	C634.226990,348.571381 637.071838,349.093079 639.916626,349.614746 
	C639.854614,350.101196 639.792603,350.587646 639.730591,351.074127 
	C641.335938,350.260620 642.880615,349.283661 644.557129,348.662201 
	C651.482971,346.094910 658.436218,349.893188 658.943787,357.078888 
	C659.468262,364.504272 659.060364,371.995483 659.060364,379.597351 
	C656.103577,379.597351 653.454163,379.597351 649.968689,379.597351 
	C649.968689,373.107727 650.117310,366.525177 649.859741,359.958527 
	C649.798523,358.399048 648.704712,356.039032 647.498474,355.575348 
	C645.940796,354.976562 643.521667,355.451599 641.992920,356.348969 
	C640.949402,356.961487 640.358276,359.074890 640.317078,360.538391 
	C640.140198,366.833649 640.241516,373.136719 640.241516,379.532776 
	C636.995178,379.532776 634.227600,379.532776 630.977539,379.532776 
	C630.977539,375.716797 630.977539,372.095703 630.977539,367.979156 
z"/>
<path fill="#64ffda" opacity="1.000000" stroke="none"
	d="
M511.124573,372.608948 
	C515.149475,370.132294 518.289246,369.892456 520.130310,374.685852 
	C515.291809,380.331482 506.165161,381.924896 499.323914,378.310333 
	C492.674713,374.797302 489.609253,366.516357 491.974518,358.456970 
	C493.996979,351.565674 500.357391,347.442017 508.141937,347.975006 
	C515.629395,348.487732 520.895325,354.330505 520.875671,361.933594 
	C520.868774,364.599243 519.971497,365.918457 517.097595,365.849854 
	C511.799286,365.723389 506.495789,365.813721 501.153809,365.813721 
	C501.967194,372.143372 503.726593,373.357147 511.124573,372.608948 
M510.845123,355.973328 
	C505.334412,353.035004 502.821442,354.026184 501.189758,359.972961 
	C504.780823,359.972961 508.314728,359.972961 512.266418,359.972961 
	C511.914062,358.707794 511.625275,357.670959 510.845123,355.973328 
z"/>
<path fill="#64ffda" opacity="1.000000" stroke="none"
	d="
M326.883728,376.157959 
	C321.056610,368.840332 320.341797,360.710693 324.712982,354.285492 
	C328.332611,348.964996 335.467773,346.577728 341.948914,348.518799 
	C347.682678,350.236023 350.981110,354.774963 351.402863,361.144135 
	C351.620636,364.432587 350.766663,366.084076 347.038940,365.878204 
	C342.080811,365.604370 337.096161,365.810608 332.117188,365.810608 
	C332.302704,372.078827 336.740082,374.882965 342.591583,372.117340 
	C346.560913,370.241364 349.140259,370.537842 350.895813,374.693787 
	C344.927826,381.328857 335.484467,382.018921 326.883728,376.157959 
M333.268555,356.080139 
	C332.733276,357.277618 332.198029,358.475067 331.579010,359.859863 
	C335.834991,359.859863 339.337677,359.859863 342.910431,359.859863 
	C341.370300,354.190613 339.570740,353.393097 333.268555,356.080139 
z"/>
<path fill="#64ffda" opacity="1.000000" stroke="none"
	d="
M310.550293,372.056793 
	C314.587219,369.390137 316.687378,371.356873 318.355957,374.553741 
	C313.660889,380.381866 304.078308,381.996155 297.164795,378.117828 
	C290.708984,374.496277 287.695679,365.768616 290.227448,358.024658 
	C292.519379,351.014252 299.935089,346.782135 307.773682,348.123413 
	C312.322754,348.901794 315.752441,351.315521 317.670746,355.610565 
	C321.040253,363.154968 319.368774,365.810974 311.297852,365.811615 
	C307.318726,365.811951 303.339569,365.811676 299.327118,365.811676 
	C300.156311,372.532379 303.110748,374.189850 310.550293,372.056793 
M302.820923,360.214142 
	C305.244873,360.214142 307.668793,360.214142 310.142426,360.214142 
	C310.475830,356.132721 308.380310,354.471161 305.241730,354.395844 
	C301.736908,354.311737 299.560150,356.199158 299.236084,360.074646 
	C300.306305,360.129822 301.121399,360.171844 302.820923,360.214142 
z"/>
<path fill="#64ffda" opacity="1.000000" stroke="none"
	d="
M449.087921,361.988281 
	C451.302734,361.723541 453.097443,361.489777 454.837524,361.263123 
	C455.235077,355.227692 452.741150,353.626587 446.969574,355.959595 
	C441.883423,358.015564 441.575806,357.900055 438.900360,352.710541 
	C443.921600,348.119202 449.934540,346.851471 456.338531,348.396942 
	C461.623047,349.672180 464.293060,353.818207 464.508850,359.103607 
	C464.779358,365.729340 464.573975,372.374512 464.573975,380.276733 
	C461.396423,379.427155 458.777710,378.726990 455.056366,377.732056 
	C453.203094,378.228333 449.794525,379.681976 446.295258,379.949524 
	C441.232635,380.336670 437.877991,377.586823 437.257019,373.240723 
	C436.599854,368.641174 438.871124,365.584656 443.008392,363.869476 
	C444.836365,363.111633 446.777863,362.627563 449.087921,361.988281 
M452.023499,373.615479 
	C455.122223,372.409149 456.237518,370.350555 454.401642,365.759705 
	C451.410767,367.630615 447.414886,368.739471 446.456604,371.087860 
	C445.304932,373.910156 448.883392,374.021942 452.023499,373.615479 
z"/>
<path fill="#64ffda" opacity="1.000000" stroke="none"
	d="
M626.232117,362.032898 
	C626.495239,365.520691 624.626587,365.889587 622.135986,365.839722 
	C617.015686,365.737122 611.891907,365.808868 606.727539,365.808868 
	C607.600464,372.362305 611.759583,374.861786 617.627930,372.044769 
	C621.711304,370.084564 624.067871,370.871094 625.768677,374.789368 
	C619.432861,381.349945 608.257263,382.014496 601.868347,376.267090 
	C595.804626,370.812225 595.002686,359.282562 600.455994,353.096680 
	C604.848999,348.113403 610.554871,346.894653 616.804749,348.556427 
	C622.734253,350.132965 625.544006,354.248993 626.232117,362.032898 
M617.383118,357.499390 
	C615.200867,356.542938 612.955750,354.742615 610.856323,354.898834 
	C609.197144,355.022278 607.716736,357.550018 606.156982,359.010010 
	C610.000549,360.194397 612.956970,360.308502 615.891541,360.105652 
	C616.539307,360.060913 617.109314,358.893219 617.383118,357.499390 
z"/>
<path fill="#64ffda" opacity="1.000000" stroke="none"
	d="
M701.433838,380.003052 
	C696.774048,379.092438 694.211426,376.646332 694.011108,372.186920 
	C693.809631,367.700836 696.367004,364.977570 700.316589,363.704254 
	C704.042114,362.503143 707.935181,361.821381 711.774414,360.906464 
	C711.932617,355.161255 709.467346,353.631744 703.687805,355.963135 
	C698.625549,358.005188 698.225891,357.847015 695.787109,352.652008 
	C700.649292,348.152100 706.553467,346.951630 712.768921,348.302765 
	C717.743896,349.384308 720.883301,353.003815 721.085449,358.236420 
	C721.353821,365.182098 721.151611,372.145966 721.151611,380.283051 
	C718.038086,379.411591 715.389832,378.670349 712.291748,377.803223 
	C709.391724,378.423370 705.621155,379.229706 701.433838,380.003052 
M706.470154,367.739075 
	C705.342957,369.227356 704.215759,370.715637 703.088562,372.203949 
	C704.824890,372.731354 706.679443,373.929382 708.273254,373.648376 
	C711.732849,373.038452 713.090454,370.682281 711.664978,366.895477 
	C710.143982,367.096161 708.703735,367.286224 706.470154,367.739075 
z"/>
<path fill="#64ffda" opacity="1.000000" stroke="none"
	d="
M671.810913,350.079620 
	C673.860596,355.359436 675.743652,360.283325 678.128662,366.519775 
	C679.682007,362.321472 680.870911,359.266663 681.945679,356.172211 
	C684.766113,348.051208 684.746338,348.044342 694.003113,348.491058 
	C691.469238,354.553802 689.030151,360.442657 686.548096,366.313324 
	C684.162537,371.955688 681.725403,377.576202 679.324219,383.212036 
	C676.314087,390.277130 676.319946,390.279633 668.001282,389.184662 
	C668.167419,388.558105 668.166443,387.849274 668.505066,387.391602 
	C673.766724,380.277618 673.064148,373.326202 668.814392,365.881531 
	C665.737854,360.491974 663.686279,354.517334 660.603455,347.495850 
	C665.110413,348.405273 668.377319,349.064484 671.810913,350.079620 
z"/>
<path fill="#64ffda" opacity="1.000000" stroke="none"
	d="
M537.788696,347.969299 
	C541.239502,349.009064 544.260071,350.035187 547.313904,351.072662 
	C545.857971,355.690674 543.882568,357.232697 540.014954,355.189575 
	C538.923828,354.613190 537.349243,354.465332 536.140076,354.744141 
	C535.053833,354.994568 534.164734,356.100372 533.188721,356.828857 
	C533.868164,357.675629 534.378662,358.863403 535.261047,359.300720 
	C537.328247,360.325378 539.571167,360.997192 541.747437,361.799683 
	C545.169250,363.061432 547.454773,365.331787 547.545593,369.111572 
	C547.644653,373.238861 546.072388,376.664490 542.143555,378.447815 
	C535.718079,381.364380 529.584412,380.518311 523.607544,376.663971 
	C524.787109,372.025879 527.047791,370.366730 531.456787,372.991730 
	C532.404785,373.556091 533.793640,374.025024 534.763000,373.756561 
	C536.200256,373.358459 537.444458,372.262878 538.770813,371.464233 
	C537.855042,370.424194 537.113892,369.086853 535.978882,368.419952 
	C534.583496,367.600006 532.840332,367.392059 531.280945,366.827271 
	C526.797119,365.203339 523.885376,362.324738 524.202942,357.217438 
	C524.485107,352.678833 527.857849,349.218994 532.884216,348.235046 
	C534.338135,347.950409 535.864990,348.038483 537.788696,347.969299 
z"/>
<path fill="#64ffda" opacity="1.000000" stroke="none"
	d="
M251.808411,369.964844 
	C249.053726,380.628693 237.594284,383.515747 227.773895,376.322205 
	C229.030365,372.352966 231.003052,370.232117 235.378357,372.895874 
	C236.447571,373.546844 237.979568,373.957306 239.170654,373.748260 
	C240.467636,373.520538 241.615463,372.443176 242.828308,371.736206 
	C242.025970,370.647766 241.448730,369.145630 240.372726,368.560181 
	C238.359833,367.464996 236.033249,366.962616 233.881348,366.102997 
	C230.236526,364.647095 227.809647,361.651001 228.570145,358.018280 
	C229.208710,354.968140 231.195801,351.449066 233.683823,349.695312 
	C238.710846,346.151825 246.043854,347.549072 251.132309,351.977905 
	C250.043152,355.619629 248.115784,357.306305 244.232697,355.196899 
	C243.395828,354.742279 242.228546,354.450012 241.337112,354.645844 
	C239.988312,354.942139 238.747986,355.732239 237.461548,356.312469 
	C238.399582,357.478851 239.109085,359.058258 240.321350,359.728912 
	C243.192093,361.317200 246.589539,362.075165 249.201706,363.961395 
	C250.664688,365.017822 250.986496,367.654663 251.808411,369.964844 
z"/>
<path fill="#64ffda" opacity="1.000000" stroke="none"
	d="
M481.405396,367.967712 
	C481.496063,371.107086 481.349274,373.417419 485.560822,372.504913 
	C487.148865,372.160828 489.340088,374.600647 491.825317,376.119019 
	C485.438446,380.349915 480.848389,381.257416 476.198334,378.876831 
	C471.775543,376.612579 471.961761,372.189880 472.016144,367.972168 
	C472.069580,363.830902 472.027802,359.688385 472.027802,355.174530 
	C467.623840,355.395294 466.997467,353.011261 468.124268,349.540161 
	C468.547272,349.801941 468.970306,350.063721 469.393311,350.325500 
	C470.846558,348.239258 473.200745,346.299316 473.568207,344.036743 
	C474.368713,339.107635 476.984863,338.582947 481.211395,339.631683 
	C481.335083,342.359558 481.459991,345.114899 481.596558,348.127380 
	C484.105164,348.299286 486.367462,348.454285 488.866028,348.625488 
	C488.866028,350.693146 488.866028,352.589050 488.866028,354.753754 
	C486.489960,354.864044 484.221344,354.969330 481.404480,355.100098 
	C481.404480,359.320648 481.404480,363.397186 481.405396,367.967712 
z"/>
<path fill="#64ffda" opacity="1.000000" stroke="none"
	d="
M498.982666,435.503723 
	C497.713348,435.601654 496.444061,435.699585 495.067780,435.805786 
	C494.307495,430.415955 493.600098,425.401093 492.715912,419.132935 
	C489.253387,425.360291 486.353302,430.576111 482.856018,436.865967 
	C479.371735,430.627167 476.440430,425.378510 472.757568,418.784149 
	C472.069824,424.317780 471.288574,428.464844 471.124237,432.636200 
	C471.003632,435.697662 470.066559,436.529602 467.289429,435.391022 
	C468.259827,428.286530 469.164642,421.252686 470.234406,414.244019 
	C470.406982,413.113312 471.313782,412.094696 471.881165,411.024261 
	C472.927765,411.883545 474.331116,412.538635 474.959839,413.637085 
	C477.839508,418.668152 480.502289,423.823364 483.400391,429.227570 
	C488.014282,423.326294 489.578918,415.765167 495.710693,409.789307 
	C496.940033,418.381744 497.990692,425.725281 499.021729,433.759644 
	C498.995667,434.801544 498.989166,435.152649 498.982666,435.503723 
z"/>
<path fill="#64ffda" opacity="1.000000" stroke="none"
	d="
M671.195068,424.589996 
	C671.305786,422.180542 670.888428,419.233368 672.093079,418.226135 
	C673.537842,417.018127 676.385559,417.198578 678.582581,417.361084 
	C679.218262,417.408112 679.705566,419.459869 679.372375,421.190979 
	C678.668030,420.626221 678.040161,419.815369 677.237732,419.565704 
	C676.430542,419.314606 675.074402,419.293121 674.650574,419.776947 
	C674.228699,420.258484 674.328186,421.760101 674.791382,422.346985 
	C676.122253,424.033112 678.130676,425.269745 679.155334,427.087524 
	C680.111755,428.784180 681.092102,431.532593 680.348022,432.850006 
	C679.441162,434.455505 676.827271,435.702301 674.805481,435.960999 
	C668.252075,436.799561 662.559631,435.240936 658.993530,428.480652 
	C658.993530,430.753052 658.993530,433.025452 658.993530,435.604004 
	C657.197266,435.706696 655.927246,435.779297 654.351013,435.869385 
	C654.351013,429.597900 654.351013,423.532440 654.351013,416.950317 
	C658.484192,417.435669 663.416199,414.958405 666.064758,419.716766 
	C667.164246,421.692047 665.932800,424.964813 665.761353,427.647552 
	C665.315796,427.677948 664.870239,427.708344 664.424622,427.738739 
	C665.898560,429.724091 667.372437,431.709473 669.244995,434.231873 
	C669.799683,432.844849 670.155945,431.954041 671.210754,429.316406 
	C671.782898,430.867249 671.852234,432.010773 672.382080,432.294586 
	C673.525024,432.906799 674.904541,433.077484 676.187256,433.428833 
	C676.018860,431.981934 676.282227,430.261780 675.580261,429.152496 
	C674.541626,427.511200 672.817566,426.303680 671.195068,424.589996 
M660.275574,418.970276 
	C659.380798,421.072937 658.486023,423.175598 657.296631,425.970703 
	C663.473755,425.006836 664.082153,423.210175 660.275574,418.970276 
z"/>
<path fill="#64ffda" opacity="1.000000" stroke="none"
	d="
M452.002777,435.659637 
	C447.586121,435.659637 443.169464,435.659637 438.525238,435.659637 
	C437.561035,432.798767 437.148987,429.552307 432.636292,429.948761 
	C429.957825,430.184082 428.379364,430.778961 427.356445,433.337952 
	C426.877380,434.536316 425.468964,435.363220 424.481750,436.358459 
	C424.038177,435.989899 423.594604,435.621307 423.151031,435.252747 
	C426.306671,428.913818 429.462311,422.574890 433.310333,414.845154 
	C437.133301,422.534546 440.252075,428.807556 443.370850,435.080566 
	C443.691193,435.024902 444.011566,434.969208 444.331909,434.913544 
	C444.331909,429.102875 444.331909,423.292206 444.331909,417.226196 
	C446.146698,417.226196 447.383026,417.226196 448.954712,417.226196 
	C448.954712,421.464294 448.798035,425.584869 449.053986,429.679626 
	C449.126953,430.847137 450.398010,431.939819 451.559814,433.430481 
	C452.000885,434.416016 452.001831,435.037811 452.002777,435.659637 
z"/>
<path fill="#64ffda" opacity="1.000000" stroke="none"
	d="
M598.980469,435.597870 
	C597.850708,435.665863 596.721008,435.733856 595.364868,435.815491 
	C594.817810,432.231201 594.298035,428.825958 593.603027,424.272278 
	C590.977173,428.528503 588.800354,432.056854 585.885925,436.780792 
	C583.244629,432.321381 580.990906,428.516357 578.441528,424.212067 
	C577.632690,428.487885 576.982422,432.099274 576.172119,435.674438 
	C576.133301,435.845612 574.680969,435.696411 573.576660,435.696411 
	C574.416077,430.090454 575.175598,424.737549 576.059814,419.405304 
	C576.198547,418.568787 577.036621,417.115417 577.322083,417.168976 
	C578.308594,417.354065 579.565247,417.849243 580.053772,418.638245 
	C582.293640,422.256256 584.307800,426.013977 586.610291,430.088318 
	C589.586121,425.275116 592.339355,420.822052 595.092590,416.368988 
	C595.643433,416.564880 596.194214,416.760773 596.745056,416.956665 
	C597.532471,422.262146 598.319885,427.567627 599.073853,433.607178 
	C599.020386,434.760132 599.000427,435.178986 598.980469,435.597870 
z"/>
<path fill="#64ffda" opacity="1.000000" stroke="none"
	d="
M554.268555,423.096130 
	C554.264404,420.967438 554.264404,419.321777 554.264404,417.256073 
	C555.534119,417.149384 556.906433,417.034088 558.657959,416.886963 
	C558.657959,419.595032 558.657959,421.978668 558.657959,424.553345 
	C561.413574,424.553345 563.814453,424.553345 566.464844,424.553345 
	C566.464844,421.984039 566.464844,419.725250 566.464844,417.182159 
	C567.893677,417.088562 569.160828,417.005524 570.718811,416.903442 
	C570.718811,423.148376 570.718811,429.211121 570.718811,435.569305 
	C569.444153,435.569305 568.199951,435.569305 566.637390,435.569305 
	C566.637390,433.040863 566.637390,430.473999 566.637390,427.516052 
	C563.951843,427.516052 561.574341,427.516052 558.797424,427.516052 
	C558.797424,430.062408 558.797424,432.608459 558.797424,435.558563 
	C557.192993,435.643341 555.832214,435.715210 554.272766,435.797577 
	C554.272766,431.475830 554.272766,427.527496 554.268555,423.096130 
z"/>
<path fill="#64ffda" opacity="1.000000" stroke="none"
	d="
M268.000916,423.988953 
	C268.000214,421.501221 267.999237,419.508423 267.998901,417.515594 
	C267.998566,415.544281 267.998840,413.572968 267.998840,411.614471 
	C277.171539,409.835632 281.720703,411.518890 282.725311,417.027924 
	C283.661011,422.159271 280.445526,425.350891 272.267365,427.260590 
	C272.267365,429.835236 272.267365,432.456635 272.267365,435.558472 
	C270.955353,435.620728 269.614807,435.684326 268.000916,435.760925 
	C268.000916,431.736298 268.000916,428.110077 268.000916,423.988953 
M275.941650,413.336609 
	C274.734985,413.336609 273.528320,413.336609 272.377258,413.336609 
	C272.377258,417.160339 272.377258,420.535156 272.377258,423.922028 
	C278.416321,423.500549 279.872467,419.778351 275.941650,413.336609 
z"/>
<path fill="#64ffda" opacity="1.000000" stroke="none"
	d="
M402.412048,424.590332 
	C402.354736,432.322968 398.603760,436.308380 392.114471,436.010406 
	C386.239777,435.740601 382.374115,431.318604 382.812592,425.369873 
	C383.146881,420.834595 386.485077,417.379395 391.086639,416.805817 
	C396.764374,416.098114 400.298767,418.433838 402.412048,424.590332 
M388.804688,431.517151 
	C391.403809,434.390259 394.171722,434.732727 396.817871,431.726288 
	C399.123199,429.107025 398.411987,422.561096 395.767975,420.248596 
	C392.819550,417.669861 388.415039,418.765778 387.590057,422.761505 
	C387.062744,425.315643 388.027466,428.177856 388.804688,431.517151 
z"/>
<path fill="#64ffda" opacity="1.000000" stroke="none"
	d="
M621.759277,420.723541 
	C620.591125,416.356018 623.048889,416.773834 625.838745,417.204742 
	C625.921997,419.033356 626.007446,420.908997 626.117920,423.334381 
	C629.434021,420.998535 632.250244,418.893524 635.214539,417.023041 
	C635.851868,416.620941 637.023804,417.066223 638.496216,417.153595 
	C635.214172,419.800507 632.407410,422.064148 628.648987,425.095276 
	C632.524658,428.201294 636.197266,431.144531 640.735596,434.781586 
	C632.139221,437.698242 630.894470,430.090729 626.183960,428.248718 
	C626.183960,430.590607 626.183960,432.813782 626.183960,435.518250 
	C624.576599,435.628174 623.229492,435.720306 621.794128,435.818481 
	C621.794128,430.671478 621.794128,425.914001 621.759277,420.723541 
z"/>
<path fill="#64ffda" opacity="1.000000" stroke="none"
	d="
M317.361877,433.358276 
	C313.054504,436.709229 308.793823,436.972046 304.571289,434.266754 
	C301.175018,432.090820 299.883698,428.724518 300.542053,424.764160 
	C301.238708,420.573517 303.729675,417.811310 307.909271,416.968048 
	C312.315125,416.079224 316.430389,416.957916 318.800537,421.090179 
	C321.136292,425.162537 320.976196,429.368378 317.361877,433.358276 
M314.828857,421.894073 
	C312.725464,420.975067 310.551239,419.247772 308.543884,419.423737 
	C307.225067,419.539368 305.068146,422.487915 305.189453,424.016876 
	C305.430054,427.049835 306.639099,430.186249 308.214783,432.821350 
	C308.677582,433.595306 313.045868,433.384552 313.350616,432.663788 
	C314.541321,429.847595 314.834412,426.648743 315.417114,423.583771 
	C315.470123,423.304810 315.208344,422.966034 314.828857,421.894073 
z"/>
<path fill="#64ffda" opacity="1.000000" stroke="none"
	d="
M285.030884,424.042175 
	C285.029877,421.578796 285.029877,419.603638 285.029877,417.294037 
	C289.238525,417.118164 294.016632,415.152100 296.752411,419.639343 
	C297.901917,421.524750 296.659821,424.868195 296.504944,427.548828 
	C295.992432,427.581940 295.479919,427.615082 294.967407,427.648224 
	C296.860168,430.116180 298.752899,432.584137 300.843475,435.309998 
	C293.877441,437.950745 294.020782,429.642792 289.403778,428.042816 
	C289.403778,430.682404 289.403778,433.027039 289.403778,435.596680 
	C287.755798,435.596680 286.527740,435.596680 285.031860,435.596680 
	C285.031860,431.785492 285.031860,428.157959 285.030884,424.042175 
M289.122650,419.867554 
	C289.122650,421.885803 289.122650,423.904083 289.122650,425.922333 
	C289.740723,426.109406 290.358795,426.296509 290.976868,426.483612 
	C291.770508,424.921112 293.141876,423.355560 293.133575,421.797333 
	C293.128845,420.912079 290.866150,420.038879 289.122650,419.867554 
z"/>
<path fill="#64ffda" opacity="1.000000" stroke="none"
	d="
M599.384888,435.675903 
	C599.000427,435.178986 599.020386,434.760132 599.077271,434.028748 
	C600.253113,432.598328 601.744263,431.670105 602.466919,430.328064 
	C604.939575,425.736359 607.142273,420.999268 610.209534,414.771332 
	C613.988281,422.423431 617.060547,428.644958 620.391357,435.389923 
	C618.684021,435.624451 617.336731,435.809479 615.806213,436.019714 
	C615.462097,435.291046 615.125732,434.755188 614.947815,434.171082 
	C614.248291,431.874207 613.565979,429.916718 610.383301,429.997864 
	C607.505798,430.071198 605.394653,430.327637 604.115967,433.472473 
	C603.645996,434.628296 601.286682,435.015900 599.384888,435.675903 
z"/>
<path fill="#64ffda" opacity="1.000000" stroke="none"
	d="
M499.379272,435.596252 
	C498.989166,435.152649 498.995667,434.801544 499.014954,434.187378 
	C500.142151,432.707306 501.558777,431.652618 502.315216,430.243469 
	C504.774567,425.662262 506.992371,420.951416 510.011108,414.862366 
	C513.768799,422.430267 516.860901,428.657776 520.251831,435.487000 
	C518.469421,435.642761 516.995667,435.771515 515.289185,435.920654 
	C514.475830,431.926697 512.919312,428.844696 508.372620,430.163025 
	C506.882385,430.595123 504.804871,431.739227 504.491180,432.946320 
	C503.738525,435.842651 502.184357,436.217072 499.379272,435.596252 
z"/>
<path fill="#64ffda" opacity="1.000000" stroke="none"
	d="
M405.130707,421.343750 
	C405.122681,419.654053 405.122681,418.418030 405.122681,415.762268 
	C410.075836,420.448669 414.076538,424.233917 418.965759,428.859833 
	C418.965759,425.231049 418.825531,422.519226 419.039612,419.835693 
	C419.117615,418.858307 420.039398,417.948212 420.576202,417.007416 
	C421.044586,417.858521 421.898529,418.700684 421.918488,419.562195 
	C422.043121,424.941925 421.981354,430.325989 420.820221,436.144684 
	C417.249817,431.910889 413.679443,427.677124 410.109039,423.443359 
	C409.437866,423.879822 408.766663,424.316284 408.095490,424.752777 
	C408.095490,427.612183 408.213379,430.479492 408.023468,433.326233 
	C407.966736,434.176941 407.049072,434.970215 406.525848,435.789825 
	C406.037231,434.941681 405.157104,434.106873 405.127625,433.243011 
	C404.997559,429.432404 405.112518,425.613434 405.130707,421.343750 
z"/>
<path fill="#64ffda" opacity="1.000000" stroke="none"
	d="
M644.945679,416.937256 
	C647.193359,416.937469 648.975708,416.937469 650.758118,416.937469 
	C650.854736,417.509338 650.951294,418.081207 651.047913,418.653076 
	C649.083008,418.920593 647.118103,419.188110 644.694214,419.518097 
	C644.694214,420.941193 644.694214,422.459137 644.694214,424.318024 
	C646.428223,424.412292 648.017273,424.498657 649.606384,424.585052 
	C649.779114,425.048096 649.951843,425.511169 650.124573,425.974243 
	C648.448059,426.524689 646.771545,427.075134 644.505249,427.819244 
	C644.441833,429.034180 644.352173,430.752991 644.241699,432.870361 
	C646.620422,432.870361 648.693970,432.870361 650.767517,432.870361 
	C650.863525,433.486511 650.959534,434.102661 651.055481,434.718781 
	C647.957336,437.271332 643.963684,435.355194 640.170898,435.714783 
	C640.170898,429.423737 640.170898,423.506927 640.170898,417.216034 
	C641.625793,417.121857 643.053040,417.029480 644.945679,416.937256 
z"/>
<path fill="#64ffda" opacity="1.000000" stroke="none"
	d="
M336.199036,425.026184 
	C336.197968,422.234375 336.197968,419.931122 336.197968,416.937500 
	C337.933319,416.937500 339.676697,416.937500 341.420044,416.937500 
	C343.200623,416.937500 344.981171,416.937500 346.761749,416.937500 
	C346.822479,417.515717 346.883179,418.093903 346.943909,418.672119 
	C345.009094,418.931854 343.074280,419.191589 340.721375,419.507446 
	C340.721375,420.928406 340.721375,422.450989 340.721375,424.306030 
	C342.426941,424.409607 344.010193,424.505737 345.593445,424.601898 
	C345.789154,425.055634 345.984894,425.509369 346.180603,425.963104 
	C344.339600,426.527557 342.498596,427.092010 340.452759,427.719269 
	C340.452759,429.206635 340.452759,430.832947 340.452759,432.850586 
	C342.629913,432.850586 344.693939,432.850586 346.847595,432.850586 
	C346.024750,436.225861 344.094727,436.616821 336.200073,435.298859 
	C336.200073,432.067200 336.200073,428.790985 336.199036,425.026184 
z"/>
<path fill="#64ffda" opacity="1.000000" stroke="none"
	d="
M542.997803,416.979126 
	C546.622253,416.945831 550.612488,415.292450 551.674988,421.038971 
	C547.673035,419.531860 542.864380,416.497620 540.812195,422.179016 
	C539.793884,424.998138 540.772217,429.723846 542.708923,432.009583 
	C544.006653,433.541168 548.575684,432.300903 552.667236,432.300903 
	C550.958374,433.534821 549.436401,435.410797 547.589294,435.820404 
	C542.277161,436.998291 537.381470,434.133148 535.980957,429.624054 
	C534.264343,424.097076 536.417542,420.016968 542.997803,416.979126 
z"/>
<path fill="#64ffda" opacity="1.000000" stroke="none"
	d="
M359.050598,418.900757 
	C358.418671,419.598694 357.772247,420.096161 357.105835,420.124481 
	C355.991425,420.171814 354.864288,419.919556 353.742493,419.793396 
	C354.041565,420.947357 354.043335,422.321808 354.701569,423.209442 
	C356.073364,425.059174 358.352112,426.416473 359.193970,428.422729 
	C359.885132,430.069824 359.705048,433.596649 358.737671,434.119568 
	C356.522614,435.316986 353.578888,435.498810 350.955719,435.404877 
	C350.175629,435.376923 349.477539,433.060852 348.741913,431.793182 
	C349.508728,431.169403 350.275574,430.545654 351.042419,429.921875 
	C351.207092,430.744019 351.111908,432.027039 351.588593,432.295776 
	C352.704254,432.924774 354.094177,433.067383 355.373047,433.406891 
	C355.183838,431.948486 355.310272,430.340332 354.710663,429.076660 
	C354.182678,427.963776 352.796204,427.281616 351.871399,426.329071 
	C349.609589,423.999451 348.007568,421.236572 350.736694,418.506653 
	C353.179108,416.063568 356.256866,415.827728 359.050598,418.900757 
z"/>
<path fill="#64ffda" opacity="1.000000" stroke="none"
	d="
M200.819214,465.774841 
	C201.404877,464.090149 201.890778,462.784637 202.376663,461.479126 
	C202.655624,461.557709 202.934601,461.636292 203.213562,461.714874 
	C202.292511,469.910339 201.403946,478.109619 200.438690,486.299866 
	C199.816940,491.575500 195.842316,489.772552 193.255966,489.879486 
	C195.724884,482.031128 198.222153,474.092590 200.819214,465.774841 
z"/>
<path fill="#64ffda" opacity="1.000000" stroke="none"
	d="
M518.096497,419.010620 
	C519.258850,418.017609 520.423828,417.086639 521.641113,417.012238 
	C525.106812,416.800446 528.601135,416.811432 532.068481,417.009186 
	C533.216675,417.074677 534.317261,417.974854 535.439575,418.493408 
	C535.283936,418.924469 535.128296,419.355530 534.972656,419.786621 
	C533.214111,419.674011 531.455505,419.561432 529.255371,419.420563 
	C529.255371,424.703735 529.255371,429.882599 529.255371,435.502136 
	C527.511963,435.617889 526.170410,435.706940 524.547729,435.814667 
	C524.547729,430.220551 524.547729,425.016968 524.547729,419.463867 
	C522.226135,419.463867 520.174622,419.463867 518.096497,419.010620 
z"/>
<path fill="#64ffda" opacity="1.000000" stroke="none"
	d="
M367.793518,424.018524 
	C369.475372,425.873138 371.441315,427.282593 372.095734,429.151367 
	C372.620392,430.649658 372.107269,433.747833 371.076904,434.295135 
	C368.977844,435.410004 366.193756,435.643646 363.745972,435.471527 
	C362.891541,435.411438 362.196228,433.088623 361.428284,431.799133 
	C361.807648,431.539825 362.186981,431.280487 362.566345,431.021149 
	C363.342102,431.760193 364.003387,432.765106 364.926270,433.162537 
	C365.825439,433.549774 366.992310,433.315491 368.041626,433.354095 
	C368.055695,432.186401 368.544189,430.672913 367.993225,429.917084 
	C366.452515,427.803284 364.045868,426.236725 362.841919,423.992401 
	C362.100403,422.610046 362.242676,419.513123 363.221680,418.731964 
	C364.785553,417.484070 367.375916,417.180420 369.531921,417.181519 
	C370.422394,417.181976 371.311890,419.003143 373.113617,421.013672 
	C369.821960,420.233795 368.163330,419.840820 366.504730,419.447845 
	C366.840271,420.889130 367.175781,422.330414 367.793518,424.018524 
z"/>
<path fill="#64ffda" opacity="1.000000" stroke="none"
	d="
M322.954041,419.172180 
	C326.522614,417.887970 330.111877,417.086914 333.701111,416.285858 
	C333.825714,417.029053 333.950348,417.772278 334.074951,418.515472 
	C331.939178,418.821289 329.803406,419.127106 327.288269,419.487244 
	C327.217896,420.769928 327.142120,422.151337 327.044464,423.931091 
	C329.098480,423.931091 330.839935,423.931091 332.581360,423.931091 
	C332.718994,424.479431 332.856598,425.027771 332.994202,425.576111 
	C331.230499,426.156158 329.466797,426.736206 327.258423,427.462494 
	C327.258423,429.588318 327.258423,432.343689 327.258423,435.199982 
	C324.340820,436.296082 322.703949,436.280060 322.915680,432.557312 
	C323.159546,428.269409 322.973877,423.957092 322.954041,419.172180 
z"/>
<path fill="#64ffda" opacity="1.000000" stroke="none"
	d="
M375.639984,421.212097 
	C374.497742,417.022217 376.353943,416.419434 379.704956,417.193451 
	C379.704956,423.115356 379.704956,429.142456 379.704956,435.520355 
	C378.407715,435.520355 377.061005,435.520355 375.668427,435.520355 
	C375.668427,430.818176 375.668427,426.251251 375.639984,421.212097 
z"/>
<path fill="#64ffda" opacity="1.000000" stroke="none"
	d="
M452.390686,435.747681 
	C452.001831,435.037811 452.000885,434.416016 452.001831,433.483276 
	C453.248016,433.075439 454.492371,432.978516 455.736694,432.881592 
	C455.897064,433.310455 456.057434,433.739349 456.217804,434.168213 
	C455.071381,434.724060 453.924988,435.279907 452.390686,435.747681 
z"/>
<path fill="#64ffda" opacity="1.000000" stroke="none"
	d="
M95.000740,392.999512 
	C95.297218,392.800110 95.575623,392.577240 95.854027,392.354370 
	C95.668213,392.654724 95.482399,392.955048 95.124626,393.090179 
	C94.952667,392.924957 94.982674,392.976044 95.000740,392.999512 
z"/>
<path fill="#64ffda" opacity="1.000000" stroke="none"
	d="
M114.443535,210.670624 
	C114.771721,210.907089 114.862701,211.319366 114.953674,211.731628 
	C114.663139,211.739258 114.372604,211.746887 113.923683,211.496796 
	C113.912300,211.108185 114.059311,210.977295 114.443535,210.670624 
z"/>
<path fill="#64ffda" opacity="1.000000" stroke="none"
	d="
M81.000732,266.993347 
	C81.200760,267.156830 81.424522,267.302368 81.648285,267.447906 
	C81.407158,267.415588 81.166039,267.383240 80.997894,267.144531 
	C81.070885,266.938141 81.024475,266.975403 81.000732,266.993347 
z"/>
<path fill="#64ffda" opacity="1.000000" stroke="none"
	d="
M255.205414,114.266327 
	C255.969833,114.117928 256.940399,114.231483 257.956665,114.668823 
	C257.138763,114.837837 256.275177,114.683067 255.205414,114.266327 
z"/>
<path fill="none" opacity="1.000000" stroke="none"
	d="
M367.583374,372.661804 
	C363.813568,368.620331 362.767090,361.335358 365.790314,357.498627 
	C366.999756,355.963684 369.943024,355.105255 372.021912,355.226624 
	C373.115265,355.290436 374.498962,358.017456 374.932800,359.747223 
	C375.438873,361.764954 375.059265,364.006927 375.049500,366.151550 
	C375.024384,371.666321 373.921997,372.699371 367.583374,372.661804 
z"/>
<path fill="none" opacity="1.000000" stroke="none"
	d="
M423.423462,356.874634 
	C423.658936,360.590973 423.609985,363.918610 423.773010,367.235840 
	C423.965118,371.144379 421.623840,372.604645 418.318085,372.927734 
	C414.923462,373.259521 413.555450,370.881897 413.142181,368.059418 
	C412.808411,365.779907 412.775269,363.392090 413.038849,361.101776 
	C413.752502,354.900299 417.602386,353.216797 423.423462,356.874634 
z"/>
<path fill="none" opacity="1.000000" stroke="none"
	d="
M265.863708,363.131653 
	C265.913757,359.932892 265.167511,356.965179 268.717529,355.525757 
	C272.281982,354.080475 275.248505,355.145813 275.923218,358.930359 
	C276.461243,361.947815 276.365601,365.170624 275.990906,368.233734 
	C275.574646,371.636627 273.378998,373.392242 269.741364,373.118561 
	C265.679413,372.812958 265.683502,370.044861 265.852936,367.072052 
	C265.918823,365.916473 265.863708,364.753998 265.863708,363.131653 
z"/>
<path fill="none" opacity="1.000000" stroke="none"
	d="
M511.090820,356.303711 
	C511.625275,357.670959 511.914062,358.707794 512.266418,359.972961 
	C508.314728,359.972961 504.780823,359.972961 501.189758,359.972961 
	C502.821442,354.026184 505.334412,353.035004 511.090820,356.303711 
z"/>
<path fill="none" opacity="1.000000" stroke="none"
	d="
M333.569061,355.818207 
	C339.570740,353.393097 341.370300,354.190613 342.910431,359.859863 
	C339.337677,359.859863 335.834991,359.859863 331.579010,359.859863 
	C332.198029,358.475067 332.733276,357.277618 333.569061,355.818207 
z"/>
<path fill="none" opacity="1.000000" stroke="none"
	d="
M302.378723,360.214020 
	C301.121399,360.171844 300.306305,360.129822 299.236084,360.074646 
	C299.560150,356.199158 301.736908,354.311737 305.241730,354.395844 
	C308.380310,354.471161 310.475830,356.132721 310.142426,360.214142 
	C307.668793,360.214142 305.244873,360.214142 302.378723,360.214020 
z"/>
<path fill="none" opacity="1.000000" stroke="none"
	d="
M451.629333,373.740265 
	C448.883392,374.021942 445.304932,373.910156 446.456604,371.087860 
	C447.414886,368.739471 451.410767,367.630615 454.401642,365.759705 
	C456.237518,370.350555 455.122223,372.409149 451.629333,373.740265 
z"/>
<path fill="none" opacity="1.000000" stroke="none"
	d="
M617.549072,357.871033 
	C617.109314,358.893219 616.539307,360.060913 615.891541,360.105652 
	C612.956970,360.308502 610.000549,360.194397 606.156982,359.010010 
	C607.716736,357.550018 609.197144,355.022278 610.856323,354.898834 
	C612.955750,354.742615 615.200867,356.542938 617.549072,357.871033 
z"/>
<path fill="none" opacity="1.000000" stroke="none"
	d="
M706.866821,367.607666 
	C708.703735,367.286224 710.143982,367.096161 711.664978,366.895477 
	C713.090454,370.682281 711.732849,373.038452 708.273254,373.648376 
	C706.679443,373.929382 704.824890,372.731354 703.088562,372.203918 
	C704.215759,370.715637 705.342957,369.227356 706.866821,367.607666 
z"/>
<path fill="none" opacity="1.000000" stroke="none"
	d="
M660.676147,419.031982 
	C664.082153,423.210175 663.473755,425.006836 657.296631,425.970703 
	C658.486023,423.175598 659.380798,421.072937 660.676147,419.031982 
z"/>
<path fill="none" opacity="1.000000" stroke="none"
	d="
M276.288635,413.586975 
	C279.872467,419.778351 278.416321,423.500549 272.377258,423.922028 
	C272.377258,420.535156 272.377258,417.160339 272.377258,413.336609 
	C273.528320,413.336609 274.734985,413.336609 276.288635,413.586975 
z"/>
<path fill="none" opacity="1.000000" stroke="none"
	d="
M388.563965,431.209534 
	C388.027466,428.177856 387.062744,425.315643 387.590057,422.761505 
	C388.415039,418.765778 392.819550,417.669861 395.767975,420.248596 
	C398.411987,422.561096 399.123199,429.107025 396.817871,431.726288 
	C394.171722,434.732727 391.403809,434.390259 388.563965,431.209534 
z"/>
<path fill="none" opacity="1.000000" stroke="none"
	d="
M314.960815,422.274536 
	C315.208344,422.966034 315.470123,423.304810 315.417114,423.583771 
	C314.834412,426.648743 314.541321,429.847595 313.350616,432.663788 
	C313.045868,433.384552 308.677582,433.595306 308.214783,432.821350 
	C306.639099,430.186249 305.430054,427.049835 305.189453,424.016876 
	C305.068146,422.487915 307.225067,419.539368 308.543884,419.423737 
	C310.551239,419.247772 312.725464,420.975067 314.960815,422.274536 
z"/>
<path fill="none" opacity="1.000000" stroke="none"
	d="
M289.371460,419.513916 
	C290.866150,420.038879 293.128845,420.912079 293.133575,421.797333 
	C293.141876,423.355560 291.770508,424.921112 290.976868,426.483612 
	C290.358795,426.296509 289.740723,426.109406 289.122650,425.922333 
	C289.122650,423.904083 289.122650,421.885803 289.371460,419.513916 
z"/>
</svg>