<svg version="1.1" id="Layer_1" xmlns="http://www.w3.org/2000/svg" xmlns:xlink="http://www.w3.org/1999/xlink" x="0px" y="0px"
	 width="100%" viewBox="0 0 1600 1200" enable-background="new 0 0 1600 1200" xml:space="preserve">
<path fill="none" opacity="1.000000" stroke="none"
	d="
M954.000000,1201.000000 
	C636.000061,1201.000000 318.500122,1201.000000 1.000128,1201.000000 
	C1.000085,801.000122 1.000085,401.000244 1.000043,1.000289 
	C534.333130,1.000193 1067.666260,1.000193 1600.999512,1.000096 
	C1600.999756,400.999725 1600.999756,800.999451 1600.999878,1200.999512 
	C1385.500000,1201.000000 1170.000000,1201.000000 954.000000,1201.000000 
M380.099823,717.527344 
	C380.380585,717.787781 380.661316,718.048218 381.191101,718.917236 
	C383.258392,721.938354 385.300446,724.977051 387.396790,727.977905 
	C430.613586,789.842041 521.052124,790.730896 565.016418,729.438110 
	C595.958252,686.300537 626.483276,642.861389 656.905762,599.354919 
	C673.453125,575.691040 679.879028,549.203979 674.979919,520.701111 
	C667.528931,477.351807 642.704407,447.441833 600.902039,434.158600 
	C558.777954,420.773224 521.090027,430.888000 489.528992,462.164551 
	C484.731903,466.918396 480.625122,472.368896 475.916565,476.785217 
	C469.915802,469.904510 464.517212,462.363525 457.815491,456.251373 
	C417.463806,419.449524 353.805176,419.631683 313.277008,456.308167 
	C271.754791,493.884247 265.137024,554.455261 297.628418,600.837463 
	C318.265533,630.297424 339.064484,659.644287 359.865784,688.988708 
	C366.095551,697.777100 372.578033,706.386230 378.985229,715.013977 
	C378.985229,715.013977 378.910065,715.019592 378.871399,715.642151 
	C379.263885,716.097473 379.656372,716.552856 380.040771,716.971130 
	C380.040771,716.971130 380.010651,716.947998 380.099823,717.527344 
M985.695007,552.218201 
	C988.849976,539.921143 992.004944,527.624084 995.226013,515.069336 
	C979.437988,515.069336 964.331848,515.069336 949.049500,515.069336 
	C940.722107,556.751038 932.432800,598.241943 924.143494,639.732849 
	C923.852844,639.699158 923.562256,639.665527 923.271606,639.631897 
	C913.505981,598.089539 903.740295,556.547241 893.934509,514.834229 
	C879.505127,514.834229 865.523193,514.940002 851.544861,514.760376 
	C848.017151,514.715027 846.417358,515.489868 845.510132,519.304810 
	C837.818237,551.651550 829.846375,583.931885 821.939636,616.227417 
	C820.023071,624.056030 818.036255,631.867310 816.081787,639.686523 
	C815.800110,639.638245 815.518494,639.589966 815.236877,639.541687 
	C807.019775,598.031067 798.802734,556.520508 790.597412,515.069458 
	C775.089233,515.069458 760.141602,515.069458 744.611206,515.069458 
	C759.467102,573.656006 774.231628,631.882263 788.936035,689.871460 
	C806.711914,689.871460 823.801086,689.871460 841.088806,689.871460 
	C850.538452,652.290039 859.930969,614.935852 869.683594,576.149597 
	C870.458496,578.731689 870.833313,579.799744 871.099731,580.894226 
	C879.634888,615.948303 888.163208,651.004089 896.676575,686.063538 
	C897.180176,688.137329 897.132874,690.252136 900.389587,690.225220 
	C916.697937,690.090271 933.007996,690.163391 949.658508,690.163391 
	C961.618042,644.279907 973.515564,598.634521 985.695007,552.218201 
M1103.488525,557.994751 
	C1093.143433,552.133362 1081.971558,549.278748 1070.139160,548.848083 
	C1049.934204,548.112793 1031.611206,552.797852 1016.262695,566.842773 
	C990.331116,590.571899 989.866394,638.944031 1008.084595,664.559814 
	C1029.246216,694.314087 1077.089844,701.781128 1107.869995,679.734680 
	C1120.204224,670.900269 1128.338013,659.138367 1132.312500,643.844421 
	C1117.322510,643.844421 1102.854614,643.802429 1088.388184,643.937744 
	C1087.412231,643.946777 1086.172729,645.102417 1085.521973,646.046204 
	C1078.551025,656.158569 1067.611328,659.846313 1055.764893,655.962158 
	C1045.287354,652.526794 1038.442871,642.603271 1038.751831,630.887085 
	C1070.669312,630.887085 1102.599487,630.887085 1134.458008,630.887085 
	C1139.628784,600.658813 1128.363525,573.901001 1103.488525,557.994751 
M1218.834229,573.492859 
	C1218.834229,577.600647 1218.834229,581.708374 1218.834229,586.383179 
	C1237.925781,586.383179 1256.427246,586.383179 1275.774414,586.383179 
	C1273.910767,588.698059 1272.688965,590.248718 1271.432739,591.770874 
	C1255.427612,611.162415 1239.556519,630.667542 1223.306274,649.851501 
	C1219.491089,654.355347 1217.727173,658.763184 1218.044922,664.648010 
	C1218.498413,673.048706 1218.160278,681.492188 1218.160278,689.775330 
	C1254.777466,689.775330 1290.662231,689.775330 1326.510986,689.775330 
	C1326.510986,677.972778 1326.510986,666.563721 1326.510986,654.687012 
	C1306.652466,654.687012 1287.117432,654.687012 1266.719360,654.687012 
	C1268.442505,652.597961 1269.569214,651.206604 1270.722656,649.837646 
	C1286.386841,631.246521 1301.772095,612.408630 1317.871460,594.202148 
	C1323.688843,587.623230 1326.499023,581.054260 1325.674927,572.321350 
	C1325.012817,565.304810 1325.540894,558.175903 1325.540894,551.194275 
	C1289.528076,551.194275 1254.305176,551.194275 1218.834229,551.194275 
	C1218.834229,558.533142 1218.834229,565.513672 1218.834229,573.492859 
M1197.001709,667.500000 
	C1197.001709,613.445679 1197.001709,559.391296 1197.001709,505.542480 
	C1182.264160,505.542480 1168.357056,505.542480 1154.422852,505.542480 
	C1154.422852,567.174377 1154.422852,628.423706 1154.422852,689.803589 
	C1168.715698,689.803589 1182.743164,689.803589 1197.001709,689.803589 
	C1197.001709,682.462402 1197.001709,675.481140 1197.001709,667.500000 
z"/>
<path fill="#64ffda" opacity="1.000000" stroke="#020c1b" stroke-width="4.0"
	d="
M476.199036,477.497192 
	C480.625122,472.368896 484.731903,466.918396 489.528992,462.164551 
	C521.090027,430.888000 558.777954,420.773224 600.902039,434.158600 
	C642.704407,447.441833 667.528931,477.351807 674.979919,520.701111 
	C679.879028,549.203979 673.453125,575.691040 656.905762,599.354919 
	C626.483276,642.861389 595.958252,686.300537 565.016418,729.438110 
	C521.052124,790.730896 430.613586,789.842041 387.396790,727.977905 
	C385.300446,724.977051 383.258392,721.938354 381.019592,718.318909 
	C380.568939,717.463013 380.289795,717.205505 380.010681,716.947998 
	C380.010651,716.947998 380.040771,716.971130 380.042297,716.671997 
	C379.665894,715.921753 379.287964,715.470642 378.910065,715.019592 
	C378.910065,715.019592 378.985229,715.013977 379.002014,714.662415 
	C378.937958,713.819519 378.961945,713.279968 378.761108,712.843872 
	C370.476776,694.857300 366.843475,676.164734 368.804688,656.267456 
	C370.382324,640.261597 374.653442,625.191528 383.087494,611.626831 
	C390.530609,599.655945 398.975098,588.301819 407.100098,576.761780 
	C425.173309,551.092102 443.373047,525.511475 461.410278,499.816589 
	C466.536194,492.514618 471.280029,484.944397 476.199036,477.497192 
z"/>
<path fill="#64ffda" opacity="1.000000" stroke="#020c1b" stroke-width="4.0"
	d="
M476.057800,477.141174 
	C471.280029,484.944397 466.536194,492.514618 461.410278,499.816589 
	C443.373047,525.511475 425.173309,551.092102 407.100098,576.761780 
	C398.975098,588.301819 390.530609,599.655945 383.087494,611.626831 
	C374.653442,625.191528 370.382324,640.261597 368.804688,656.267456 
	C366.843475,676.164734 370.476776,694.857300 378.761108,712.843872 
	C378.961945,713.279968 378.937958,713.819519 378.981750,714.694214 
	C372.578033,706.386230 366.095551,697.777100 359.865784,688.988708 
	C339.064484,659.644287 318.265533,630.297424 297.628418,600.837463 
	C265.137024,554.455261 271.754791,493.884247 313.277008,456.308167 
	C353.805176,419.631683 417.463806,419.449524 457.815491,456.251373 
	C464.517212,462.363525 469.915802,469.904510 476.057800,477.141174 
z"/>
<path fill="#64ffda" opacity="1.000000" stroke="none"
	d="
M985.554077,552.603699 
	C973.515564,598.634521 961.618042,644.279907 949.658508,690.163391 
	C933.007996,690.163391 916.697937,690.090271 900.389587,690.225220 
	C897.132874,690.252136 897.180176,688.137329 896.676575,686.063538 
	C888.163208,651.004089 879.634888,615.948303 871.099731,580.894226 
	C870.833313,579.799744 870.458496,578.731689 869.683594,576.149597 
	C859.930969,614.935852 850.538452,652.290039 841.088806,689.871460 
	C823.801086,689.871460 806.711914,689.871460 788.936035,689.871460 
	C774.231628,631.882263 759.467102,573.656006 744.611206,515.069458 
	C760.141602,515.069458 775.089233,515.069458 790.597412,515.069458 
	C798.802734,556.520508 807.019775,598.031067 815.236877,639.541687 
	C815.518494,639.589966 815.800110,639.638245 816.081787,639.686523 
	C818.036255,631.867310 820.023071,624.056030 821.939636,616.227417 
	C829.846375,583.931885 837.818237,551.651550 845.510132,519.304810 
	C846.417358,515.489868 848.017151,514.715027 851.544861,514.760376 
	C865.523193,514.940002 879.505127,514.834229 893.934509,514.834229 
	C903.740295,556.547241 913.505981,598.089539 923.271606,639.631897 
	C923.562256,639.665527 923.852844,639.699158 924.143494,639.732849 
	C932.432800,598.241943 940.722107,556.751038 949.049500,515.069336 
	C964.331848,515.069336 979.437988,515.069336 995.226013,515.069336 
	C992.004944,527.624084 988.849976,539.921143 985.554077,552.603699 
z"/>
<path fill="#64ffda" opacity="1.000000" stroke="none"
	d="
M1103.814941,558.159119 
	C1128.363525,573.901001 1139.628784,600.658813 1134.458008,630.887085 
	C1102.599487,630.887085 1070.669312,630.887085 1038.751831,630.887085 
	C1038.442871,642.603271 1045.287354,652.526794 1055.764893,655.962158 
	C1067.611328,659.846313 1078.551025,656.158569 1085.521973,646.046204 
	C1086.172729,645.102417 1087.412231,643.946777 1088.388184,643.937744 
	C1102.854614,643.802429 1117.322510,643.844421 1132.312500,643.844421 
	C1128.338013,659.138367 1120.204224,670.900269 1107.869995,679.734680 
	C1077.089844,701.781128 1029.246216,694.314087 1008.084595,664.559814 
	C989.866394,638.944031 990.331116,590.571899 1016.262695,566.842773 
	C1031.611206,552.797852 1049.934204,548.112793 1070.139160,548.848083 
	C1081.971558,549.278748 1093.143433,552.133362 1103.814941,558.159119 
M1091.331299,606.332886 
	C1091.706055,599.126282 1088.691895,593.457458 1083.247559,589.008728 
	C1073.648315,581.164734 1057.735474,581.157959 1048.054932,589.019775 
	C1042.458374,593.564880 1039.451172,599.482727 1038.753540,606.870972 
	C1056.465454,606.870972 1073.571655,606.870972 1091.331299,606.332886 
z"/>
<path fill="#64ffda" opacity="1.000000" stroke="none"
	d="
M1218.834229,572.993530 
	C1218.834229,565.513672 1218.834229,558.533142 1218.834229,551.194275 
	C1254.305176,551.194275 1289.528076,551.194275 1325.540894,551.194275 
	C1325.540894,558.175903 1325.012817,565.304810 1325.674927,572.321350 
	C1326.499023,581.054260 1323.688843,587.623230 1317.871460,594.202148 
	C1301.772095,612.408630 1286.386841,631.246521 1270.722656,649.837646 
	C1269.569214,651.206604 1268.442505,652.597961 1266.719360,654.687012 
	C1287.117432,654.687012 1306.652466,654.687012 1326.510986,654.687012 
	C1326.510986,666.563721 1326.510986,677.972778 1326.510986,689.775330 
	C1290.662231,689.775330 1254.777466,689.775330 1218.160278,689.775330 
	C1218.160278,681.492188 1218.498413,673.048706 1218.044922,664.648010 
	C1217.727173,658.763184 1219.491089,654.355347 1223.306274,649.851501 
	C1239.556519,630.667542 1255.427612,611.162415 1271.432739,591.770874 
	C1272.688965,590.248718 1273.910767,588.698059 1275.774414,586.383179 
	C1256.427246,586.383179 1237.925781,586.383179 1218.834229,586.383179 
	C1218.834229,581.708374 1218.834229,577.600647 1218.834229,572.993530 
z"/>
<path fill="#64ffda" opacity="1.000000" stroke="none"
	d="
M1197.001709,668.000000 
	C1197.001709,675.481140 1197.001709,682.462402 1197.001709,689.803589 
	C1182.743164,689.803589 1168.715698,689.803589 1154.422852,689.803589 
	C1154.422852,628.423706 1154.422852,567.174377 1154.422852,505.542480 
	C1168.357056,505.542480 1182.264160,505.542480 1197.001709,505.542480 
	C1197.001709,559.391296 1197.001709,613.445679 1197.001709,668.000000 
z"/>
<path fill="#64ffda" opacity="1.000000" stroke="none"
	d="
M378.890747,715.330872 
	C379.287964,715.470642 379.665894,715.921753 380.046326,716.690491 
	C379.656372,716.552856 379.263885,716.097473 378.890747,715.330872 
z"/>
<path fill="#64ffda" opacity="1.000000" stroke="none"
	d="
M380.055237,717.237671 
	C380.289795,717.205505 380.568939,717.463013 380.895081,718.014648 
	C380.661316,718.048218 380.380585,717.787781 380.055237,717.237671 
z"/>
<path fill="none" opacity="1.000000" stroke="none"
	d="
M1091.004639,606.601929 
	C1073.571655,606.870972 1056.465454,606.870972 1038.753540,606.870972 
	C1039.451172,599.482727 1042.458374,593.564880 1048.054932,589.019775 
	C1057.735474,581.157959 1073.648315,581.164734 1083.247559,589.008728 
	C1088.691895,593.457458 1091.706055,599.126282 1091.004639,606.601929 
z"/>
</svg>