<?xml version="1.0" encoding="UTF-8"?>
<svg
        fill="#"
        xmlns="http://www.w3.org/2000/svg" viewBox="0 0 556.7 168.64">
    <defs>
        <style>.cls-1{fill:#64ffda;}.cls-2{fill:#000000;}</style>
    </defs>
    <g id="Layer_2" data-name="Layer 2">
        <g id="Layer_1-2" data-name="Layer 1">
            <path
                    class="cls-1"
                  d="M216.34,67.75H171.28L162.72,113h50.76L211,126H145L168.55,2h63.2l-2.56,13.05H181.33l-7.58,39.72h45.12Zm38.4-63.9A131.73,131.73,0,0,1,281.8,1.2c12.38,0,23,2.92,29.62,9a26.54,26.54,0,0,1,9.16,20.53c0,18-13.82,31.47-29.46,35.85l0,.46c8.68,2.89,12.76,12.18,13.68,24.9,1.38,17.29,2.25,29.15,3.87,34.12h-15.8c-.72-2.62-2-15.61-2.87-29.91C289,79.05,282.72,72,270.41,72H256.86l-10.25,54H231.48Zm4.45,56.31h13.66c19.35,0,31.81-12.62,31.81-27.51,0-13.27-10-19.24-24-19.24-6.08,0-10,.51-12.84,1.33Zm178.65-9.31c0,21.49-7.88,45.22-22.6,59.91a59.07,59.07,0,0,1-42.5,17.31c-32,0-47-24.15-47-50.48,0-21.79,8.54-46,23.65-60.78A60.58,60.58,0,0,1,391,0C424.32,0,437.84,24.3,437.84,50.85ZM360.59,25.31c-11.93,12-18.82,33.75-18.82,51.08,0,20.17,9,38.78,33.22,38.78,10.56,0,20.59-4.57,28.32-12.39C415,91,421.78,68.76,421.78,51.5c0-17.57-5.78-38.6-32.86-38.6C377.91,12.9,368.2,17.7,360.59,25.31ZM441.82,126,465.41,2h16.71l28.4,70.22a253.21,253.21,0,0,1,10.89,34.59l.41-.2c.66-11.13,2-21.43,5.19-38.81L539.53,2H554L530.37,126H515.29L487,55.94c-6-15.34-8.81-24-11.5-35.78l-.55.19c-1.37,11.59-3.34,24-6.51,40.86L456.21,126Zm114.88,42.6-12-32.22H114.4L93.94,83.74,157.27,2H127.83L99.32,41.61c-5.72,8.65-11,17-16.59,26.16h-.58c-2.37-8.46-4.89-15.89-8.28-26L59.67,2H33.58L64.28,83.7,0,168.64H29.52l27.1-39.19c8-11.73,13.54-20.64,18.78-28.95h.53c2.87,9.15,6.12,18.2,10.21,28.95l14.56,39.19Z"></path>
            <path
                    class="cls-2"
                  d="M194,149.38a5.86,5.86,0,0,0-1.7-3.79,5.23,5.23,0,0,0-3.71-1.35,5.88,5.88,0,0,0-2.59.58,6.41,6.41,0,0,0-2.12,1.68,8.34,8.34,0,0,0-1.43,2.62,11,11,0,0,0-.52,3.46,9.6,9.6,0,0,0,.94,4.32,7.19,7.19,0,0,0,2.52,2.91,6.31,6.31,0,0,0,3.51,1,7.79,7.79,0,0,0,3.33-.77,6.81,6.81,0,0,0,2.68-2.22l.67.55a9.09,9.09,0,0,1-2.41,2.36,8.21,8.21,0,0,1-2.59,1.13,10.43,10.43,0,0,1-2.35.3,8.9,8.9,0,0,1-3.58-.7,8.42,8.42,0,0,1-2.81-2A8.87,8.87,0,0,1,180,156.6a10.26,10.26,0,0,1-.63-3.63,11.47,11.47,0,0,1,.56-3.59,9.78,9.78,0,0,1,1.67-3.14,8.2,8.2,0,0,1,2.82-2.24,9,9,0,0,1,4-.83,9.18,9.18,0,0,1,5.25,1.58l-.13-1.4h1.4v6ZM199.78,161a1.34,1.34,0,0,0,1.12-.4,2,2,0,0,0,.36-1.12c0-.47.05-1,.05-1.65V145.54c0-.28,0-.55,0-.8s0-.55.06-.9l-.92.06-.92,0v-1.09a11.55,11.55,0,0,0,1.78-.11,3.58,3.58,0,0,0,1-.26,1.87,1.87,0,0,0,.51-.33h.75l0,16.87c0,.35,0,.65,0,.92s-.05.55-.1.85l.82,0,.81,0v1.07h-5.3Zm9.85,0a1.34,1.34,0,0,0,1.12-.4,2.07,2.07,0,0,0,.37-1.12c0-.47,0-1,0-1.65v-5.92c0-.28,0-.55,0-.8s.05-.55.08-.9l-.92.06-.92,0v-1.09a11.08,11.08,0,0,0,1.76-.11,3.38,3.38,0,0,0,.95-.26,1.73,1.73,0,0,0,.51-.33h.75V159c0,.35,0,.65,0,.92a6.65,6.65,0,0,1-.09.85l.82,0,.82,0v1.07h-5.31ZM212.16,146a1.31,1.31,0,0,1-1-.44,1.57,1.57,0,0,1-.41-1.09,1.55,1.55,0,0,1,.43-1.11,1.3,1.3,0,0,1,1-.45,1.29,1.29,0,0,1,1,.45,1.62,1.62,0,0,1,.41,1.11,1.54,1.54,0,0,1-.43,1.09A1.37,1.37,0,0,1,212.16,146Zm7.3,15.84V161a1.34,1.34,0,0,0,1.12-.4,2,2,0,0,0,.36-1.12q.06-.71.06-1.65l0-5.92c0-.28,0-.56,0-.84a5.41,5.41,0,0,1,.1-.86l-.93.06-.92,0v-1.09a10.48,10.48,0,0,0,1.73-.11,2.83,2.83,0,0,0,.87-.26,2,2,0,0,0,.47-.33h.75c0,.12,0,.26,0,.41s0,.33,0,.52a6.32,6.32,0,0,1,0,.65,7.65,7.65,0,0,1,1.26-.88,7.48,7.48,0,0,1,1.45-.63,5.39,5.39,0,0,1,1.52-.23,3.83,3.83,0,0,1,3.31,1.42,7.49,7.49,0,0,1,1,4.4V159c0,.35,0,.65,0,.92a6.65,6.65,0,0,1-.09.85l.82,0,.82,0v1.07H228V161a1.31,1.31,0,0,0,1.11-.4,2.07,2.07,0,0,0,.37-1.12c0-.47.05-1,.05-1.65v-3.64a6.62,6.62,0,0,0-.74-3.38,2.41,2.41,0,0,0-2.25-1.11,4.07,4.07,0,0,0-1.83.49,4.79,4.79,0,0,0-1.5,1.19,3.38,3.38,0,0,1,0,.47v.55l0,6.63c0,.35,0,.65,0,.92a6.65,6.65,0,0,1-.09.85l.82,0,.82,0v1.07Zm18.31-.79a1.31,1.31,0,0,0,1.11-.4,2.07,2.07,0,0,0,.37-1.12c0-.47.05-1,.05-1.65v-5.92c0-.28,0-.55,0-.8s0-.55.07-.9l-.92.06-.92,0v-1.09a11.31,11.31,0,0,0,1.77-.11,3.4,3.4,0,0,0,.94-.26,1.73,1.73,0,0,0,.51-.33h.76V159c0,.35,0,.65,0,.92a6.65,6.65,0,0,1-.09.85l.82,0,.82,0v1.07h-5.3ZM240.29,146a1.27,1.27,0,0,1-1-.44,1.64,1.64,0,0,1,0-2.2,1.3,1.3,0,0,1,1-.45,1.29,1.29,0,0,1,1,.45,1.62,1.62,0,0,1,.41,1.11,1.54,1.54,0,0,1-.43,1.09A1.37,1.37,0,0,1,240.29,146Zm13.65,16.25a6.64,6.64,0,0,1-3.21-.79,5.92,5.92,0,0,1-2.34-2.29,7.06,7.06,0,0,1-.87-3.6,7.21,7.21,0,0,1,.49-2.63,7.73,7.73,0,0,1,1.39-2.3,6.63,6.63,0,0,1,2.15-1.62,6.26,6.26,0,0,1,2.75-.6,6.78,6.78,0,0,1,2.54.44,4.23,4.23,0,0,1,1.67,1.17,2.47,2.47,0,0,1,.6,1.59,1.52,1.52,0,0,1-.31,1,1.08,1.08,0,0,1-.91.41,1,1,0,0,1-.92-.41,1.4,1.4,0,0,1-.28-.76,2,2,0,0,1,.08-.54,1.16,1.16,0,0,1,.31-.5,1.6,1.6,0,0,0-.73-.93,3.07,3.07,0,0,0-1.07-.39,6.1,6.1,0,0,0-.93-.09,3.73,3.73,0,0,0-3,1.42,6.16,6.16,0,0,0-1.21,4.12,7.88,7.88,0,0,0,.56,3.09,4.9,4.9,0,0,0,1.57,2.12,3.8,3.8,0,0,0,2.34.77,4.65,4.65,0,0,0,2.34-.65,5.07,5.07,0,0,0,1.74-1.59l.68.52a6,6,0,0,1-1.63,1.77,6.91,6.91,0,0,1-1.95,1A6.26,6.26,0,0,1,253.94,162.2Zm17.86-.41c-.05-.3-.09-.56-.11-.79s0-.45-.07-.7a7.11,7.11,0,0,1-1.91,1.39,4.84,4.84,0,0,1-2.17.51,4.17,4.17,0,0,1-2.94-.9,2.88,2.88,0,0,1-1-2.19,3.07,3.07,0,0,1,.75-2.07,5.55,5.55,0,0,1,1.92-1.43,11.05,11.05,0,0,1,2.57-.83,12.66,12.66,0,0,1,2.69-.25v-1.61a9.41,9.41,0,0,0-.15-1.72,2.43,2.43,0,0,0-.68-1.32,2.34,2.34,0,0,0-1.66-.55,3.8,3.8,0,0,0-1.55.29,2.12,2.12,0,0,0-1.16,1.06,1.07,1.07,0,0,1,.28.48,2.5,2.5,0,0,1,.06.51,1.32,1.32,0,0,1-.26.72.93.93,0,0,1-.91.37,1,1,0,0,1-.83-.37,1.46,1.46,0,0,1-.28-.9,2.27,2.27,0,0,1,.66-1.59,4.55,4.55,0,0,1,1.83-1.11,7.84,7.84,0,0,1,2.65-.42,4.11,4.11,0,0,1,3.23,1.16,5.28,5.28,0,0,1,1,3.65v1.94c0,.65,0,1.3,0,1.95s0,1.3,0,2c0,.28,0,.55,0,.83s0,.59-.08.94l.92-.05.93-.06v1.1Zm-.24-6.37a10.44,10.44,0,0,0-1.85.22,7.75,7.75,0,0,0-1.8.58,3.6,3.6,0,0,0-1.32,1,2.31,2.31,0,0,0-.49,1.54,1.92,1.92,0,0,0,.64,1.45,2.14,2.14,0,0,0,1.39.48,4.18,4.18,0,0,0,1.86-.4,7.09,7.09,0,0,0,1.57-1.13c0-.2,0-.4,0-.63v-.7c0-.09,0-.36,0-.83S271.56,156,271.56,155.42Zm8,5.58a1.34,1.34,0,0,0,1.12-.4,2.07,2.07,0,0,0,.37-1.12c0-.47.05-1,.05-1.65V145.54c0-.28,0-.55,0-.8s0-.55.07-.9l-.93.06-.92,0v-1.09a11.55,11.55,0,0,0,1.78-.11,3.47,3.47,0,0,0,1-.26,1.73,1.73,0,0,0,.51-.33h.75l0,16.87c0,.35,0,.65,0,.92a6.74,6.74,0,0,1-.1.85l.82,0,.82,0v1.07h-5.31Zm19.5.79v-.86a1.93,1.93,0,0,0,1.35-.46,1.74,1.74,0,0,0,.41-1.12c0-.47,0-1,0-1.62V146.5c0-.35,0-.68,0-1s0-.62.05-.88l-.93.06-.94,0v-1.15h5.85v.86a1.87,1.87,0,0,0-1.34.44,1.75,1.75,0,0,0-.41,1.12c0,.47,0,1,0,1.64v11.15c0,.47,0,.87,0,1.2a7.86,7.86,0,0,1-.07.83l4.86-.07a3.17,3.17,0,0,0,2.49-1,5.2,5.2,0,0,0,.84-3.31h.88l-.15,5.39Zm25.74,0a6.81,6.81,0,0,1-.1-.79c0-.22,0-.45-.08-.7a7.11,7.11,0,0,1-1.91,1.39,4.84,4.84,0,0,1-2.17.51,4.17,4.17,0,0,1-2.94-.9,2.87,2.87,0,0,1-1-2.19,3.06,3.06,0,0,1,.74-2.07,5.55,5.55,0,0,1,1.92-1.43,11,11,0,0,1,2.58-.83,12.54,12.54,0,0,1,2.69-.25v-1.61a8.59,8.59,0,0,0-.16-1.72,2.49,2.49,0,0,0-.67-1.32,2.38,2.38,0,0,0-1.67-.55,3.8,3.8,0,0,0-1.55.29,2.1,2.1,0,0,0-1.15,1.06,1,1,0,0,1,.27.48,2.58,2.58,0,0,1,.07.51,1.41,1.41,0,0,1-.26.72,1,1,0,0,1-.91.37,1,1,0,0,1-.84-.37,1.46,1.46,0,0,1-.28-.9,2.27,2.27,0,0,1,.66-1.59,4.55,4.55,0,0,1,1.83-1.11,7.86,7.86,0,0,1,2.66-.42,4.09,4.09,0,0,1,3.22,1.16,5.28,5.28,0,0,1,1,3.65v1.94c0,.65,0,1.3,0,1.95s0,1.3,0,2c0,.28,0,.55,0,.83s0,.59-.08.94l.93-.05.92-.06v1.1Zm-.23-6.37a10.44,10.44,0,0,0-1.86.22,7.75,7.75,0,0,0-1.8.58,3.68,3.68,0,0,0-1.32,1,2.26,2.26,0,0,0-.48,1.54,1.88,1.88,0,0,0,.63,1.45,2.14,2.14,0,0,0,1.4.48,4.1,4.1,0,0,0,1.85-.4,7.14,7.14,0,0,0,1.58-1.13,6.19,6.19,0,0,1,0-.63v-.7c0-.09,0-.36,0-.83S324.58,156,324.58,155.42Zm9.1-9.88c0-.28,0-.55,0-.8s0-.55.07-.9l-.93.06-.92,0v-1.09a11.46,11.46,0,0,0,1.78-.11,3.47,3.47,0,0,0,1-.26,1.73,1.73,0,0,0,.51-.33h.75v7.74a5.24,5.24,0,0,1,1.73-1.13,5.82,5.82,0,0,1,2.2-.4,5.6,5.6,0,0,1,5.12,3.09,8.22,8.22,0,0,1-.18,7.35,6.84,6.84,0,0,1-2.5,2.51,6.48,6.48,0,0,1-3.3.88,6.88,6.88,0,0,1-1.94-.32,4.18,4.18,0,0,1-1.88-1.26l-.62,1.17h-.92Zm2.23,12.16a4.21,4.21,0,0,0,.44,2.12,2.37,2.37,0,0,0,1.15,1,3.9,3.9,0,0,0,1.48.28,3.43,3.43,0,0,0,2.16-.7,4.58,4.58,0,0,0,1.42-1.93,7.76,7.76,0,0,0,.5-2.88,9.71,9.71,0,0,0-.44-3.1,4.63,4.63,0,0,0-1.32-2.11,3.31,3.31,0,0,0-2.24-.77,3.9,3.9,0,0,0-1.7.41,4.45,4.45,0,0,0-1.45,1.07Zm21,4.5a6.53,6.53,0,0,1-3.3-.84,6.38,6.38,0,0,1-2.36-2.34,6.69,6.69,0,0,1-.87-3.42,7.84,7.84,0,0,1,.86-3.69,6.6,6.6,0,0,1,2.34-2.59,6.08,6.08,0,0,1,3.33-.95,6.41,6.41,0,0,1,3.3.87,6.56,6.56,0,0,1,2.36,2.35,6.49,6.49,0,0,1,.89,3.38,7.72,7.72,0,0,1-.87,3.66,6.85,6.85,0,0,1-2.36,2.61A6,6,0,0,1,357,162.2Zm.2-1a3,3,0,0,0,2.19-.78,4.42,4.42,0,0,0,1.16-2,9.75,9.75,0,0,0,.35-2.62,12.54,12.54,0,0,0-.22-2.3,8,8,0,0,0-.69-2.06,4.31,4.31,0,0,0-1.21-1.47,3,3,0,0,0-1.78-.54,3.16,3.16,0,0,0-2.21.78,4.48,4.48,0,0,0-1.26,2,8.58,8.58,0,0,0-.41,2.67,10.2,10.2,0,0,0,.45,3.06,5.5,5.5,0,0,0,1.35,2.35A3.07,3.07,0,0,0,357.15,161.16Zm11.08-.16a1.34,1.34,0,0,0,1.12-.4,2,2,0,0,0,.36-1.12c0-.47.05-1,.05-1.65v-5.92c0-.28,0-.56,0-.84a6.8,6.8,0,0,1,.09-.86c-.31,0-.62,0-.92,0l-.93,0v-1.06h.81a3.92,3.92,0,0,0,1.55-.22,3.66,3.66,0,0,0,.71-.48h.75c0,.27.06.62.08,1s0,.93.05,1.55a5.83,5.83,0,0,1,1.07-1.27,6.12,6.12,0,0,1,1.52-1,4,4,0,0,1,1.78-.42,2.16,2.16,0,0,1,1.28.39,1.44,1.44,0,0,1,.54,1.25,1.25,1.25,0,0,1-1.3,1.24,1.14,1.14,0,0,1-.91-.45,1.31,1.31,0,0,1-.26-1,2.55,2.55,0,0,0-1.34.34,4.59,4.59,0,0,0-1.28,1,7,7,0,0,0-1.07,1.49l0,6.4c0,.35,0,.65,0,.92a6.65,6.65,0,0,1-.09.85l.82,0,.82,0v1.07h-5.33Zm21.5.79c-.05-.3-.08-.56-.1-.79s0-.45-.08-.7a7.11,7.11,0,0,1-1.91,1.39,4.81,4.81,0,0,1-2.17.51,4.17,4.17,0,0,1-2.94-.9,2.87,2.87,0,0,1-1-2.19,3.11,3.11,0,0,1,.74-2.07,5.65,5.65,0,0,1,1.92-1.43,11,11,0,0,1,2.58-.83,12.6,12.6,0,0,1,2.69-.25v-1.61a8.59,8.59,0,0,0-.16-1.72,2.49,2.49,0,0,0-.67-1.32,2.37,2.37,0,0,0-1.67-.55,3.72,3.72,0,0,0-1.54.29,2.09,2.09,0,0,0-1.16,1.06,1,1,0,0,1,.27.48,2,2,0,0,1,.07.51,1.41,1.41,0,0,1-.26.72,1,1,0,0,1-.91.37,1,1,0,0,1-.83-.37,1.41,1.41,0,0,1-.29-.9,2.27,2.27,0,0,1,.66-1.59,4.52,4.52,0,0,1,1.84-1.11,7.76,7.76,0,0,1,2.65-.42,4.09,4.09,0,0,1,3.22,1.16,5.28,5.28,0,0,1,1,3.65v1.94c0,.65,0,1.3,0,1.95s0,1.3,0,2c0,.28,0,.55,0,.83s0,.59-.08.94l.93-.05.92-.06v1.1Zm-.23-6.37a10.44,10.44,0,0,0-1.86.22,7.51,7.51,0,0,0-1.79.58,3.63,3.63,0,0,0-1.33,1,2.26,2.26,0,0,0-.48,1.54,1.89,1.89,0,0,0,.64,1.45,2.12,2.12,0,0,0,1.39.48,4.18,4.18,0,0,0,1.86-.4,7.33,7.33,0,0,0,1.57-1.13,6.19,6.19,0,0,1,0-.63v-.7c0-.09,0-.36,0-.83S389.5,156,389.5,155.42Zm13,6.78a4.78,4.78,0,0,1-1.22-.17,2.73,2.73,0,0,1-1.16-.66,3.43,3.43,0,0,1-.84-1.44,8.23,8.23,0,0,1-.31-2.51l.05-7.54-2,0v-1.11a2.61,2.61,0,0,0,1.37-.51,4.87,4.87,0,0,0,1.27-1.32,5.17,5.17,0,0,0,.76-1.81h.89v3.64h4.37v1l-4.37,0,0,7.23a8.78,8.78,0,0,0,.19,2,2.36,2.36,0,0,0,.64,1.23,1.57,1.57,0,0,0,1.14.42,2.45,2.45,0,0,0,1.37-.42,4.09,4.09,0,0,0,1.13-1.14l.7.57a7,7,0,0,1-1.13,1.35,4.44,4.44,0,0,1-1.08.74,3.6,3.6,0,0,1-1,.32A5.86,5.86,0,0,1,402.47,162.2Zm14.15,0a6.6,6.6,0,0,1-3.31-.84A6.43,6.43,0,0,1,411,159a6.69,6.69,0,0,1-.87-3.42,7.84,7.84,0,0,1,.86-3.69,6.6,6.6,0,0,1,2.34-2.59,6.08,6.08,0,0,1,3.33-.95,6.41,6.41,0,0,1,3.3.87,6.56,6.56,0,0,1,2.36,2.35,6.49,6.49,0,0,1,.89,3.38,7.72,7.72,0,0,1-.87,3.66,6.85,6.85,0,0,1-2.36,2.61A6,6,0,0,1,416.62,162.2Zm.2-1a3,3,0,0,0,2.19-.78,4.42,4.42,0,0,0,1.16-2,9.75,9.75,0,0,0,.35-2.62,12.54,12.54,0,0,0-.22-2.3,8,8,0,0,0-.69-2.06,4.31,4.31,0,0,0-1.21-1.47,3,3,0,0,0-1.78-.54,3.16,3.16,0,0,0-2.21.78,4.4,4.4,0,0,0-1.26,2,8.58,8.58,0,0,0-.41,2.67,10.2,10.2,0,0,0,.45,3.06,5.5,5.5,0,0,0,1.35,2.35A3.07,3.07,0,0,0,416.82,161.16ZM427.9,161a1.34,1.34,0,0,0,1.12-.4,2,2,0,0,0,.36-1.12c0-.47.05-1,.05-1.65v-5.92c0-.28,0-.56,0-.84a6.8,6.8,0,0,1,.09-.86c-.31,0-.62,0-.92,0l-.93,0v-1.06h.81a3.92,3.92,0,0,0,1.55-.22,3.66,3.66,0,0,0,.71-.48h.75c0,.27.06.62.08,1s0,.93.05,1.55a5.83,5.83,0,0,1,1.07-1.27,6.12,6.12,0,0,1,1.52-1,4,4,0,0,1,1.78-.42,2.16,2.16,0,0,1,1.28.39,1.44,1.44,0,0,1,.54,1.25,1.25,1.25,0,0,1-1.3,1.24,1.14,1.14,0,0,1-.91-.45,1.31,1.31,0,0,1-.26-1,2.55,2.55,0,0,0-1.34.34,4.59,4.59,0,0,0-1.28,1,7,7,0,0,0-1.07,1.49l0,6.4c0,.35,0,.65,0,.92a6.65,6.65,0,0,1-.09.85l.82,0,.82,0v1.07H427.9Zm13.78,0a1.34,1.34,0,0,0,1.12-.4,2,2,0,0,0,.36-1.12c0-.47,0-1,0-1.65v-5.92c0-.28,0-.55,0-.8s0-.55.08-.9l-.92.06-.93,0v-1.09a11.22,11.22,0,0,0,1.77-.11,3.49,3.49,0,0,0,.95-.26,1.73,1.73,0,0,0,.51-.33h.75V159c0,.35,0,.65,0,.92a6.65,6.65,0,0,1-.09.85l.82,0,.81,0v1.07h-5.3ZM444.2,146a1.31,1.31,0,0,1-1-.44,1.53,1.53,0,0,1-.42-1.09,1.59,1.59,0,0,1,.43-1.11,1.32,1.32,0,0,1,1-.45,1.29,1.29,0,0,1,1,.45,1.61,1.61,0,0,1,.4,1.11,1.5,1.5,0,0,1-.43,1.09A1.36,1.36,0,0,1,444.2,146Zm13.6,16.25a6.34,6.34,0,0,1-3.24-.84,6,6,0,0,1-2.27-2.4,7.54,7.54,0,0,1-.83-3.65,7.23,7.23,0,0,1,.82-3.4,6.63,6.63,0,0,1,2.3-2.57,6.07,6.07,0,0,1,3.43-1,5.91,5.91,0,0,1,2,.35,4.68,4.68,0,0,1,1.68,1.07,5,5,0,0,1,1.14,1.79,7,7,0,0,1,.42,2.54l-9.16.15a12.81,12.81,0,0,0,.43,3.47,4.67,4.67,0,0,0,1.39,2.32,3.73,3.73,0,0,0,2.47.82,5.23,5.23,0,0,0,1.66-.29,6.57,6.57,0,0,0,1.57-.78,4.93,4.93,0,0,0,1.17-1.09l.62.52a5.86,5.86,0,0,1-1.69,1.74,7.44,7.44,0,0,1-2,.94A7.25,7.25,0,0,1,457.8,162.2Zm-3.59-9h6.63a6.06,6.06,0,0,0-.27-1.81,3.13,3.13,0,0,0-.9-1.43,2.36,2.36,0,0,0-1.64-.56,3.59,3.59,0,0,0-2.5.9A4.75,4.75,0,0,0,454.21,153.18Zm19.24,9a7.1,7.1,0,0,1-2.31-.35,7.24,7.24,0,0,1-1.67-.79l.11.91h-1.09l-.16-4.47h.81a3.8,3.8,0,0,0,.59,1.91,3.93,3.93,0,0,0,1.41,1.31,3.81,3.81,0,0,0,1.84.47,4.31,4.31,0,0,0,1.33-.22,2.77,2.77,0,0,0,1.09-.68,1.57,1.57,0,0,0,.44-1.16,1.8,1.8,0,0,0-.42-1.21,3.93,3.93,0,0,0-1.14-.84,16.08,16.08,0,0,0-1.5-.68c-.52-.2-1-.42-1.56-.65a7.8,7.8,0,0,1-1.45-.8,3.71,3.71,0,0,1-1-1.15,3.26,3.26,0,0,1-.39-1.66,4,4,0,0,1,.21-1.2,3.56,3.56,0,0,1,2-2.19,5.48,5.48,0,0,1,2.19-.38,6.33,6.33,0,0,1,1.56.23,4.57,4.57,0,0,1,1.66.89l-.05-1H477v4.55h-.83a5.39,5.39,0,0,0-.42-1.76,3.6,3.6,0,0,0-1.06-1.4,2.86,2.86,0,0,0-1.82-.56,2.74,2.74,0,0,0-1.88.6,1.8,1.8,0,0,0-.67,1.38,1.88,1.88,0,0,0,.51,1.34,4.42,4.42,0,0,0,1.31.92q.81.39,1.71.75c.66.28,1.3.58,1.93.91a4.83,4.83,0,0,1,1.53,1.24,2.93,2.93,0,0,1,.6,1.91,3.45,3.45,0,0,1-.66,2.16,3.93,3.93,0,0,1-1.69,1.26A5.82,5.82,0,0,1,473.45,162.2Z"></path>
        </g>
    </g>
</svg>